<svg width="36" height="36" fill="none" xmlns="http://www.w3.org/2000/svg"><mask id="a" style="mask-type:luminance" maskUnits="userSpaceOnUse" x="0" y="2" width="36" height="34"><path d="M35.25 35.25V2.75H.75v32.5h34.5z" fill="#fff" stroke="#fff" stroke-width="1.5"/></mask><g mask="url(#a)" stroke="#F9B974" stroke-width="1.5" stroke-miterlimit="10" stroke-linecap="round" stroke-linejoin="round"><path d="M15.012 9.86h-8.35a2.34 2.34 0 01-2.342 2.342v7.802a2.34 2.34 0 012.341 2.341h12.144"/><path d="M15.18 16.103a2.811 2.811 0 115.622 0 2.811 2.811 0 01-5.622 0zm-4.418 0H9.035"/><path d="M14.348 25.002h19.988V7.204H1.664v17.797h17.4m5.709 6.611h-4.78a1.594 1.594 0 110-3.187h4.78a1.594 1.594 0 110 3.187z"/><path d="M24.773 28.425h-4.78a1.594 1.594 0 110-3.188h4.78a1.594 1.594 0 110 3.188zm7.969 3.475h-4.781a1.594 1.594 0 110-3.188h4.781a1.594 1.594 0 110 3.188z"/><path d="M32.742 28.712h-4.781a1.594 1.594 0 110-3.187h4.781a1.594 1.594 0 110 3.187z"/><path d="M32.742 25.525h-4.781a1.594 1.594 0 110-3.188h4.781a1.594 1.594 0 110 3.188zM8.004 31.9H3.223a1.594 1.594 0 110-3.188h4.78a1.594 1.594 0 110 3.188z"/><path d="M8.004 28.712H3.223a1.594 1.594 0 110-3.187h4.78a1.594 1.594 0 110 3.187z"/><path d="M8.004 25.525H3.223a1.594 1.594 0 110-3.188h4.78a1.594 1.594 0 110 3.188zM31.68 15.439v-3.237a2.34 2.34 0 01-2.341-2.341h-8.35"/></g></svg>