<svg width="36" height="36" fill="none" xmlns="http://www.w3.org/2000/svg"><g clip-path="url(#clip0_3009_61188)"><mask id="a" style="mask-type:luminance" maskUnits="userSpaceOnUse" x="0" y="0" width="36" height="36"><path d="M35.25 35.25V.75H.75v34.5h34.5z" fill="#fff" stroke="#fff" stroke-width="1.5"/></mask><g mask="url(#a)" stroke="#F9B974" stroke-width="1.5" stroke-miterlimit="10" stroke-linecap="round" stroke-linejoin="round"><path d="M15.368 22.395h-2.623a1.564 1.564 0 110-3.13h3.252H2.39a1.688 1.688 0 01-1.688-1.687V2.391c0-.932.756-1.688 1.688-1.688h12.454m6.329 0h12.436c.932 0 1.688.756 1.688 1.688v15.187c0 .932-.756 1.688-1.688 1.688H20.254"/><path d="M16.012 14.642A5.064 5.064 0 0118 4.922a5.062 5.062 0 011.969 9.728M30.727.773c0 2.488 2.012 4.5 4.5 4.5M5.273.773c0 2.488-2.012 4.5-4.5 4.5m29.954 13.922c0-2.487 2.012-4.5 4.5-4.5m-29.954 4.5c0-2.487-2.012-4.5-4.5-4.5m29.04-4.711a1.547 1.547 0 11-3.094 0 1.547 1.547 0 013.093 0zm-23.625 0a1.547 1.547 0 103.093 0 1.547 1.547 0 00-3.094 0z"/><path d="M15.495 31.36l-.418-.892a8.466 8.466 0 01.388-7.93l.566-.952v-6.773a1.969 1.969 0 013.938 0v6.175a1.687 1.687 0 103.375 0v-1.722h3.937v3.726c0 1.71-.414 3.392-1.207 4.906l-1.813 3.461"/><path d="M14.207 35.297v-3.938h12.094v3.938H14.207z"/></g></g><defs><clipPath id="clip0_3009_61188"><path fill="#fff" d="M0 0h36v36H0z"/></clipPath></defs></svg>