<svg width="36" height="36" fill="none" xmlns="http://www.w3.org/2000/svg"><mask id="a" style="mask-type:luminance" maskUnits="userSpaceOnUse" x="1" y="1" width="34" height="34"><path d="M34.25 34.25V1.75H1.75v32.5h32.5z" fill="#fff" stroke="#fff" stroke-width="1.5"/></mask><g mask="url(#a)" stroke="#F9B974" stroke-width="1.5" stroke-miterlimit="10" stroke-linecap="round" stroke-linejoin="round"><path d="M16.205 18.24a5.92 5.92 0 01-5.92-5.92V7.585a5.92 5.92 0 1111.84 0v4.737a5.92 5.92 0 01-5.92 5.92z"/><path d="M10.36 9.938h6.102a7.015 7.015 0 005.644-2.849m.795 2.335h-.772v4.118h.772a2.06 2.06 0 100-4.118zm-13.385 0h.772v4.118h-.772a2.06 2.06 0 110-4.118zM19.452 20.5a4.589 4.589 0 01-6.49 0m13.936-3.695l7.438 2.322v6.21a9.162 9.162 0 01-7.438 8.999 9.162 9.162 0 01-7.437-8.998v-6.211l7.438-2.322"/><path d="M22.117 21.08v4.258a6.515 6.515 0 004.781 6.273 6.515 6.515 0 004.782-6.273V21.08l-4.782-1.492-4.78 1.492z"/><path d="M24.773 25.266l1.53 1.53 2.72-2.72M19.268 20.7v-3.21m-5.164 14.19h7.906m-8.898-11.59l-6.477 1.276a6.164 6.164 0 00-4.97 6.047v4.267h6.463m4.983-14.181v2.858"/></g></svg>