<svg width="36" height="36" fill="none" xmlns="http://www.w3.org/2000/svg"><g clip-path="url(#clip0_3015_61717)"><path d="M30.186 28.177l-1.934 1.934 1.934 1.934" stroke="#F9B974" stroke-width="1.5" stroke-miterlimit="10" stroke-linecap="round" stroke-linejoin="round"/><mask id="a" style="mask-type:luminance" maskUnits="userSpaceOnUse" x="0" y="0" width="36" height="36"><path d="M35.25 35.25V.75H.75v34.5h34.5z" fill="#fff" stroke="#fff" stroke-width="1.5"/></mask><g mask="url(#a)" stroke="#F9B974" stroke-width="1.5" stroke-miterlimit="10" stroke-linecap="round" stroke-linejoin="round"><path d="M4.032 28.178l-1.934 1.934 1.934 1.934m18.805-9.531h-9.725a2.483 2.483 0 01-2.483-2.483v-4.036a2.483 2.483 0 012.483-2.484h9.725a2.483 2.483 0 012.484 2.484v4.036a2.483 2.483 0 01-2.484 2.483zm0 12.098h-9.725a2.483 2.483 0 01-2.483-2.483v-4.036a2.483 2.483 0 012.483-2.484h9.725a2.483 2.483 0 012.484 2.484v4.036a2.483 2.483 0 01-2.484 2.483zM14.97 1.387h-1.858a2.483 2.483 0 00-2.483 2.484v4.035a2.483 2.483 0 002.483 2.484h9.725a2.484 2.484 0 002.484-2.484V3.871a2.484 2.484 0 00-2.484-2.484h-1.673m7.088 16.626h2.191a4.854 4.854 0 014.854 4.854v2.39a4.854 4.854 0 01-4.854 4.855h-2.191M5.814 16.167l1.934 1.934-1.934 1.934"/><path d="M7.748 6.003H5.557a4.854 4.854 0 00-4.854 4.854v2.39a4.854 4.854 0 004.854 4.854h2.191m-5.65 12.011h5.664m22.41-26.524l-1.934 1.934 1.934 1.934m-1.934-1.934h5.665m-19.79.367h7.804m-7.804 12.124h4.723m-4.723 12.125h7.804"/></g></g><defs><clipPath id="clip0_3015_61717"><path fill="#fff" d="M0 0h36v36H0z"/></clipPath></defs></svg>