<svg width="36" height="36" fill="none" xmlns="http://www.w3.org/2000/svg"><g clip-path="url(#clip0_3015_61680)" stroke="#F9B974" stroke-miterlimit="10" stroke-linecap="round" stroke-linejoin="round"><path d="M22.509 12.778a5.133 5.133 0 10-7.26-7.26 5.133 5.133 0 007.26 7.26z" stroke-width="1.5"/><path d="M24.582 14.851A8.065 8.065 0 1013.175 3.445a8.065 8.065 0 0011.407 11.406z" stroke-width="1.5"/><path d="M27.865 16.114l-2.02 2.02-2.36-2.362a8.173 8.173 0 002.018-2.019l2.362 2.361z" stroke-width="1.5"/><path d="M33.113 16.645l-1.39-1.39-3.736 3.737m0 0l5.8 5.8a2.642 2.642 0 103.736-3.737l-.034-.034m-9.502-2.029v9.876M17 9.5l2 1.5 2-3.5M3.703 5.168v26.693m0 0h3.984v3.056H3.703v-3.056zm0 0h24.284m-24.284 0v-2.993h24.284m0 2.993h-3.984v3.056h3.983v-3.056zm0 0v-2.993M3.703 21.96h24.284M3.703 11.997h10.534m-2.56 6.703h-5.16v3.26h5.16m0-3.26v3.26m0-3.26h5.16v3.26h-5.16m-4.961 2.99h3.917v3.918H6.716V24.95zm7.134 0h3.918v3.918H13.85V24.95zm7.135 0h3.917v3.918h-3.917V24.95zM7.87 15.44h5.161v3.26h-5.16v-3.26zm-.935-7.26h3.614v3.614H6.935V8.181z" stroke-width="1.4"/></g><defs><clipPath id="clip0_3015_61680"><path fill="#fff" d="M0 0h36v36H0z"/></clipPath></defs></svg>