<svg width="36" height="36" fill="none" xmlns="http://www.w3.org/2000/svg"><g clip-path="url(#clip0_3015_61761)"><mask id="a" style="mask-type:luminance" maskUnits="userSpaceOnUse" x="0" y="0" width="36" height="36"><path d="M35.25 35.25V.75H.75v34.5h34.5z" fill="#fff" stroke="#fff" stroke-width="1.5"/></mask><g mask="url(#a)" stroke="#F9B974" stroke-width="1.5" stroke-miterlimit="10" stroke-linecap="round" stroke-linejoin="round"><path d="M26.986 3.747V2.561A1.857 1.857 0 0025.129.703h-5.597a1.857 1.857 0 00-1.857 1.858v1.186h-3.618v1.546c0 .769.623 1.392 1.392 1.392h13.763c.77 0 1.393-.623 1.393-1.392V3.747h-3.62zM9.863 19.373c-.019-.029-.036-.058-.052-.085v-.001l.052.086z"/><path d="M34.95 30.065v4.217c0 .56-.455 1.015-1.016 1.015H10.729c-.56 0-1.015-.455-1.015-1.015v-8.823l.683-.683-.67-.67 2.465-2.463a6.5 6.5 0 10-2.478-8.755V4.764c0-.561.455-1.016 1.015-1.016h3.33v1.546c0 .768.624 1.392 1.392 1.392h13.762c.769 0 1.393-.624 1.393-1.392V3.748h3.33c.56 0 1.015.455 1.015 1.016v19.12M21.057 3.694s2.55.013 2.55 0M20.018 29.73a3.057 3.057 0 11-2.825-4.224m7.27-11.377h5.777m-5.777 3.336h3.59m-4.073 9.36h6.26m-6.26 3.336h4.072"/><path d="M16.5 28.059l.96.96 2.558-2.559m-9.623-1.684l-4.889 4.889a2.61 2.61 0 11-3.69-3.691l4.888-4.889 3.691 3.69z"/><path d="M9.81 19.287l-2.453 2.452 2.368 2.368 2.464-2.464a6.52 6.52 0 01-2.38-2.356z"/><path d="M10.824 11.404a6.5 6.5 0 109.192 9.193 6.5 6.5 0 00-9.192-9.193z"/><path d="M12.713 16.277l1.802 1.802 3.682-3.682"/></g></g><defs><clipPath id="clip0_3015_61761"><path fill="#fff" d="M0 0h36v36H0z"/></clipPath></defs></svg>