<svg width="36" height="36" fill="none" xmlns="http://www.w3.org/2000/svg"><mask id="a" style="mask-type:luminance" maskUnits="userSpaceOnUse" x="0" y="0" width="36" height="36"><path d="M35.25 35.25V.75H.75v34.5h34.5z" fill="#fff" stroke="#fff" stroke-width="1.5"/></mask><g mask="url(#a)" stroke="#F9B974" stroke-width="1.5" stroke-miterlimit="10" stroke-linecap="round" stroke-linejoin="round"><path d="M20.69 1.832h13.045c.863 0 1.562.7 1.562 1.561v22.539c0 .863-.7 1.562-1.562 1.562H2.265a1.561 1.561 0 01-1.562-1.562V3.393c0-.862.7-1.56 1.562-1.56h12.243"/><path d="M35.297 22.732v3.2c0 .863-.7 1.562-1.562 1.562H2.265a1.561 1.561 0 01-1.562-1.562v-3.2h34.594z"/><path d="M21.967 31.997l-.525-4.504h-6.883l-.524 4.504a2.446 2.446 0 01-2.433 2.169c-.042.001.042.002 0 .002H24.4c-.042 0 .041 0 0-.002a2.446 2.446 0 01-2.433-2.17zm-10.365 2.171h-1.006m14.808 0h-1.006m7.431-21.528a6.004 6.004 0 01-1.765 4.26 6.022 6.022 0 11-4.259-10.282 6.024 6.024 0 016.024 6.022zM8.766 18.63H5.29V7.336h3.475V18.63zm-4.696 0h12.722m-1.172 0h-3.475v-5.99h3.474v5.99z"/><path d="M31.828 12.64a6.004 6.004 0 01-1.765 4.26l-4.258-4.26V6.619a6.024 6.024 0 016.023 6.023z"/></g></svg>