<svg width="36" height="36" fill="none" xmlns="http://www.w3.org/2000/svg"><path d="M30.656 18.703a.703.703 0 100 1.407.703.703 0 000-1.407zm0 2.813a.703.703 0 100 1.406.703.703 0 000-1.406zm-2.812-2.813a.703.703 0 100 1.407.703.703 0 000-1.407zm0 2.813a.703.703 0 100 1.406.703.703 0 000-1.406zM8.156 28.758a.703.703 0 100 1.407.703.703 0 000-1.407z" fill="#F9B974"/><path d="M32.063 0H3.936a2.11 2.11 0 00-2.107 2.11v31.78c0 1.164.946 2.11 2.11 2.11h28.125a2.111 2.111 0 002.109-2.11V2.11c0-1.164-.946-2.11-2.11-2.11zm.703 33.89a.704.704 0 01-.703.704H3.936a.704.704 0 01-.703-.703V2.109c0-.387.316-.703.704-.703h28.125c.387 0 .703.316.703.703v31.782z" fill="#F9B974"/><path d="M25.031 2.813H5.344a.703.703 0 00-.703.703v18.703c0 .388.314.703.703.703H25.03a.703.703 0 00.703-.703V3.516a.703.703 0 00-.703-.704zm-.703 18.703H6.047v-2.813h18.281v2.813zM8.86 17.296v-3.023h1.407v3.024H8.859zm5.625 0v-3.023h1.407v3.024h-1.407zm5.625 0v-3.023h1.407v3.024H20.11zm4.22 0h-1.407V13.57a.703.703 0 00-.703-.703h-2.813a.703.703 0 00-.703.703v3.727h-1.406V13.57a.703.703 0 00-.703-.703H13.78a.703.703 0 00-.703.703v3.727h-1.406V13.57a.703.703 0 00-.703-.703H8.156a.703.703 0 00-.703.703v3.727H6.047V11.46h18.281v5.836zM8.86 10.055V7.03h1.407v3.024H8.859zm5.625 0V7.03h1.407v3.024h-1.407zm5.625 0V7.03h1.407v3.024H20.11zm4.22 0h-1.407V6.328a.703.703 0 00-.703-.703h-2.813a.703.703 0 00-.703.703v3.727h-1.406V6.328a.703.703 0 00-.703-.703H13.78a.703.703 0 00-.703.703v3.727h-1.406V6.328a.703.703 0 00-.703-.703H8.156a.703.703 0 00-.703.703v3.727H6.047V4.219h18.281v5.836zm.702 15.89H5.344a.703.703 0 00-.703.703v5.625c0 .389.314.704.703.704H25.03a.703.703 0 00.703-.704v-5.625a.703.703 0 00-.703-.703zm-.703 5.625H6.047v-4.218h18.281v4.218z" fill="#F9B974"/><path d="M22.219 28.758h-11.25a.703.703 0 100 1.406h11.25a.703.703 0 000-1.406zm8.437-12.867h-2.812a.703.703 0 000 1.406h2.812a.703.703 0 100-1.406zm0-10.266h-2.812a.703.703 0 00-.703.703v7.242c0 .389.314.703.703.703h2.812a.703.703 0 00.703-.703V6.328a.703.703 0 00-.703-.703zm-.703 7.242h-1.406V7.031h1.406v5.836z" fill="#F9B974"/></svg>