<svg width="36" height="36" fill="none" xmlns="http://www.w3.org/2000/svg"><path d="M33.964 12.911a.703.703 0 00-.703.703v16.177h-3.637a.704.704 0 00-.703.703v4.1H9.909V31.78h1.645a.703.703 0 00.698-.62l.183-1.554a.731.731 0 01.358-.55l.109-.064a.732.732 0 01.65-.044l1.488.61a.704.704 0 00.876-.3l2.348-4.076a.703.703 0 00-.192-.918l-1.31-.966a.758.758 0 01-.302-.611v-.056a.75.75 0 01.3-.608l1.312-.967a.703.703 0 00.192-.917l-2.348-4.076a.703.703 0 00-.877-.299l-1.52.625a.732.732 0 01-.65-.043l-.074-.043a.736.736 0 01-.359-.551l-.184-1.59a.703.703 0 00-.698-.621H6.857a.704.704 0 00-.699.622l-.18 1.559a.803.803 0 01-.406.606l-.006.004a.803.803 0 01-.704.045l-1.49-.613a.703.703 0 00-.877.3L.147 20.138a.704.704 0 00.192.917l1.311.967a.75.75 0 01.3.612v.052a.758.758 0 01-.3.61l-1.311.967a.703.703 0 00-.192.918l2.348 4.075a.703.703 0 00.876.3l1.487-.61a.73.73 0 01.648.043l.115.068a.73.73 0 01.355.548l.182 1.553a.703.703 0 00.699.62h1.646v3.518c0 .388.315.703.703.703h20.417c.384 0 .603-.321.834-.577.355-.392 4.06-4.483 4.11-4.569a.703.703 0 00.1-.36v-16.88a.703.703 0 00-.703-.703zM7.372 29.441a2.14 2.14 0 00-1.047-1.6 6.081 6.081 0 01-.094-.056 2.144 2.144 0 00-1.906-.139l-.918.377-1.728-3 .806-.593a2.168 2.168 0 00.872-1.744v-.045a2.158 2.158 0 00-.873-1.75l-.805-.594 1.727-2.998.92.378a2.217 2.217 0 001.956-.135l.012-.007.009-.005c.592-.35.993-.965 1.071-1.647l.109-.936h3.444l.112.966a2.144 2.144 0 001.052 1.607l.06.036a2.147 2.147 0 001.904.133l.95-.39 1.726 2.998-.805.593a2.16 2.16 0 00-.872 1.745v.05a2.168 2.168 0 00.872 1.745l.806.594-1.728 2.998-.918-.376a2.147 2.147 0 00-1.909.14c-.03.019-.061.037-.088.052a2.141 2.141 0 00-1.051 1.604l-.11.932H7.482l-.11-.932zm22.955 4.03v-2.274h2.054l-2.054 2.273z" fill="#F9B974"/><path d="M13.135 22.66a3.935 3.935 0 00-3.93-3.93 3.935 3.935 0 00-3.93 3.93 3.935 3.935 0 003.93 3.93 3.935 3.935 0 003.93-3.93zm-3.93 2.524a2.527 2.527 0 01-2.524-2.523 2.527 2.527 0 012.524-2.524 2.527 2.527 0 012.524 2.524 2.527 2.527 0 01-2.524 2.523zM33.965 0H9.204a.703.703 0 00-.702.703V6.92a.703.703 0 001.406 0V1.406H33.26v5.88a.703.703 0 001.406 0V.702A.703.703 0 0033.964 0zm-5.096 11.04h-7.996a.703.703 0 000 1.406h7.996a.703.703 0 000-1.407zm0 5.286h-7.996a.703.703 0 000 1.407h7.996a.703.703 0 100-1.407zm0 5.287h-7.996a.703.703 0 000 1.407h7.996a.703.703 0 000-1.407zm0 5.287h-7.996a.703.703 0 000 1.407h7.996a.703.703 0 100-1.407zM.703 14.577a.7.7 0 00.466-.177 12.095 12.095 0 018.025-3.04c2.178 0 4.255.563 6.096 1.642l-.811.12a.703.703 0 10.207 1.391l2.58-.383a.711.711 0 00.595-.773l-.285-2.58a.703.703 0 00-1.398.153l.114 1.034a13.37 13.37 0 00-7.098-2.01 13.502 13.502 0 00-8.957 3.393.703.703 0 00.466 1.23zm32.612-3.888a.71.71 0 00.672.435.71.71 0 00.643-.477.709.709 0 00-.229-.777.71.71 0 00-.808-.047.71.71 0 00-.278.866z" fill="#F9B974"/><path d="M28.87 5.752H14.56a.703.703 0 000 1.407h14.31a.703.703 0 000-1.407z" fill="#F9B974"/></svg>