<svg width="569" height="370" fill="none" xmlns="http://www.w3.org/2000/svg"><path d="M30.56 109.602l389.585-78.508 44.158 219.131-389.584 78.509L30.56 109.602z" fill="#FFF" fill-rule="evenodd"/><path d="M464.336 250.204s-.289-1.347-.832-3.916c-.525-2.587-1.322-6.414-2.352-11.426-2.043-10.044-5.056-24.812-8.925-43.785-7.684-37.927-18.789-92.654-32.426-159.939l.418.282c-104.01 20.996-240.541 48.55-389.541 78.633l-.035.001.369-.547c15.61 77.51 30.537 151.624 44.14 219.144l-.51-.334c114.075-22.913 211.44-42.458 280.29-56.28 34.461-6.893 61.771-12.364 80.494-16.104 9.361-1.869 16.566-3.292 21.453-4.266 2.426-.487 4.277-.839 5.535-1.092 1.275-.253 1.922-.371 1.922-.371l-1.832.406c-1.24.252-3.072.64-5.479 1.127-4.851.991-12.039 2.45-21.345 4.355-18.684 3.793-45.957 9.335-80.364 16.318-68.902 13.949-166.337 33.657-280.498 56.751l-.431.078-.078-.431a1554921.24 1554921.24 0 01-44.196-219.143l-.095-.467.466-.097.035-.001A4201593.95 4201593.95 0 00420.1 30.683l.359-.077.078.359c13.494 67.395 24.494 122.232 32.108 160.232 3.777 18.956 6.718 33.708 8.724 43.751.994 4.995 1.736 8.805 2.262 11.392.471 2.57.705 3.864.705 3.864z" fill="#030303" fill-rule="evenodd"/><path d="M281.241 143.014c5.872 26.085-2.708 43.938-22.626 48.443-19.924 4.478-35.443-7.98-41.244-33.997-5.836-25.926 2.876-43.445 22.714-47.932 19.838-4.487 35.359 7.607 41.156 33.486zm-94.143 48.175l-37.977 8.59-2.979-13.173 21.27-59.497 20.927-4.733 11.719 51.813 9.826-2.223 3.028 13.385-9.827 2.223 3.148 13.915-15.988 3.616-3.147-13.916zm148.604-33.61l-37.976 8.589-2.98-13.172 21.271-59.498 20.927-4.733 11.719 51.813 9.826-2.222 3.027 13.385-9.826 2.222 3.147 13.916-15.987 3.616-3.148-13.916zm-101.308-3.97c4.1 18.251 12.03 26.033 21.086 23.985 9.056-2.049 12.865-12.485 8.685-30.718-4.061-17.953-11.972-25.655-20.975-23.618-9.029 2.042-12.83 12.393-8.796 30.351zm-71.436 28.971l21.431-4.847-7.592-33.569-.611.138-13.372 37.64.144.638zm148.604-33.611l21.432-4.847-7.592-33.568-.611.138-13.373 37.64.144.637zm-105.923 103.88q.818-3.785-.148-8.441-.968-4.665-3.225-7.812-1.333-1.867-3.114-3.069-1.223-.825-2.657-1.337-3.525-1.269-8.273-.283-4.829 1.002-7.559 3.569-1.101 1.03-1.891 2.261-1.17 1.821-1.659 4.08-.808 3.783.151 8.407.967 4.655 3.218 7.825 1.357 1.899 3.17 3.123 1.209.817 2.621 1.332 3.528 1.279 8.316.285 4.748-.985 7.496-3.566 1.184-1.118 2.008-2.457 1.086-1.766 1.546-3.917zm155.633-33.371l4.374 7.37 5.712-1.185-17.253-27.832-6.132 1.273-4.751 32.395-15.527-12.935 8.711-16.931-5.834 1.211-8.662 16.963-3.018-14.539-5.372 1.115 6.224 29.992 5.373-1.115-3.156-15.206 15.04 12.739 11.932-2.476 1.039-8.494 11.3-2.345zm-146.274 38.637l36.831-7.644-6.225-29.993-5.414 1.124 5.276 25.419-10.336 2.145-5.275-25.419-5.414 1.124 5.275 25.419-10.295 2.137-5.275-25.419-5.373 1.115 6.225 29.992zm43.291-40.269l-4.871 1.011 6.225 29.992 6.337-1.315 9.984-26.822.175-.036q.063.511.277 2.007.222 1.483.519 3.325.297 1.842.61 3.35l3.139 15.124 4.87-1.011-6.224-29.992-6.296 1.307-9.986 26.607-.175.037q-.012-.522-.25-1.98-.241-1.469-.562-3.221-.32-1.752-.608-3.136l-3.164-15.247zm28.813-5.98l6.225 29.992 8.736-1.813q6.214-1.29 8.503-4.278.644-.843 1.037-1.79 1.008-2.426.362-5.538-.445-2.144-1.635-3.73-.233-.31-.494-.599-.054-.06-.109-.118-1.585-1.677-4.348-2.24-2.861-.593-7.178.302l-3.241.673-1.542-7.434 13.104-2.72-.943-4.542-18.477 3.835zm-100.493 44.783q-2.612-2.485-3.666-7.561-1.055-5.086.375-8.399.367-.85.929-1.542 1.636-2.017 4.918-2.698 3.371-.7 5.664.561.734.404 1.357 1.009 2.579 2.48 3.635 7.566 1.053 5.076-.344 8.393-.334.794-.845 1.451-1.614 2.075-4.994 2.777-3.301.685-5.6-.529-.771-.407-1.429-1.028zm167.277-50.184q.547.935.835 1.495l4.207 7.181-8.439 1.751 1.043-8.27q.016-.538.103-1.562.098-1.025.19-2.178.09-1.163.121-2.047.323.682.854 1.695.539 1 1.086 1.935zm-48.297 27.072q-1.425 1.43-4.747 2.119l-3.066.637-1.892-9.116 2.523-.523q3.568-.741 5.564-.193.585.161 1.044.495 1.108.805 1.484 2.617.393 1.893-.316 3.177-.236.428-.594.787z" fill="#5E60CE" fill-rule="evenodd"/><path d="M412.299 54.983c.248 4.484-3.192 8.32-7.694 8.567-4.482.247-8.318-3.192-8.566-7.694-.248-4.483 3.191-8.319 7.693-8.566 4.502-.248 8.321 3.21 8.567 7.693z" fill="#DADADA"/><path d="M412.297 54.983c-.09.002-.119-.719-.533-1.92a8.152 8.152 0 00-3.215-4.097c-1.82-1.234-4.713-1.822-7.399-.628-2.668 1.103-4.857 4.127-4.644 7.493.158 3.386 2.65 6.16 5.437 6.966 2.807.877 5.623-.012 7.278-1.424a8.131 8.131 0 002.746-4.42c.287-1.23.24-1.968.33-1.97.037 0 .057.18.098.522.041.341.031.864-.067 1.514-.18 1.282-.853 3.239-2.685 4.852-1.76 1.612-4.827 2.685-7.957 1.758-3.112-.836-5.952-3.93-6.118-7.73-.236-3.798 2.254-7.187 5.246-8.35 3.01-1.27 6.192-.542 8.106.871 1.984 1.412 2.859 3.273 3.185 4.53.172.646.233 1.15.219 1.492.006.36-.01.541-.027.541z" fill="#030303"/><path d="M407.674 49.411c.232-.057.584 3.02-1.024 6.323-1.572 3.321-4.179 4.982-4.291 4.768-.181-.214 1.989-2.084 3.438-5.17 1.504-3.086 1.588-5.934 1.877-5.92z" fill="#030303"/><path d="M409.387 58.018c-.233.148-1.346-1.998-3.815-3.205-2.451-1.243-4.824-.847-4.863-1.117-.02-.107.535-.386 1.523-.473.973-.087 2.381.073 3.76.755 1.381.682 2.352 1.731 2.85 2.553.535.82.652 1.431.545 1.487z" fill="#030303"/><path d="M28.617 191.4l20.254-16.648 7.53 9.159-20.255 16.648-7.529-9.159z" fill="#DADADA" fill-rule="evenodd"/><path d="M56.395 183.914c-.073.001-.844-.889-2.2-2.436-1.431-1.655-3.3-3.844-5.576-6.513l.469.047c-5.178 4.366-12.299 10.275-20.168 16.754-.063.596.078-.794.062-.65v.018l.02.018.035.036.057.071.127.142.24.303.494.605.973 1.193c.642.784 1.285 1.567 1.91 2.333 1.248 1.531 2.478 3.026 3.635 4.451l-.633-.063c5.84-4.755 10.916-8.813 14.568-11.697 1.744-1.377 3.188-2.498 4.31-3.38 1.034-.808 1.622-1.25 1.676-1.232.053-.001-.427.439-1.369 1.264-1.068.916-2.42 2.09-4.074 3.52a1411.377 1411.377 0 01-14.523 12.219l-.338.275-.293-.338c-1.176-1.424-2.404-2.901-3.672-4.432a170.716 170.716 0 00-1.926-2.332l-.972-1.193-.497-.605-.238-.303-.129-.142-.054-.072-.038-.035-.017-.018-.002-.018c-.016.144.127-1.245.063-.668 7.869-6.46 15.044-12.298 20.333-16.54l.268-.22.201.267c2.35 2.921 4.188 5.29 5.438 6.893 1.25 1.603 1.892 2.477 1.84 2.478z" fill="#030303"/><path d="M24.191 203.244c3.836 4.664 10.73 5.336 15.395 1.5L25.69 187.85c-4.664 3.836-5.335 10.73-1.5 15.394z" fill="#DADADA"/><path d="M24.191 203.244c-.035.019-.345-.283-.859-.942a10.436 10.436 0 01-1.545-3.239 10.976 10.976 0 01-.1-5.531c.473-2.097 1.72-4.315 3.731-6.021l.32-.275.276.339c2.164 2.598 4.513 5.447 6.972 8.42 2.442 2.991 4.774 5.857 6.92 8.474l.276.339-.338.275c-2.067 1.635-4.469 2.445-6.631 2.496-2.16.104-4.026-.481-5.404-1.163a10.366 10.366 0 01-2.881-2.138c-.532-.641-.772-.997-.737-1.034.108-.128 1.159 1.443 3.88 2.681 1.341.593 3.114 1.071 5.132.915 2.016-.102 4.22-.892 6.107-2.434l-.062.614c-2.166-2.617-4.514-5.447-6.973-8.42-2.441-2.991-4.773-5.858-6.921-8.475l.615.063c-1.87 1.542-3.084 3.578-3.576 5.532-.55 1.954-.413 3.79-.104 5.227.711 2.891 2.045 4.205 1.902 4.297z" fill="#030303"/><path d="M26.629 197.477c-1.701 1.954-2.125 4.933-1.027 7.278l1.027-7.278z" fill="#DADADA"/><path d="M25.602 204.773c-.196.165-1.338-1.53-.995-3.86.327-2.348 1.893-3.632 2.04-3.436.2.177-.842 1.544-1.1 3.566-.332 2.005.287 3.618.055 3.73zm13.908-6.317c-.233.148-1.834-2.135-4.053-4.715-2.219-2.598-4.213-4.514-4.035-4.733.16-.201 2.473 1.459 4.746 4.11 2.293 2.669 3.557 5.227 3.342 5.338zm2.387-1.946c-.233.148-1.834-2.135-4.053-4.715-2.219-2.598-4.213-4.514-4.035-4.733.16-.201 2.472 1.459 4.746 4.11 2.275 2.669 3.556 5.209 3.342 5.338zm2.367-1.963c-.233.148-1.834-2.135-4.053-4.715-2.219-2.598-4.213-4.515-4.035-4.733.16-.201 2.472 1.458 4.746 4.11 2.293 2.669 3.556 5.227 3.342 5.338zm2.386-1.946c-.232.148-1.834-2.135-4.052-4.715-2.22-2.598-4.213-4.515-4.035-4.734.16-.2 2.472 1.459 4.746 4.111 2.275 2.669 3.556 5.209 3.341 5.338zm2.387-1.964c-.232.148-1.834-2.135-4.053-4.715-2.218-2.598-4.212-4.515-4.035-4.733.16-.201 2.473 1.458 4.746 4.11 2.276 2.669 3.557 5.227 3.342 5.338zm2.367-1.945c-.232.147-1.834-2.135-4.052-4.715-2.22-2.598-4.213-4.515-4.036-4.734.16-.2 2.473 1.459 4.746 4.11 2.276 2.669 3.557 5.209 3.342 5.339zm2.383-1.964c-.232.147-1.834-2.135-4.053-4.715-2.218-2.598-4.212-4.515-4.035-4.734.16-.2 2.473 1.459 4.746 4.11 2.276 2.67 3.557 5.227 3.342 5.339zm13.281-59.467c-.09.001-.119-.737-.535-1.938a8.314 8.314 0 00-3.25-4.151c-1.84-1.252-4.767-1.839-7.488-.645-2.705 1.103-4.93 4.182-4.717 7.603.158 3.422 2.688 6.249 5.512 7.054 2.842.895 5.693-.013 7.385-1.444a8.218 8.218 0 002.78-4.474c.27-1.266.224-2.004.313-2.005.035-.001.057.179.098.521s.031.865-.068 1.533c-.178 1.3-.87 3.275-2.72 4.924-1.776 1.63-4.898 2.722-8.063 1.778-3.149-.854-6.026-3.983-6.192-7.837-.236-3.835 2.272-7.26 5.317-8.459 3.044-1.289 6.263-.544 8.212.887 2.004 1.43 2.897 3.309 3.223 4.601.172.646.234 1.168.238 1.51-.011.361-.01.541-.045.542z" fill="#030303"/></svg>