<svg width="64" height="64" fill="none" xmlns="http://www.w3.org/2000/svg"><path d="M14.93 13.493c-.848.618-1.35 1.467-1.042 1.854.31.424 1.236.231 2.085-.348.85-.618 1.351-1.467 1.043-1.853-.27-.463-1.197-.27-2.085.347zm32.276-1.969l-.309-.424-1.12.309.425.617 1.004-.502zm.695.425l.54-.81s-.81-1.197-.926-1.815c-.116-.618.347-1.467.386-1.467l-1.197-.888s-.54 1.428-.038 2.857c.502 1.428 1.235 2.123 1.235 2.123zm-1.506-5.173L44.04 5l-.116.734 2.24 1.93.231-.888zm-28.53.038c-1.081-1.505-4.517-.926-7.721 1.352-3.166 2.239-4.903 5.327-3.822 6.833 1.08 1.506 4.516.927 7.721-1.351 3.204-2.278 4.903-5.328 3.822-6.834zm-9.497 7.143c-.54-.772-.116-2.046.965-3.282.502-.579 1.776-.695 2.394-.463-.078-.734.849-2.046 1.505-2.316 1.583-.618 2.973-.618 3.513.154.773 1.08-.463 3.32-2.78 4.942-2.316 1.621-4.825 2.084-5.597.965zm38.413-3.05l-.232-.386-1.39-.039.387.734 1.235-.31zm.927 1.235l-.31-.309-.964.425.85.695.424-.81zm1.621 2.394c.077-.077.656-.85 1.66-1.776 1.004-.927 2.432-1.853 2.432-1.853s-.888-.888-1.737-1.622a8.189 8.189 0 00-1.814-1.158s-.425 1.313-.85 2.123c-.386.811-1.621 2.896-1.621 2.896.425.193 1.274.347 1.93 1.39zm-2.857-4.208l-.077-.386-1.622-.54.31.81 1.39.116zm3.205-2.587s.926.155 2.239 1.313c1.313 1.158 1.776 1.853 1.776 1.853s.347.077.656-.155c.309-.231.193-.695.193-.695s-.58-.81-1.969-2.007c-.85-.54-1.621-1.004-2.432-1.236-.155.078-.231-.038-.425.387-.193.424-.038.54-.038.54zm3.281 5.868c-.656.039-2.007-.502-2.007-.502l-.695.695s.85.58 2.355.734c1.505.154 2.78-.695 2.78-.695l-1.16-.965c.078.038-.617.695-1.273.733zM44.04 6.274l.077 1.004 2.047 1.428-.078-.733-2.046-1.699zm2.278 3.32l-.116-.618-1.969-1.12.425 1.314 1.66.424zm1.892 4.324c-.927-.618-1.892-.733-2.162-.309-.27.425.231 1.274 1.12 1.892.926.618 1.891.734 2.161.309.31-.463-.193-1.313-1.12-1.892zm1.235.734l.927.656.154-1.004-.386-.232-.695.58zm2.78.193l.424 1.35.85.117-.888-1.467h-.386zm-6.486 4.285a191 191 0 012.046-2.895c-.772-.27-1.236-.618-1.776-1.197-.386.502-2.085 2.702-2.432 3.165-4.015-1.853-7.953-4.71-11.196-9.11-3.706 4.362-7.297 7.798-12.2 9.65l-3.165-4.168c-.502.656-.966.887-1.468 1.08l2.78 3.707c-.733.231-1.312.347-2.123.502-.502 6.987 1.351 11.581 3.204 15.52-1.042 1.814-1.737 3.628-1.776 5.25-.038 1.197.348 2.123.927 2.818-1.158.155-2.278.502-3.166 1.274a2.551 2.551 0 00-.81 1.197 4.44 4.44 0 00-1.583.309c-1.815.695-2.742 2.51-2.433 4.4.309 2.085 2.046 3.591 3.822 4.595 4.479 2.51 9.883 3.282 14.941 3.36 5.405.076 11.273-.426 15.983-3.398.309-.194.038-.696-.27-.502-3.475 2.2-7.605 3.01-11.66 3.243-4.246.27-8.609.038-12.74-.966-2.045-.501-4.092-1.197-5.906-2.239-1.583-.888-3.205-2.2-3.513-4.092-.348-1.814.656-3.552 2.509-4.015.27-.077.579-.116.85-.116 0 .193 0 .347.038.54.232 1.004 1.043 2.047 1.93 2.51.734.386 1.699.386 2.355-.155.657-.54.618-1.39.077-2.007-.694-.772-1.891-1.197-2.895-1.351l-.81-.116c.076-.193.192-.348.347-.54.888-.966 2.162-1.313 3.513-1.429 1.274 1.235 3.05 1.66 3.63 1.621l-2.665 3.746 1.429 1.235 4.902-6.37c1.892 1.737 3.939 3.127 6.14 4.517 2.006-1.313 4.014-2.626 5.829-4.324l5.25 6.1c.695-.31 1.004-.695 1.351-1.197l-5.289-6.254c.232-.27.502-.541.734-.85-.116-3.011.965-6.602 4.902-6.524 1.931-4.71 3.977-9.498 3.244-15.752a12.366 12.366 0 01-2.857-.772zM16.514 46.734c.695.193 2.355.772 2.2 1.776-.077.54-.733.772-1.196.772-.618 0-1.12-.348-1.545-.772-.54-.58-.965-1.274-.926-2.008.501 0 1.003.116 1.467.232zm9.767-9.536h-.463c-.386 0-.695-.502-.695-.888 0-.502.347-.888.81-.888.657 0 1.005.347 1.005 1.004.038.27-.348.772-.657.772zm18.338-2.432c-2.084.154-3.629 1.814-4.478 3.629l.039-6.872h-5.83v3.86h2.74v3.089h2.973c-.54 1.235-.772 2.548-.733 3.667-2.393 2.587-4.44 3.861-7.026 5.598-2.046-1.35-3.706-2.509-5.405-4.053l.116-.116 5.636-8.146h.81v-1.39c.078-.154.194-.309.27-.463a6.884 6.884 0 00-.27-.502v-1.544h-.694c-.077-.27-.154-.54-.154-.811v-.888c0-1.313.463-2.51.695-3.706.077-.348.347-1.236.502-1.66.038-.155.385-.888.54-1.274v3.01h3.86v-3.86h-3.127c0-.193-.193-.347-.386-.347s-.347.154-.386.347v.502l-.038-.038-7.297 11.736-.193-.116 7.374-11.775-.039-.116-.695.695-3.165 2.934c-.695.464-1.12.811-1.545 1.043v-.31h-3.86v.966h-.116c-1.313 1.815-3.243 4.17-4.787 6.602-1.738-3.745-3.166-7.258-2.896-13.86 6.37-1.506 11.08-4.865 15.288-10.154 4.208 5.792 10.038 8.726 15.25 10.27.309 5.945-1.158 9.806-2.973 14.053zm8.378-19.921l.772 1.505 1.351.116-1.506-1.66-.617.039zm-2.394.695l.656.27.04-1.197-.465-.193-.23 1.12zm.965-.888v1.274l.772.193-.347-1.351-.425-.116zm2.317.077l1.853 1.66.965-.154-2.123-1.622-.695.116zM24.814 26.195h3.86v-3.86h-3.86v3.86zm19.844 18.608l-.85-1.08.695-.657-1.235-1.544-.772.733.579.811-.888.695-.656-.695-.734.618 3.397 4.015.696-.58-.618-.733.888-.772.733.733.695-.617-1.197-1.39-.733.463zM34.35 21.601h3.86v-3.86h-3.86v3.86zm21.272-7.567l-.811.463 2.471 1.738.657-.27-2.317-1.931zM34.35 30.789h3.86v-3.86h-3.86v3.86zm-9.536-9.188h3.86v-3.86h-3.86v3.86z" fill="#FBFBFB" fill-rule="evenodd"/></svg>