<svg width="764" height="372" fill="none" xmlns="http://www.w3.org/2000/svg"><g clip-path="url(#clip0_3433_45549)"><path d="M491.659 11.662H326.152c-8.254 0-14.946 6.685-14.946 14.931v318.542c0 8.246 6.692 14.932 14.946 14.932h165.507c8.255 0 14.946-6.686 14.946-14.932V26.593c0-8.246-6.691-14.931-14.946-14.931z" fill="#F9B974" stroke="#030303" stroke-width=".898" stroke-miterlimit="10"/><path d="M447.327 37.075H341.038c-5.503 0-9.964 4.457-9.964 9.955v230.275c0 5.498 4.461 9.955 9.964 9.955h106.289c5.504 0 9.965-4.457 9.965-9.955V47.03c0-5.498-4.461-9.955-9.965-9.955zm44.531 51.933h-20.586c-1.1 0-1.993.89-1.993 1.99v36.205c0 1.099.893 1.991 1.993 1.991h20.586a1.992 1.992 0 001.993-1.991V90.999c0-1.1-.892-1.991-1.993-1.991zm0 48.02h-20.586c-1.1 0-1.993.891-1.993 1.991v33.725c0 1.1.893 1.991 1.993 1.991h20.586a1.992 1.992 0 001.993-1.991v-33.725c0-1.1-.892-1.991-1.993-1.991z" fill="#FBFBFB" stroke="#030303" stroke-width=".898" stroke-miterlimit="10"/><path d="M483.449 192.364a1.993 1.993 0 00-3.986 0v13.349a1.992 1.992 0 003.986 0v-13.349zm-5.621-51.096h-4.523v4.52h4.523v-4.52zm5.88 0h-4.523v4.52h4.523v-4.52zm6.008 0h-4.524v4.52h4.524v-4.52zm-11.888 5.883h-4.523v4.52h4.523v-4.52zm5.88 0h-4.523v4.52h4.523v-4.52zm6.008 0h-4.524v4.52h4.524v-4.52zm-11.888 5.883h-4.523v4.52h4.523v-4.52zm5.88 0h-4.523v4.52h4.523v-4.52zm6.008 0h-4.524v4.52h4.524v-4.52zm-11.888 5.893h-4.523v4.52h4.523v-4.52zm5.88 0h-4.523v4.52h4.523v-4.52zm6.008 0h-4.524v4.52h4.524v-4.52zm-8.948 6.789h-7.463v4.52h7.463v-4.52zm8.949 0h-7.164v4.52h7.164v-4.52z" fill="#030303"/><path d="M455.299 301.525H333.067a1.991 1.991 0 00-1.993 1.99v20.566c0 1.1.892 1.991 1.993 1.991h122.232c1.1 0 1.993-.891 1.993-1.991v-20.566c0-1.099-.893-1.99-1.993-1.99z" fill="#5E60CE" stroke="#030303" stroke-width=".898" stroke-miterlimit="10"/><path d="M365.76 58.09h-15.594a3.983 3.983 0 00-3.985 3.98v18.118a3.984 3.984 0 003.985 3.982h15.594a3.984 3.984 0 003.986-3.982V62.07c0-2.2-1.784-3.982-3.986-3.982z" fill="#F9B974" stroke="#030303" stroke-width=".898" stroke-miterlimit="10"/><path d="M365.282 61.105h-14.628a2.111 2.111 0 00-2.112 2.11v1.942c0 1.165.946 2.11 2.112 2.11h14.628a2.11 2.11 0 002.112-2.11v-1.941a2.11 2.11 0 00-2.112-2.11z" fill="#5E60CE" stroke="#030303" stroke-width=".898" stroke-miterlimit="10"/><path d="M367.634 90.69h-19.341a2.11 2.11 0 00-2.112 2.11v1.941a2.11 2.11 0 002.112 2.11h19.341a2.111 2.111 0 002.112-2.11v-1.94a2.112 2.112 0 00-2.112-2.111z" fill="#DADADA"/><path d="M401.414 58.09H385.82a3.984 3.984 0 00-3.986 3.98v18.118a3.984 3.984 0 003.986 3.982h15.594a3.983 3.983 0 003.985-3.982V62.07c0-2.2-1.784-3.982-3.985-3.982z" fill="#F9B974" stroke="#030303" stroke-width=".898" stroke-miterlimit="10"/><path d="M400.934 61.105h-14.627a2.112 2.112 0 00-2.113 2.11v1.942c0 1.165.946 2.11 2.113 2.11h14.627a2.112 2.112 0 002.113-2.11v-1.941c0-1.166-.946-2.11-2.113-2.11z" fill="#5E60CE" stroke="#030303" stroke-width=".898" stroke-miterlimit="10"/><path d="M403.287 90.69h-19.341a2.111 2.111 0 00-2.112 2.11v1.941a2.11 2.11 0 002.112 2.11h19.341a2.11 2.11 0 002.112-2.11v-1.94a2.11 2.11 0 00-2.112-2.111z" fill="#DADADA"/><path d="M437.315 58.09h-15.594a3.984 3.984 0 00-3.986 3.98v18.118a3.984 3.984 0 003.986 3.982h15.594a3.984 3.984 0 003.986-3.982V62.07c0-2.2-1.785-3.982-3.986-3.982z" fill="#F9B974" stroke="#030303" stroke-width=".898" stroke-miterlimit="10"/><path d="M436.825 61.105h-14.628a2.111 2.111 0 00-2.112 2.11v1.942c0 1.165.946 2.11 2.112 2.11h14.628a2.11 2.11 0 002.112-2.11v-1.941a2.11 2.11 0 00-2.112-2.11z" fill="#5E60CE" stroke="#030303" stroke-width=".898" stroke-miterlimit="10"/><path d="M439.188 90.69h-19.34a2.112 2.112 0 00-2.113 2.11v1.941c0 1.166.946 2.11 2.113 2.11h19.34a2.112 2.112 0 002.113-2.11v-1.94a2.112 2.112 0 00-2.113-2.111z" fill="#DADADA"/><path d="M365.76 114.59h-15.594a3.984 3.984 0 00-3.985 3.982v18.117a3.984 3.984 0 003.985 3.982h15.594a3.984 3.984 0 003.986-3.982v-18.117a3.984 3.984 0 00-3.986-3.982z" fill="#F9B974" stroke="#030303" stroke-width=".898" stroke-miterlimit="10"/><path d="M365.282 117.606h-14.628a2.112 2.112 0 00-2.112 2.111v1.941c0 1.165.946 2.11 2.112 2.11h14.628a2.11 2.11 0 002.112-2.11v-1.941a2.111 2.111 0 00-2.112-2.111z" fill="#5E60CE" stroke="#030303" stroke-width=".898" stroke-miterlimit="10"/><path d="M367.634 147.191h-19.341a2.111 2.111 0 00-2.112 2.111v1.941a2.11 2.11 0 002.112 2.11h19.341a2.111 2.111 0 002.112-2.11v-1.941a2.112 2.112 0 00-2.112-2.111z" fill="#DADADA"/><path d="M401.414 114.59H385.82a3.984 3.984 0 00-3.986 3.982v18.117a3.984 3.984 0 003.986 3.982h15.594a3.984 3.984 0 003.985-3.982v-18.117a3.984 3.984 0 00-3.985-3.982z" fill="#F9B974" stroke="#030303" stroke-width=".898" stroke-miterlimit="10"/><path d="M400.934 117.606h-14.627a2.112 2.112 0 00-2.113 2.111v1.941c0 1.165.946 2.11 2.113 2.11h14.627a2.112 2.112 0 002.113-2.11v-1.941a2.112 2.112 0 00-2.113-2.111z" fill="#5E60CE" stroke="#030303" stroke-width=".898" stroke-miterlimit="10"/><path d="M403.287 147.191h-19.341a2.112 2.112 0 00-2.112 2.111v1.941c0 1.165.946 2.11 2.112 2.11h19.341a2.11 2.11 0 002.112-2.11v-1.941a2.111 2.111 0 00-2.112-2.111z" fill="#DADADA"/><path d="M437.315 114.59h-15.594a3.984 3.984 0 00-3.986 3.982v18.117a3.984 3.984 0 003.986 3.982h15.594a3.984 3.984 0 003.986-3.982v-18.117a3.984 3.984 0 00-3.986-3.982z" fill="#F9B974" stroke="#030303" stroke-width=".898" stroke-miterlimit="10"/><path d="M436.825 117.606h-14.628a2.112 2.112 0 00-2.112 2.111v1.941c0 1.165.946 2.11 2.112 2.11h14.628a2.11 2.11 0 002.112-2.11v-1.941a2.111 2.111 0 00-2.112-2.111z" fill="#5E60CE" stroke="#030303" stroke-width=".898" stroke-miterlimit="10"/><path d="M439.188 147.191h-19.34a2.112 2.112 0 00-2.113 2.111v1.941c0 1.165.946 2.11 2.113 2.11h19.34a2.112 2.112 0 002.113-2.11v-1.941a2.112 2.112 0 00-2.113-2.111z" fill="#DADADA"/><path d="M365.76 171.102h-15.594a3.983 3.983 0 00-3.985 3.981V193.2a3.984 3.984 0 003.985 3.982h15.594a3.984 3.984 0 003.986-3.982v-18.117a3.983 3.983 0 00-3.986-3.981z" fill="#F9B974" stroke="#030303" stroke-width=".898" stroke-miterlimit="10"/><path d="M365.282 174.118h-14.628a2.112 2.112 0 00-2.112 2.111v1.941c0 1.165.946 2.11 2.112 2.11h14.628a2.11 2.11 0 002.112-2.11v-1.941a2.111 2.111 0 00-2.112-2.111z" fill="#5E60CE" stroke="#030303" stroke-width=".898" stroke-miterlimit="10"/><path d="M367.634 203.692h-19.341a2.111 2.111 0 00-2.112 2.111v1.941a2.11 2.11 0 002.112 2.11h19.341a2.111 2.111 0 002.112-2.11v-1.941a2.112 2.112 0 00-2.112-2.111z" fill="#DADADA"/><path d="M401.414 171.102H385.82a3.983 3.983 0 00-3.986 3.981V193.2a3.984 3.984 0 003.986 3.982h15.594a3.984 3.984 0 003.985-3.982v-18.117a3.983 3.983 0 00-3.985-3.981z" fill="#F9B974" stroke="#030303" stroke-width=".898" stroke-miterlimit="10"/><path d="M400.934 174.118h-14.627a2.112 2.112 0 00-2.113 2.111v1.941c0 1.165.946 2.11 2.113 2.11h14.627a2.112 2.112 0 002.113-2.11v-1.941a2.112 2.112 0 00-2.113-2.111z" fill="#5E60CE" stroke="#030303" stroke-width=".898" stroke-miterlimit="10"/><path d="M403.287 203.692h-19.341a2.112 2.112 0 00-2.112 2.111v1.941c0 1.165.946 2.11 2.112 2.11h19.341a2.11 2.11 0 002.112-2.11v-1.941a2.111 2.111 0 00-2.112-2.111z" fill="#DADADA"/><path d="M437.315 171.102h-15.594a3.984 3.984 0 00-3.986 3.981V193.2a3.984 3.984 0 003.986 3.982h15.594a3.984 3.984 0 003.986-3.982v-18.117a3.984 3.984 0 00-3.986-3.981z" fill="#F9B974" stroke="#030303" stroke-width=".898" stroke-miterlimit="10"/><path d="M436.825 174.118h-14.628a2.112 2.112 0 00-2.112 2.111v1.941c0 1.165.946 2.11 2.112 2.11h14.628a2.11 2.11 0 002.112-2.11v-1.941a2.111 2.111 0 00-2.112-2.111z" fill="#5E60CE" stroke="#030303" stroke-width=".898" stroke-miterlimit="10"/><path d="M439.188 203.692h-19.34a2.112 2.112 0 00-2.113 2.111v1.941c0 1.165.946 2.11 2.113 2.11h19.34a2.112 2.112 0 002.113-2.11v-1.941a2.112 2.112 0 00-2.113-2.111z" fill="#DADADA"/><path d="M365.76 227.603h-15.594a3.984 3.984 0 00-3.985 3.982v18.117a3.984 3.984 0 003.985 3.982h15.594a3.984 3.984 0 003.986-3.982v-18.117a3.984 3.984 0 00-3.986-3.982z" fill="#F9B974" stroke="#030303" stroke-width=".898" stroke-miterlimit="10"/><path d="M365.282 230.619h-14.628a2.112 2.112 0 00-2.112 2.111v1.941c0 1.165.946 2.11 2.112 2.11h14.628a2.11 2.11 0 002.112-2.11v-1.941a2.111 2.111 0 00-2.112-2.111z" fill="#5E60CE" stroke="#030303" stroke-width=".898" stroke-miterlimit="10"/><path d="M367.634 260.204h-19.341a2.11 2.11 0 00-2.112 2.11v1.941a2.11 2.11 0 002.112 2.11h19.341a2.11 2.11 0 002.112-2.11v-1.941c0-1.165-.946-2.11-2.112-2.11z" fill="#DADADA"/><path d="M401.414 227.603H385.82a3.984 3.984 0 00-3.986 3.982v18.117a3.984 3.984 0 003.986 3.982h15.594a3.984 3.984 0 003.985-3.982v-18.117a3.984 3.984 0 00-3.985-3.982z" fill="#F9B974" stroke="#030303" stroke-width=".898" stroke-miterlimit="10"/><path d="M400.934 230.619h-14.627a2.112 2.112 0 00-2.113 2.111v1.941c0 1.165.946 2.11 2.113 2.11h14.627a2.112 2.112 0 002.113-2.11v-1.941a2.112 2.112 0 00-2.113-2.111z" fill="#5E60CE" stroke="#030303" stroke-width=".898" stroke-miterlimit="10"/><path d="M403.287 260.204h-19.341a2.111 2.111 0 00-2.112 2.11v1.941a2.11 2.11 0 002.112 2.11h19.341a2.11 2.11 0 002.112-2.11v-1.941a2.11 2.11 0 00-2.112-2.11z" fill="#DADADA"/><path d="M437.315 227.603h-15.594a3.984 3.984 0 00-3.986 3.982v18.117a3.984 3.984 0 003.986 3.982h15.594a3.984 3.984 0 003.986-3.982v-18.117a3.984 3.984 0 00-3.986-3.982z" fill="#F9B974" stroke="#030303" stroke-width=".898" stroke-miterlimit="10"/><path d="M436.825 230.619h-14.628a2.112 2.112 0 00-2.112 2.111v1.941c0 1.165.946 2.11 2.112 2.11h14.628a2.11 2.11 0 002.112-2.11v-1.941a2.111 2.111 0 00-2.112-2.111z" fill="#5E60CE" stroke="#030303" stroke-width=".898" stroke-miterlimit="10"/><path d="M439.188 260.204h-19.34a2.112 2.112 0 00-2.113 2.11v1.941c0 1.166.946 2.11 2.113 2.11h19.34a2.111 2.111 0 002.113-2.11v-1.941c0-1.165-.946-2.11-2.113-2.11z" fill="#DADADA"/><path d="M331.074 319.184h126.238v4.887a1.989 1.989 0 01-1.993 1.991H333.067a1.992 1.992 0 01-1.993-1.991v-4.887z" fill="#030303"/><path d="M490.463 92.153h-17.527a.618.618 0 00-.618.617v.01c0 .341.277.617.618.617h17.527a.618.618 0 00.618-.617v-.01a.618.618 0 00-.618-.617zm0 2.658h-17.527a.618.618 0 00-.618.617v.01c0 .341.277.617.618.617h17.527a.618.618 0 00.618-.617v-.01a.618.618 0 00-.618-.617zm0 2.658h-17.527a.618.618 0 00-.618.617v.01c0 .34.277.617.618.617h17.527a.618.618 0 00.618-.617v-.01a.618.618 0 00-.618-.617zm0 2.648h-17.527a.618.618 0 00-.618.617v.01c0 .341.277.617.618.617h17.527a.618.618 0 00.618-.617v-.01a.618.618 0 00-.618-.617zm0 2.658h-17.527a.618.618 0 00-.618.617v.01c0 .341.277.617.618.617h17.527a.618.618 0 00.618-.617v-.01a.618.618 0 00-.618-.617zm0 2.657h-17.527a.618.618 0 00-.618.618v.01c0 .34.277.617.618.617h17.527a.618.618 0 00.618-.617v-.01a.618.618 0 00-.618-.618zm0 2.648h-17.527a.618.618 0 00-.618.617v.01c0 .341.277.618.618.618h17.527a.618.618 0 00.618-.618v-.01a.618.618 0 00-.618-.617zm0 2.658h-17.527a.618.618 0 00-.618.617v.01c0 .341.277.617.618.617h17.527a.618.618 0 00.618-.617v-.01a.618.618 0 00-.618-.617z" fill="#D6D6FF"/></g><path fill-rule="evenodd" clip-rule="evenodd" d="M17.623 76C7.89 76 0 83.89 0 93.623v32.896c0 9.733 7.89 17.623 17.623 17.623h251.536c.193 0 .383.047.553.138a48.522 48.522 0 013.85 2.291c6.485 4.321 16.56 8.043 22.392 9.996 1.168.391 2.19-1.212 1.441-2.19-2.571-3.355-6.125-8.924-8.331-16.289a1.15 1.15 0 01-.049-.334V93.623c0-9.733-7.89-17.623-17.623-17.623H17.622z" fill="#D6D6FF"/><path d="M19.04 94.455c.76 0 1.405.09 1.935.27.54.18.97.475 1.29.885.32.41.55.96.69 1.65.15.69.225 1.545.225 2.565 0 1.01-.075 1.865-.225 2.565-.14.69-.37 1.24-.69 1.65-.32.41-.75.705-1.29.885-.53.18-1.175.27-1.935.27s-1.41-.09-1.95-.27a2.75 2.75 0 01-1.29-.885c-.32-.41-.555-.96-.705-1.65-.15-.7-.225-1.555-.225-2.565 0-1.02.075-1.875.225-2.565.15-.69.385-1.24.705-1.65.33-.41.76-.705 1.29-.885.54-.18 1.19-.27 1.95-.27zm0 1.305c-.65 0-1.165.125-1.545.375-.38.25-.65.67-.81 1.26-.15.58-.225 1.39-.225 2.43 0 1.03.075 1.84.225 2.43.16.59.43 1.01.81 1.26.38.25.895.375 1.545.375.65 0 1.16-.125 1.53-.375.38-.25.65-.67.81-1.26.16-.59.24-1.4.24-2.43 0-1.04-.08-1.85-.24-2.43-.16-.59-.43-1.01-.81-1.26-.37-.25-.88-.375-1.53-.375zm7.603 1.92V105h-1.41v-7.32h1.41zm5.895 6.21V105h-6l-.015-1.11h6.015zm-1.005-6.21l-.015 7.32h-1.425v-7.32h1.44zm1.005 7.245v2.22h-.945l-.15-2.22h1.095zm4.706-7.425c1.13 0 1.945.205 2.445.615.51.4.77.995.78 1.785 0 .66-.145 1.17-.435 1.53-.29.36-.765.54-1.425.54h-4.245v-1.035h3.87c.32 0 .53-.105.63-.315.11-.21.16-.45.15-.72 0-.45-.13-.77-.39-.96-.25-.19-.69-.285-1.32-.285-.51 0-.91.075-1.2.225-.29.15-.495.41-.615.78-.12.37-.18.89-.18 1.56 0 .75.075 1.325.225 1.725.15.39.385.66.705.81.33.15.765.225 1.305.225.39 0 .82-.015 1.29-.045.48-.04.915-.085 1.305-.135l.135.945c-.23.1-.52.185-.87.255-.34.06-.69.105-1.05.135-.36.03-.69.045-.99.045-.85 0-1.54-.13-2.07-.39-.52-.26-.9-.67-1.14-1.23-.23-.57-.345-1.315-.345-2.235 0-.96.12-1.72.36-2.28.24-.56.61-.955 1.11-1.185.5-.24 1.155-.36 1.965-.36zm6.508.18V105h-1.425v-7.32h1.425zm3.795 2.895v1.08h-3.884v-1.08h3.885zm1.29-2.895V105h-1.425v-7.32h1.425zm8.85 0V105h-1.305v-4.665c0-.17.005-.335.015-.495.01-.16.025-.335.045-.525h-.045c-.06.15-.14.31-.24.48-.09.16-.18.3-.27.42L52.332 105h-1.215v-7.32h1.305v4.68c0 .16-.005.32-.015.48 0 .16-.01.335-.03.525h.03c.08-.16.165-.315.255-.465.09-.16.18-.295.27-.405l3.555-4.815h1.2zm5.592 0V105h-1.455v-7.32h1.455zm2.61 0v1.17h-6.675v-1.17h6.675zm4.49-.18c1.13 0 1.944.205 2.444.615.51.4.77.995.78 1.785 0 .66-.145 1.17-.435 1.53-.29.36-.765.54-1.425.54h-4.245v-1.035h3.87c.32 0 .53-.105.63-.315.11-.21.16-.45.15-.72 0-.45-.13-.77-.39-.96-.25-.19-.69-.285-1.32-.285-.51 0-.91.075-1.2.225-.29.15-.495.41-.615.78-.12.37-.18.89-.18 1.56 0 .75.075 1.325.225 1.725.15.39.385.66.705.81.33.15.765.225 1.305.225.39 0 .82-.015 1.29-.045.48-.04.915-.085 1.305-.135l.135.945c-.23.1-.52.185-.87.255-.34.06-.69.105-1.05.135-.36.03-.69.045-.99.045-.85 0-1.54-.13-2.07-.39-.52-.26-.9-.67-1.14-1.23-.23-.57-.345-1.315-.345-2.235 0-.96.12-1.72.36-2.28.24-.56.61-.955 1.11-1.185.5-.24 1.155-.36 1.965-.36zm14.709.18c-.17.45-.325.855-.465 1.215-.14.36-.28.675-.42.945-.14.27-.3.495-.48.675-.17.18-.37.325-.6.435-.22.11-.49.18-.81.21v.06c.34.03.624.095.855.195.24.1.45.245.63.435.19.19.36.43.51.72.15.28.304.625.464 1.035.16.4.335.865.525 1.395h-1.514c-.18-.49-.346-.915-.496-1.275-.14-.37-.28-.68-.42-.93-.14-.26-.29-.465-.45-.615-.16-.16-.35-.27-.57-.33-.21-.07-.46-.105-.75-.105v-1.095c.35 0 .646-.06.886-.18.24-.13.444-.32.614-.57.18-.25.346-.555.496-.915.15-.37.314-.805.495-1.305h1.5zm-4.845 0v2.115c0 .23-.02.465-.06.705-.03.23-.08.45-.15.66.06.22.11.44.15.66.04.22.06.425.06.615V105h-1.456v-7.32h1.456zm1.35 2.97v1.095h-1.77v-1.095h1.77zm8.85-3.15c.56 0 1.03.075 1.41.225.38.14.665.385.855.735.2.35.3.83.3 1.44v5.1h-1.14l-.225-1.59-.075-.18V99.9c-.01-.43-.115-.74-.315-.93-.19-.19-.565-.285-1.125-.285-.39 0-.875.02-1.455.06l-1.695.12-.135-1.035c.34-.06.72-.115 1.14-.165.42-.05.845-.09 1.275-.12.43-.03.825-.045 1.185-.045zm1.905 2.985l-.015 1.02-3.435.015c-.34.01-.58.1-.72.27-.14.16-.21.385-.21.675v.45c0 .36.09.625.27.795.18.16.455.24.825.24.28 0 .59-.05.93-.15.35-.11.7-.27 1.05-.48.35-.22.665-.495.945-.825v.945c-.09.14-.235.31-.435.51-.2.19-.445.375-.735.555-.28.18-.595.33-.945.45s-.73.18-1.14.18c-.44 0-.83-.075-1.17-.225-.33-.16-.59-.39-.78-.69-.18-.31-.27-.685-.27-1.125v-.795c0-.57.18-1.015.54-1.335.37-.32.88-.48 1.53-.48h3.765zm3.97-2.805v2.73c0 .34.075.58.225.72.15.14.395.21.735.21.4 0 .79-.035 1.17-.105.38-.08.81-.225 1.29-.435l.135 1.065c-.52.22-1.06.385-1.62.495-.56.1-1.05.15-1.47.15-.63 0-1.105-.135-1.425-.405-.31-.27-.465-.68-.465-1.23V97.68h1.425zm4.71 0V105h-1.455v-7.32h1.455zm5.386-.18c1.13 0 1.945.205 2.445.615.51.4.77.995.78 1.785 0 .66-.145 1.17-.435 1.53-.29.36-.765.54-1.425.54h-4.245v-1.035h3.87c.32 0 .53-.105.63-.315.11-.21.16-.45.15-.72 0-.45-.13-.77-.39-.96-.25-.19-.69-.285-1.32-.285-.51 0-.91.075-1.2.225-.29.15-.495.41-.615.78-.12.37-.18.89-.18 1.56 0 .75.075 1.325.225 1.725.15.39.385.66.705.81.33.15.765.225 1.305.225.39 0 .82-.015 1.29-.045.48-.04.915-.085 1.305-.135l.135.945c-.23.1-.52.185-.87.255-.34.06-.69.105-1.05.135-.36.03-.69.045-.99.045-.85 0-1.54-.13-2.07-.39-.52-.26-.9-.67-1.14-1.23-.23-.57-.345-1.315-.345-2.235 0-.96.12-1.72.36-2.28.24-.56.61-.955 1.11-1.185.5-.24 1.155-.36 1.965-.36zm8.263 0c.23 0 .485.01.765.03.28.02.565.055.855.105.29.05.56.125.81.225l-.18.93c-.35-.03-.71-.05-1.08-.06-.36-.02-.67-.03-.93-.03-.55 0-.99.08-1.32.24-.33.15-.57.415-.72.795-.14.38-.21.91-.21 1.59s.07 1.215.21 1.605c.15.39.39.66.72.81.33.15.77.225 1.32.225a25.48 25.48 0 001.38-.06c.28-.02.545-.05.795-.09l.135.96c-.36.14-.765.24-1.215.3-.45.07-.9.105-1.35.105-.85 0-1.535-.125-2.055-.375-.51-.25-.88-.655-1.11-1.215-.23-.56-.345-1.315-.345-2.265 0-.94.115-1.69.345-2.25.23-.56.6-.96 1.11-1.2.52-.25 1.21-.375 2.07-.375zm7.547.18V105h-1.455v-7.32h1.455zm2.61 0v1.17h-6.675v-1.17h6.675zm4.577-.075c.77 0 1.38.055 1.83.165.45.11.775.305.975.585.21.28.315.68.315 1.2 0 .52-.125.915-.375 1.185-.25.26-.655.415-1.215.465v.045c.68.05 1.155.24 1.425.57.28.33.42.79.42 1.38 0 .5-.1.89-.3 1.17-.2.27-.515.46-.945.57-.43.11-1 .165-1.71.165-.53 0-.995-.005-1.395-.015-.39 0-.75-.01-1.08-.03-.32-.01-.66-.025-1.02-.045l.18-1.035c.2.01.575.02 1.125.03h1.965c.43 0 .77-.03 1.02-.09.26-.06.44-.17.54-.33.11-.17.165-.405.165-.705 0-.45-.13-.755-.39-.915-.26-.17-.725-.255-1.395-.255h-3.045v-.975h3.045c.39 0 .7-.025.93-.075.24-.06.41-.165.51-.315.11-.16.165-.38.165-.66 0-.27-.06-.475-.18-.615-.11-.14-.295-.24-.555-.3-.26-.06-.61-.09-1.05-.09-.45-.01-.85-.015-1.2-.015s-.66.005-.93.015c-.27 0-.51.01-.72.03l-.18-1.02c.32-.03.625-.05.915-.06.29-.01.605-.015.945-.015.35-.01.755-.015 1.215-.015zm-1.71.09v7.32h-1.365v-7.32h1.365zm10.165-.195c.86 0 1.545.125 2.055.375.51.25.88.66 1.11 1.23.23.56.345 1.305.345 2.235 0 .94-.115 1.695-.345 2.265-.23.56-.6.965-1.11 1.215-.51.25-1.195.375-2.055.375-.86 0-1.55-.125-2.07-.375-.51-.25-.88-.655-1.11-1.215-.23-.57-.345-1.325-.345-2.265 0-.93.115-1.675.345-2.235.23-.57.6-.98 1.11-1.23.52-.25 1.21-.375 2.07-.375zm0 1.17c-.5 0-.9.08-1.2.24-.29.16-.5.435-.63.825-.12.38-.18.915-.18 1.605s.06 1.23.18 1.62c.13.39.34.665.63.825.3.15.7.225 1.2.225s.895-.075 1.185-.225c.29-.16.495-.435.615-.825.12-.39.18-.93.18-1.62 0-.69-.06-1.225-.18-1.605-.12-.39-.325-.665-.615-.825-.29-.16-.685-.24-1.185-.24zM21.71 116.68V124h-1.305v-4.665c0-.17.005-.335.015-.495.01-.16.025-.335.045-.525h-.045c-.06.15-.14.31-.24.48-.09.16-.18.3-.27.42L16.355 124H15.14v-7.32h1.305v4.68c0 .16-.005.32-.015.48 0 .16-.01.335-.03.525h.03c.08-.16.165-.315.255-.465.09-.16.18-.295.27-.405l3.555-4.815h1.2zm7.703-.105c.9 0 1.614.12 2.145.36.53.24.91.64 1.14 1.2.24.55.36 1.295.36 2.235 0 .93-.12 1.675-.36 2.235-.23.55-.61.945-1.14 1.185-.53.24-1.245.36-2.145.36-.59 0-1.085-.025-1.486-.075a6.549 6.549 0 01-1.154-.225l.15-.99 1.11.06c.37.02.83.03 1.38.03.56 0 .994-.07 1.305-.21.32-.15.544-.41.674-.78.14-.38.21-.91.21-1.59s-.07-1.21-.21-1.59c-.13-.38-.354-.645-.674-.795-.32-.15-.756-.225-1.305-.225-.51 0-.94.01-1.29.03-.35.01-.726.025-1.126.045l-.15-.99c.39-.11.77-.18 1.14-.21.38-.04.856-.06 1.426-.06zm3.254 3.18v1.035h-4.8v-1.035h4.8zm6.627-3.255c1.13 0 2.03.13 2.7.39.68.25 1.17.655 1.47 1.215.31.56.465 1.305.465 2.235 0 .93-.155 1.68-.465 2.25-.3.56-.79.965-1.47 1.215-.67.25-1.57.375-2.7.375-1.13 0-2.04-.125-2.73-.375-.68-.25-1.175-.655-1.485-1.215-.3-.57-.45-1.32-.45-2.25 0-.93.15-1.675.45-2.235.31-.56.805-.965 1.485-1.215.69-.26 1.6-.39 2.73-.39zm-.015 1.155c-.81 0-1.455.08-1.935.24-.47.16-.81.435-1.02.825-.2.39-.3.93-.3 1.62 0 .69.1 1.23.3 1.62.21.39.55.665 1.02.825.48.15 1.125.225 1.935.225.82 0 1.465-.075 1.935-.225.47-.16.805-.435 1.005-.825.21-.39.315-.93.315-1.62 0-.69-.105-1.23-.315-1.62-.2-.39-.535-.665-1.005-.825-.47-.16-1.115-.24-1.935-.24zm.675-4.155v3.225l-.06.315v6.435l.06.375v3.135h-1.335v-3.135l.045-.375v-6.42l-.045-.33V113.5h1.335zm10.209 3c1.13 0 2.03.13 2.7.39.68.25 1.17.655 1.47 1.215.31.56.465 1.305.465 2.235 0 .93-.155 1.68-.465 2.25-.3.56-.79.965-1.47 1.215-.67.25-1.57.375-2.7.375-1.13 0-2.04-.125-2.73-.375-.68-.25-1.175-.655-1.485-1.215-.3-.57-.45-1.32-.45-2.25 0-.93.15-1.675.45-2.235.31-.56.805-.965 1.485-1.215.69-.26 1.6-.39 2.73-.39zm-.015 1.155c-.81 0-1.455.08-1.935.24-.47.16-.81.435-1.02.825-.2.39-.3.93-.3 1.62 0 .69.1 1.23.3 1.62.21.39.55.665 1.02.825.48.15 1.125.225 1.935.225.82 0 1.465-.075 1.935-.225.47-.16.805-.435 1.005-.825.21-.39.315-.93.315-1.62 0-.69-.105-1.23-.315-1.62-.2-.39-.535-.665-1.005-.825-.47-.16-1.115-.24-1.935-.24zm.675-4.155v3.225l-.06.315v6.435l.06.375v3.135h-1.335v-3.135l.045-.375v-6.42l-.045-.33V113.5h1.335zm8.994 3c1.13 0 1.945.205 2.445.615.51.4.77.995.78 1.785 0 .66-.145 1.17-.435 1.53-.29.36-.765.54-1.425.54h-4.245v-1.035h3.87c.32 0 .53-.105.63-.315.11-.21.16-.45.15-.72 0-.45-.13-.77-.39-.96-.25-.19-.69-.285-1.32-.285-.51 0-.91.075-1.2.225-.29.15-.495.41-.615.78-.12.37-.18.89-.18 1.56 0 .75.075 1.325.225 1.725.15.39.385.66.705.81.33.15.765.225 1.305.225.39 0 .82-.015 1.29-.045.48-.04.915-.085 1.305-.135l.135.945c-.23.1-.52.185-.87.255-.34.06-.69.105-1.05.135-.36.03-.69.045-.99.045-.85 0-1.54-.13-2.07-.39-.52-.26-.9-.67-1.14-1.23-.23-.57-.345-1.315-.345-2.235 0-.96.12-1.72.36-2.28.24-.56.61-.955 1.11-1.185.5-.24 1.155-.36 1.965-.36zm11.384.18c-.17.45-.325.855-.465 1.215-.14.36-.28.675-.42.945-.14.27-.3.495-.48.675-.17.18-.37.325-.6.435-.22.11-.49.18-.81.21v.06c.34.03.625.095.855.195.24.1.45.245.63.435.19.19.36.43.51.72.15.28.305.625.465 1.035.16.4.335.865.525 1.395h-1.515c-.18-.49-.345-.915-.495-1.275-.14-.37-.28-.68-.42-.93-.14-.26-.29-.465-.45-.615-.16-.16-.35-.27-.57-.33-.21-.07-.46-.105-.75-.105v-1.095c.35 0 .645-.06.885-.18.24-.13.445-.32.615-.57.18-.25.345-.555.495-.915.15-.37.315-.805.495-1.305h1.5zm-4.845 0v2.115c0 .23-.02.465-.06.705-.03.23-.08.45-.15.66.06.22.11.44.15.66.04.22.06.425.06.615V124H64.9v-7.32h1.455zm1.35 2.97v1.095h-1.77v-1.095h1.77zm8.61-2.97V124h-1.455v-7.32h1.455zm2.61 0v1.17h-6.675v-1.17h6.675zm8.072 0V124h-1.305v-4.665c0-.17.005-.335.015-.495.01-.16.025-.335.045-.525h-.045c-.06.15-.14.31-.24.48-.09.16-.18.3-.27.42L81.643 124h-1.215v-7.32h1.305v4.68c0 .16-.005.32-.015.48 0 .16-.01.335-.03.525h.03c.08-.16.165-.315.255-.465.09-.16.18-.295.27-.405l3.555-4.815h1.2zm5.367-.075c.77 0 1.38.055 1.83.165.45.11.775.305.975.585.21.28.315.68.315 1.2 0 .52-.125.915-.375 1.185-.25.26-.655.415-1.215.465v.045c.68.05 1.155.24 1.425.57.28.33.42.79.42 1.38 0 .5-.1.89-.3 1.17-.2.27-.515.46-.945.57-.43.11-1 .165-1.71.165-.53 0-.995-.005-1.395-.015-.39 0-.75-.01-1.08-.03-.32-.01-.66-.025-1.02-.045l.18-1.035c.2.01.575.02 1.125.03h1.965c.43 0 .77-.03 1.02-.09.26-.06.44-.17.54-.33.11-.17.165-.405.165-.705 0-.45-.13-.755-.39-.915-.26-.17-.725-.255-1.395-.255h-3.045v-.975H92.5c.39 0 .7-.025.93-.075.24-.06.41-.165.51-.315.11-.16.165-.38.165-.66 0-.27-.06-.475-.18-.615-.11-.14-.295-.24-.555-.3-.26-.06-.61-.09-1.05-.09-.45-.01-.85-.015-1.2-.015s-.66.005-.93.015c-.27 0-.51.01-.72.03l-.18-1.02c.32-.03.625-.05.915-.06.29-.01.605-.015.945-.015.35-.01.755-.015 1.215-.015zm-1.71.09v7.32H89.29v-7.32h1.365zm8.425-.015V124h-1.425v-7.32h1.425zm3.795 2.895v1.08H98.99v-1.08h3.885zm1.29-2.895V124h-1.425v-7.32h1.425zm5.459-.18c.86 0 1.545.125 2.055.375.51.25.88.66 1.11 1.23.23.56.345 1.305.345 2.235 0 .94-.115 1.695-.345 2.265-.23.56-.6.965-1.11 1.215-.51.25-1.195.375-2.055.375-.86 0-1.55-.125-2.07-.375-.51-.25-.88-.655-1.11-1.215-.23-.57-.345-1.325-.345-2.265 0-.93.115-1.675.345-2.235.23-.57.6-.98 1.11-1.23.52-.25 1.21-.375 2.07-.375zm0 1.17c-.5 0-.9.08-1.2.24-.29.16-.5.435-.63.825-.12.38-.18.915-.18 1.605s.06 1.23.18 1.62c.13.39.34.665.63.825.3.15.7.225 1.2.225s.895-.075 1.185-.225c.29-.16.495-.435.615-.825.12-.39.18-.93.18-1.62 0-.69-.06-1.225-.18-1.605-.12-.39-.325-.665-.615-.825-.29-.16-.685-.24-1.185-.24zm8.628-1.17c.23 0 .485.01.765.03.28.02.565.055.855.105.29.05.56.125.81.225l-.18.93c-.35-.03-.71-.05-1.08-.06-.36-.02-.67-.03-.93-.03-.55 0-.99.08-1.32.24-.33.15-.57.415-.72.795-.14.38-.21.91-.21 1.59s.07 1.215.21 1.605c.15.39.39.66.72.81.33.15.77.225 1.32.225a25.48 25.48 0 001.38-.06c.28-.02.545-.05.795-.09l.135.96c-.36.14-.765.24-1.215.3-.45.07-.9.105-1.35.105-.85 0-1.535-.125-2.055-.375-.51-.25-.88-.655-1.11-1.215-.23-.56-.345-1.315-.345-2.265 0-.94.115-1.69.345-2.25.23-.56.6-.96 1.11-1.2.52-.25 1.21-.375 2.07-.375zm7.546.18V124h-1.455v-7.32h1.455zm2.61 0v1.17h-6.675v-1.17h6.675zm4.533 2.79c.77 0 1.375.07 1.815.21.44.14.75.38.93.72.19.34.285.8.285 1.38 0 .6-.095 1.07-.285 1.41-.19.34-.495.575-.915.705-.41.13-.945.195-1.605.195-.49 0-.915-.005-1.275-.015-.36 0-.69-.01-.99-.03-.3-.01-.615-.025-.945-.045l.165-1.05c.19.01.535.02 1.035.03.51.01 1.105.015 1.785.015.38 0 .685-.035.915-.105.23-.07.39-.195.48-.375.1-.18.15-.445.15-.795 0-.31-.045-.555-.135-.735a.742.742 0 00-.465-.375c-.22-.08-.535-.12-.945-.12h-2.835v-1.02h2.835zm-1.62-2.79V124h-1.41v-7.32h1.41zm14.013-.18c.91 0 1.56.33 1.95.99.39.66.585 1.625.585 2.895 0 .95-.1 1.705-.3 2.265-.2.55-.505.945-.915 1.185-.41.23-.925.345-1.545.345-.49 0-.97-.065-1.44-.195-.47-.14-.915-.35-1.335-.63l.09-.81c.44.13.83.235 1.17.315.34.08.705.12 1.095.12.41 0 .735-.07.975-.21.25-.14.43-.4.54-.78.11-.38.165-.915.165-1.605 0-.68-.05-1.21-.15-1.59-.1-.39-.26-.665-.48-.825-.22-.17-.52-.255-.9-.255s-.755.09-1.125.27c-.37.17-.795.44-1.275.81l-.165-.9c.25-.28.54-.525.87-.735.34-.21.7-.37 1.08-.48.38-.12.75-.18 1.11-.18zm-3.12.18l.165 1.485.105.195v4.71l-.075.18c.03.28.05.555.06.825.02.27.025.555.015.855v2.055h-1.44V116.68h1.17zm11.158-.18c.56 0 1.03.075 1.41.225.38.14.665.385.855.735.2.35.3.83.3 1.44v5.1h-1.14l-.225-1.59-.075-.18v-3.33c-.01-.43-.115-.74-.315-.93-.19-.19-.565-.285-1.125-.285-.39 0-.875.02-1.455.06l-1.695.12-.135-1.035c.34-.06.72-.115 1.14-.165.42-.05.845-.09 1.275-.12.43-.03.825-.045 1.185-.045zm1.905 2.985l-.015 1.02-3.435.015c-.34.01-.58.1-.72.27-.14.16-.21.385-.21.675v.45c0 .36.09.625.27.795.18.16.455.24.825.24.28 0 .59-.05.93-.15.35-.11.7-.27 1.05-.48.35-.22.665-.495.945-.825v.945c-.09.14-.235.31-.435.51-.2.19-.445.375-.735.555-.28.18-.595.33-.945.45s-.73.18-1.14.18c-.44 0-.83-.075-1.17-.225-.33-.16-.59-.39-.78-.69-.18-.31-.27-.685-.27-1.125v-.795c0-.57.18-1.015.54-1.335.37-.32.88-.48 1.53-.48h3.765zm8.92-6.54l.315 1.11a4.605 4.605 0 01-1.65.66l-.765.12c-.26.04-.53.1-.81.18-.48.13-.86.315-1.14.555-.27.24-.47.51-.6.81-.12.3-.21.61-.27.93-.04.23-.075.44-.105.63-.02.18-.035.33-.045.45h.03c.09-.18.2-.36.33-.54.13-.18.295-.34.495-.48.21-.14.47-.25.78-.33.32-.09.71-.135 1.17-.135.73 0 1.31.12 1.74.36.43.24.74.62.93 1.14.19.51.285 1.185.285 2.025 0 .78-.095 1.45-.285 2.01-.19.56-.535.99-1.035 1.29-.49.3-1.185.45-2.085.45-.65 0-1.19-.075-1.62-.225-.42-.15-.755-.36-1.005-.63-.24-.28-.42-.61-.54-.99a6.61 6.61 0 01-.225-1.275c-.03-.47-.045-.97-.045-1.5 0-.78.03-1.48.09-2.1.07-.62.195-1.16.375-1.62.19-.46.47-.85.84-1.17.37-.32.855-.57 1.455-.75.3-.09.585-.16.855-.21l.825-.15c.28-.05.56-.12.84-.21.28-.09.57-.225.87-.405zm-2.64 5.115c-.57 0-1 .09-1.29.27-.29.18-.485.445-.585.795-.09.34-.135.775-.135 1.305 0 .65.06 1.165.18 1.545.12.38.32.645.6.795.29.15.67.225 1.14.225.47 0 .84-.075 1.11-.225.28-.15.48-.41.6-.78.12-.38.18-.9.18-1.56 0-.62-.055-1.1-.165-1.44-.1-.35-.28-.59-.54-.72-.26-.14-.625-.21-1.095-.21zm8.462-1.56c.86 0 1.545.125 2.055.375.51.25.88.66 1.11 1.23.23.56.345 1.305.345 2.235 0 .94-.115 1.695-.345 2.265-.23.56-.6.965-1.11 1.215-.51.25-1.195.375-2.055.375-.86 0-1.55-.125-2.07-.375-.51-.25-.88-.655-1.11-1.215-.23-.57-.345-1.325-.345-2.265 0-.93.115-1.675.345-2.235.23-.57.6-.98 1.11-1.23.52-.25 1.21-.375 2.07-.375zm0 1.17c-.5 0-.9.08-1.2.24-.29.16-.5.435-.63.825-.12.38-.18.915-.18 1.605s.06 1.23.18 1.62c.13.39.34.665.63.825.3.15.7.225 1.2.225s.895-.075 1.185-.225c.29-.16.495-.435.615-.825.12-.39.18-.93.18-1.62 0-.69-.06-1.225-.18-1.605-.12-.39-.325-.665-.615-.825-.29-.16-.685-.24-1.185-.24zm8.646-.99V124h-1.455v-7.32h1.455zm2.61 0v1.17H174.6v-1.17h6.675zm4.532 2.79c.75 0 1.335.07 1.755.21.43.14.735.38.915.72.18.34.27.8.27 1.38 0 .6-.095 1.07-.285 1.41-.18.34-.47.575-.87.705s-.92.195-1.56.195c-.49 0-.915-.005-1.275-.015-.36 0-.69-.01-.99-.03-.3-.01-.615-.025-.945-.045l.165-1.05c.19.01.535.02 1.035.03.5.01 1.095.015 1.785.015.37 0 .66-.035.87-.105a.742.742 0 00.465-.375c.09-.18.135-.445.135-.795 0-.46-.1-.78-.3-.96-.2-.18-.59-.27-1.17-.27h-2.835v-1.02h2.835zm-1.62-2.79V124h-1.41v-7.32h1.41zm7.29 0V124h-1.455v-7.32h1.455zm12.016 0V124h-1.425v-7.32h1.425zm-4.995 0V124h-1.41v-7.32h1.41zm3.705 0l-.015 1.125h-3.765v-1.125h3.78zm6.662-.18c1.13 0 1.945.205 2.445.615.51.4.77.995.78 1.785 0 .66-.145 1.17-.435 1.53-.29.36-.765.54-1.425.54h-4.245v-1.035h3.87c.32 0 .53-.105.63-.315.11-.21.16-.45.15-.72 0-.45-.13-.77-.39-.96-.25-.19-.69-.285-1.32-.285-.51 0-.91.075-1.2.225-.29.15-.495.41-.615.78-.12.37-.18.89-.18 1.56 0 .75.075 1.325.225 1.725.15.39.385.66.705.81.33.15.765.225 1.305.225.39 0 .82-.015 1.29-.045.48-.04.915-.085 1.305-.135l.135.945c-.23.1-.52.185-.87.255-.34.06-.69.105-1.05.135-.36.03-.69.045-.99.045-.85 0-1.54-.13-2.07-.39-.52-.26-.9-.67-1.14-1.23-.23-.57-.345-1.315-.345-2.235 0-.96.12-1.72.36-2.28.24-.56.61-.955 1.11-1.185.5-.24 1.155-.36 1.965-.36zm9.389 0c.91 0 1.56.33 1.95.99.39.66.585 1.625.585 2.895 0 .95-.1 1.705-.3 2.265-.2.55-.505.945-.915 1.185-.41.23-.925.345-1.545.345-.49 0-.97-.065-1.44-.195-.47-.14-.915-.35-1.335-.63l.09-.81c.44.13.83.235 1.17.315.34.08.705.12 1.095.12.41 0 .735-.07.975-.21.25-.14.43-.4.54-.78.11-.38.165-.915.165-1.605 0-.68-.05-1.21-.15-1.59-.1-.39-.26-.665-.48-.825-.22-.17-.52-.255-.9-.255s-.755.09-1.125.27c-.37.17-.795.44-1.275.81l-.165-.9c.25-.28.54-.525.87-.735.34-.21.7-.37 1.08-.48.38-.12.75-.18 1.11-.18zm-3.12.18l.165 1.485.105.195v4.71l-.075.18c.03.28.05.555.06.825.02.27.025.555.015.855v2.055h-1.44V116.68h1.17zm10.798-.18c.23 0 .485.01.765.03.28.02.565.055.855.105.29.05.56.125.81.225l-.18.93c-.35-.03-.71-.05-1.08-.06-.36-.02-.67-.03-.93-.03-.55 0-.99.08-1.32.24-.33.15-.57.415-.72.795-.14.38-.21.91-.21 1.59s.07 1.215.21 1.605c.15.39.39.66.72.81.33.15.77.225 1.32.225a25.48 25.48 0 001.38-.06c.28-.02.545-.05.795-.09l.135.96c-.36.14-.765.24-1.215.3-.45.07-.9.105-1.35.105-.85 0-1.535-.125-2.055-.375-.51-.25-.88-.655-1.11-1.215-.23-.56-.345-1.315-.345-2.265 0-.94.115-1.69.345-2.25.23-.56.6-.96 1.11-1.2.52-.25 1.21-.375 2.07-.375zm7.31 0c.86 0 1.545.125 2.055.375.51.25.88.66 1.11 1.23.23.56.345 1.305.345 2.235 0 .94-.115 1.695-.345 2.265-.23.56-.6.965-1.11 1.215-.51.25-1.195.375-2.055.375-.86 0-1.55-.125-2.07-.375-.51-.25-.88-.655-1.11-1.215-.23-.57-.345-1.325-.345-2.265 0-.93.115-1.675.345-2.235.23-.57.6-.98 1.11-1.23.52-.25 1.21-.375 2.07-.375zm0 1.17c-.5 0-.9.08-1.2.24-.29.16-.5.435-.63.825-.12.38-.18.915-.18 1.605s.06 1.23.18 1.62c.13.39.34.665.63.825.3.15.7.225 1.2.225s.895-.075 1.185-.225c.29-.16.495-.435.615-.825.12-.39.18-.93.18-1.62 0-.69-.06-1.225-.18-1.605-.12-.39-.325-.665-.615-.825-.29-.16-.685-.24-1.185-.24zm6.873-.99V124h-1.425v-7.32h1.425zm3.795 2.895v1.08h-3.885v-1.08h3.885zm1.29-2.895V124h-1.425v-7.32h1.425zm5.819-.18c.56 0 1.03.075 1.41.225.38.14.665.385.855.735.2.35.3.83.3 1.44v5.1h-1.14l-.225-1.59-.075-.18v-3.33c-.01-.43-.115-.74-.315-.93-.19-.19-.565-.285-1.125-.285-.39 0-.875.02-1.455.06l-1.695.12-.135-1.035c.34-.06.72-.115 1.14-.165.42-.05.845-.09 1.275-.12.43-.03.825-.045 1.185-.045zm1.905 2.985l-.015 1.02-3.435.015c-.34.01-.58.1-.72.27-.14.16-.21.385-.21.675v.45c0 .36.09.625.27.795.18.16.455.24.825.24.28 0 .59-.05.93-.15.35-.11.7-.27 1.05-.48.35-.22.665-.495.945-.825v.945c-.09.14-.235.31-.435.51-.2.19-.445.375-.735.555-.28.18-.595.33-.945.45s-.73.18-1.14.18c-.44 0-.83-.075-1.17-.225-.33-.16-.59-.39-.78-.69-.18-.31-.27-.685-.27-1.125v-.795c0-.57.18-1.015.54-1.335.37-.32.88-.48 1.53-.48h3.765zm8.92-2.805v1.095h-2.73c-.3 0-.52.065-.66.195-.13.13-.215.36-.255.69-.05.43-.11.875-.18 1.335-.06.45-.13.885-.21 1.305-.07.41-.165.78-.285 1.11-.12.38-.295.695-.525.945-.22.25-.49.435-.81.555a3.36 3.36 0 01-1.095.165l-.15-1.095c.26-.07.47-.145.63-.225.17-.08.3-.18.39-.3.1-.13.185-.285.255-.465a4.3 4.3 0 00.225-.78c.07-.3.125-.61.165-.93.05-.33.09-.655.12-.975.04-.33.075-.63.105-.9.07-.56.255-.985.555-1.275.3-.3.755-.45 1.365-.45h3.09zm.195 0V124h-1.455v-7.32h1.455zm5.84-.18c.56 0 1.03.075 1.41.225.38.14.665.385.855.735.2.35.3.83.3 1.44v5.1h-1.14l-.225-1.59-.075-.18v-3.33c-.01-.43-.115-.74-.315-.93-.19-.19-.565-.285-1.125-.285-.39 0-.875.02-1.455.06l-1.695.12-.135-1.035c.34-.06.72-.115 1.14-.165.42-.05.845-.09 1.275-.12.43-.03.825-.045 1.185-.045zm1.905 2.985l-.015 1.02-3.435.015c-.34.01-.58.1-.72.27-.14.16-.21.385-.21.675v.45c0 .36.09.625.27.795.18.16.455.24.825.24.28 0 .59-.05.93-.15.35-.11.7-.27 1.05-.48.35-.22.665-.495.945-.825v.945c-.09.14-.235.31-.435.51-.2.19-.445.375-.735.555-.28.18-.595.33-.945.45s-.73.18-1.14.18c-.44 0-.83-.075-1.17-.225-.33-.16-.59-.39-.78-.69-.18-.31-.27-.685-.27-1.125v-.795c0-.57.18-1.015.54-1.335.37-.32.88-.48 1.53-.48h3.765z" fill="#030303"/><path fill-rule="evenodd" clip-rule="evenodd" d="M69.623 216C59.89 216 52 223.89 52 233.623v32.754C52 276.11 59.89 284 69.623 284h195.179c.196 0 .389.049.561.144a47.224 47.224 0 013.973 2.427c6.257 4.307 15.968 8.02 21.62 9.978 1.159.402 2.187-1.174 1.456-2.159a51.899 51.899 0 01-8.088-16.357 1.173 1.173 0 01-.046-.323v-44.087c0-9.733-7.89-17.623-17.623-17.623H69.623z" fill="#D6D6FF"/><path d="M77.446 234.65c-.21.59-.405 1.135-.585 1.635-.17.49-.345.93-.525 1.32-.18.38-.375.71-.585.99-.21.28-.45.505-.72.675-.27.16-.59.26-.96.3v.06c.39.04.73.145 1.02.315.29.16.545.39.765.69.23.29.44.645.63 1.065.19.42.38.91.57 1.47.2.55.42 1.16.66 1.83h-1.575c-.28-.8-.53-1.5-.75-2.1-.21-.6-.435-1.1-.675-1.5-.23-.4-.5-.7-.81-.9-.31-.21-.7-.315-1.17-.315v-1.155c.44 0 .81-.105 1.11-.315.31-.22.58-.525.81-.915.23-.39.44-.85.63-1.38.2-.53.41-1.12.63-1.77h1.53zm-5.67 0v3.18c0 .31-.015.61-.045.9-.03.29-.08.575-.15.855.05.28.095.565.135.855.04.29.06.565.06.825V245h-1.485v-10.35h1.485zm1.53 4.38v1.155h-1.965v-1.155h1.965zm9.069-1.53c.86 0 1.545.125 2.055.375.51.25.88.66 1.11 1.23.23.56.345 1.305.345 2.235 0 .94-.115 1.695-.345 2.265-.23.56-.6.965-1.11 1.215-.51.25-1.195.375-2.055.375-.86 0-1.55-.125-2.07-.375-.51-.25-.88-.655-1.11-1.215-.23-.57-.345-1.325-.345-2.265 0-.93.115-1.675.345-2.235.23-.57.6-.98 1.11-1.23.52-.25 1.21-.375 2.07-.375zm0 1.17c-.5 0-.9.08-1.2.24-.29.16-.5.435-.63.825-.12.38-.18.915-.18 1.605s.06 1.23.18 1.62c.13.39.34.665.63.825.3.15.7.225 1.2.225s.895-.075 1.185-.225c.29-.16.495-.435.615-.825.12-.39.18-.93.18-1.62 0-.69-.06-1.225-.18-1.605-.12-.39-.325-.665-.615-.825-.29-.16-.685-.24-1.185-.24zm6.873-.99V245h-1.425v-7.32h1.425zm3.795 2.895v1.08h-3.885v-1.08h3.885zm1.29-2.895V245h-1.425v-7.32h1.425zm5.579 0V245h-1.455v-7.32h1.455zm2.61 0v1.17h-6.675v-1.17h6.675zm5.807-.18c.91 0 1.56.33 1.95.99.39.66.585 1.625.585 2.895 0 .95-.1 1.705-.3 2.265-.2.55-.505.945-.915 1.185-.41.23-.925.345-1.545.345-.49 0-.97-.065-1.44-.195-.47-.14-.915-.35-1.335-.63l.09-.81c.44.13.83.235 1.17.315.34.08.705.12 1.095.12.41 0 .735-.07.975-.21.25-.14.43-.4.54-.78.11-.38.165-.915.165-1.605 0-.68-.05-1.21-.15-1.59-.1-.39-.26-.665-.48-.825-.22-.17-.52-.255-.9-.255s-.755.09-1.125.27c-.37.17-.795.44-1.275.81l-.165-.9c.25-.28.54-.525.87-.735.34-.21.7-.37 1.08-.48.38-.12.75-.18 1.11-.18zm-3.12.18l.165 1.485.105.195v4.71l-.075.18c.03.28.05.555.06.825.02.27.025.555.015.855v2.055h-1.44V237.68h1.17zm10.799-.18c.86 0 1.545.125 2.055.375.51.25.88.66 1.11 1.23.23.56.345 1.305.345 2.235 0 .94-.115 1.695-.345 2.265-.23.56-.6.965-1.11 1.215-.51.25-1.195.375-2.055.375-.86 0-1.55-.125-2.07-.375-.51-.25-.88-.655-1.11-1.215-.23-.57-.345-1.325-.345-2.265 0-.93.115-1.675.345-2.235.23-.57.6-.98 1.11-1.23.52-.25 1.21-.375 2.07-.375zm0 1.17c-.5 0-.9.08-1.2.24-.29.16-.5.435-.63.825-.12.38-.18.915-.18 1.605s.06 1.23.18 1.62c.13.39.34.665.63.825.3.15.7.225 1.2.225s.895-.075 1.185-.225c.29-.16.495-.435.615-.825.12-.39.18-.93.18-1.62 0-.69-.06-1.225-.18-1.605-.12-.39-.325-.665-.615-.825-.29-.16-.685-.24-1.185-.24zm11.36-.99v1.095h-2.73c-.3 0-.52.065-.66.195-.13.13-.215.36-.255.69-.05.43-.11.875-.18 1.335-.06.45-.13.885-.21 1.305-.07.41-.165.78-.285 1.11-.12.38-.295.695-.525.945-.22.25-.49.435-.81.555a3.36 3.36 0 01-1.095.165l-.15-1.095c.26-.07.47-.145.63-.225.17-.08.3-.18.39-.3.1-.13.185-.285.255-.465a4.3 4.3 0 00.225-.78c.07-.3.125-.61.165-.93.05-.33.09-.655.12-.975.04-.33.075-.63.105-.9.07-.56.255-.985.555-1.275.3-.3.755-.45 1.365-.45h3.09zm.195 0V245h-1.455v-7.32h1.455zm8.871 0V245h-1.305v-4.665c0-.17.005-.335.015-.495.01-.16.025-.335.045-.525h-.045c-.06.15-.14.31-.24.48-.09.16-.18.3-.27.42L131.079 245h-1.215v-7.32h1.305v4.68c0 .16-.005.32-.015.48 0 .16-.01.335-.03.525h.03c.08-.16.165-.315.255-.465.09-.16.18-.295.27-.405l3.555-4.815h1.2zm6.597-.18c.91 0 1.56.33 1.95.99.39.66.585 1.625.585 2.895 0 .95-.1 1.705-.3 2.265-.2.55-.505.945-.915 1.185-.41.23-.925.345-1.545.345-.49 0-.97-.065-1.44-.195-.47-.14-.915-.35-1.335-.63l.09-.81c.44.13.83.235 1.17.315.34.08.705.12 1.095.12.41 0 .735-.07.975-.21.25-.14.43-.4.54-.78.11-.38.165-.915.165-1.605 0-.68-.05-1.21-.15-1.59-.1-.39-.26-.665-.48-.825-.22-.17-.52-.255-.9-.255s-.755.09-1.125.27c-.37.17-.795.44-1.275.81l-.165-.9c.25-.28.54-.525.87-.735.34-.21.7-.37 1.08-.48.38-.12.75-.18 1.11-.18zm-3.12.18l.165 1.485.105.195v4.71l-.075.18c.03.28.05.555.06.825.02.27.025.555.015.855v2.055h-1.44V237.68h1.17zm14.191 0l-2.865 7.665c-.09.26-.205.525-.345.795-.14.28-.31.545-.51.795-.19.25-.415.465-.675.645-.38.26-.805.415-1.275.465-.46.05-.95.04-1.47-.03l.12-.99c.34.01.665-.005.975-.045.31-.04.585-.135.825-.285.21-.15.4-.355.57-.615.17-.25.315-.525.435-.825l.375-.885c.08-.21.16-.44.24-.69.08-.26.155-.485.225-.675l1.815-5.325h1.56zm-5.985 0l1.845 5.325c.05.15.095.305.135.465.04.15.08.305.12.465h.36l-.495 1.065h-.39c-.13 0-.24-.03-.33-.09a.758.758 0 01-.195-.285l-2.595-6.945h1.545zm13.981 0V245h-1.305v-4.665c0-.17.005-.335.015-.495.01-.16.025-.335.045-.525h-.045c-.06.15-.14.31-.24.48-.09.16-.18.3-.27.42L156.743 245h-1.215v-7.32h1.305v4.68c0 .16-.005.32-.015.48 0 .16-.01.335-.03.525h.03c.08-.16.165-.315.255-.465.09-.16.18-.295.27-.405l3.555-4.815h1.2zm-2.085-3.255h1.05c.04.4-.03.76-.21 1.08-.18.31-.445.565-.795.765-.35.19-.77.285-1.26.285-.5 0-.93-.095-1.29-.285-.35-.2-.615-.455-.795-.765-.18-.32-.255-.68-.225-1.08h1.065c-.01.44.095.775.315 1.005.22.22.53.33.93.33.39 0 .69-.11.9-.33.21-.23.315-.565.315-1.005zm7.677 3.255V245h-1.455v-7.32h1.455zm2.61 0v1.17h-6.675v-1.17h6.675zm4.49-.18c1.13 0 1.945.205 2.445.615.51.4.77.995.78 1.785 0 .66-.145 1.17-.435 1.53-.29.36-.765.54-1.425.54h-4.245v-1.035h3.87c.32 0 .53-.105.63-.315.11-.21.16-.45.15-.72 0-.45-.13-.77-.39-.96-.25-.19-.69-.285-1.32-.285-.51 0-.91.075-1.2.225-.29.15-.495.41-.615.78-.12.37-.18.89-.18 1.56 0 .75.075 1.325.225 1.725.15.39.385.66.705.81.33.15.765.225 1.305.225.39 0 .82-.015 1.29-.045.48-.04.915-.085 1.305-.135l.135.945c-.23.1-.52.185-.87.255-.34.06-.69.105-1.05.135-.36.03-.69.045-.99.045-.85 0-1.54-.13-2.07-.39-.52-.26-.9-.67-1.14-1.23-.23-.57-.345-1.315-.345-2.235 0-.96.12-1.72.36-2.28.24-.56.61-.955 1.11-1.185.5-.24 1.155-.36 1.965-.36zm-98.049 19.18V264h-1.305v-4.665c0-.17.005-.335.015-.495.01-.16.025-.335.045-.525h-.045c-.06.15-.14.31-.24.48-.09.16-.18.3-.27.42L71.386 264h-1.215v-7.32h1.305v4.68c0 .16-.005.32-.015.48 0 .16-.01.335-.03.525h.03c.08-.16.165-.315.255-.465.09-.16.18-.295.27-.405l3.555-4.815h1.2zm3.718 0V264h-1.425v-7.32h1.425zm3.795 2.895v1.08h-3.885v-1.08h3.885zm1.29-2.895V264h-1.425v-7.32h1.425zm8.579 0c-.17.45-.325.855-.465 1.215-.14.36-.28.675-.42.945-.14.27-.3.495-.48.675-.17.18-.37.325-.6.435-.22.11-.49.18-.81.21v.06c.34.03.625.095.855.195.24.1.45.245.63.435.19.19.36.43.51.72.15.28.305.625.465 1.035.16.4.335.865.525 1.395h-1.515c-.18-.49-.345-.915-.495-1.275-.14-.37-.28-.68-.42-.93-.14-.26-.29-.465-.45-.615-.16-.16-.35-.27-.57-.33-.21-.07-.46-.105-.75-.105v-1.095c.35 0 .645-.06.885-.18.24-.13.445-.32.615-.57.18-.25.345-.555.495-.915.15-.37.315-.805.495-1.305h1.5zm-4.845 0v2.115c0 .23-.02.465-.06.705-.03.23-.08.45-.15.66.06.22.11.44.15.66.04.22.06.425.06.615V264h-1.455v-7.32h1.455zm1.35 2.97v1.095h-1.77v-1.095h1.77zm8.85-3.15c.56 0 1.03.075 1.41.225.38.14.665.385.855.735.2.35.3.83.3 1.44v5.1h-1.14l-.225-1.59-.075-.18v-3.33c-.01-.43-.115-.74-.315-.93-.19-.19-.565-.285-1.125-.285-.39 0-.875.02-1.455.06l-1.695.12-.135-1.035c.34-.06.72-.115 1.14-.165.42-.05.845-.09 1.275-.12.43-.03.825-.045 1.185-.045zm1.905 2.985l-.015 1.02-3.435.015c-.34.01-.58.1-.72.27-.14.16-.21.385-.21.675v.45c0 .36.09.625.27.795.18.16.455.24.825.24.28 0 .59-.05.93-.15.35-.11.7-.27 1.05-.48.35-.22.665-.495.945-.825v.945c-.09.14-.235.31-.435.51-.2.19-.445.375-.735.555-.28.18-.595.33-.945.45s-.73.18-1.14.18c-.44 0-.83-.075-1.17-.225-.33-.16-.59-.39-.78-.69-.18-.31-.27-.685-.27-1.125v-.795c0-.57.18-1.015.54-1.335.37-.32.88-.48 1.53-.48h3.765zm6.07-2.985c.23 0 .485.01.765.03.28.02.565.055.855.105.29.05.56.125.81.225l-.18.93c-.35-.03-.71-.05-1.08-.06-.36-.02-.67-.03-.93-.03-.55 0-.99.08-1.32.24-.33.15-.57.415-.72.795-.14.38-.21.91-.21 1.59s.07 1.215.21 1.605c.15.39.39.66.72.81.33.15.77.225 1.32.225a25.48 25.48 0 001.38-.06c.28-.02.545-.05.795-.09l.135.96c-.36.14-.765.24-1.215.3-.45.07-.9.105-1.35.105-.85 0-1.535-.125-2.055-.375-.51-.25-.88-.655-1.11-1.215-.23-.56-.345-1.315-.345-2.265 0-.94.115-1.69.345-2.25.23-.56.6-.96 1.11-1.2.52-.25 1.21-.375 2.07-.375zm7.309 0c.23 0 .485.01.765.03.28.02.565.055.855.105.29.05.56.125.81.225l-.18.93c-.35-.03-.71-.05-1.08-.06-.36-.02-.67-.03-.93-.03-.55 0-.99.08-1.32.24-.33.15-.57.415-.72.795-.14.38-.21.91-.21 1.59s.07 1.215.21 1.605c.15.39.39.66.72.81.33.15.77.225 1.32.225a25.48 25.48 0 001.38-.06c.28-.02.545-.05.795-.09l.135.96c-.36.14-.765.24-1.215.3-.45.07-.9.105-1.35.105-.85 0-1.535-.125-2.055-.375-.51-.25-.88-.655-1.11-1.215-.23-.56-.345-1.315-.345-2.265 0-.94.115-1.69.345-2.25.23-.56.6-.96 1.11-1.2.52-.25 1.21-.375 2.07-.375zm10.817.18V264h-1.305v-4.665c0-.17.005-.335.015-.495.01-.16.025-.335.045-.525h-.045c-.06.15-.14.31-.24.48-.09.16-.18.3-.27.42L120.224 264h-1.215v-7.32h1.305v4.68c0 .16-.005.32-.015.48 0 .16-.01.335-.03.525h.03c.08-.16.165-.315.255-.465.09-.16.18-.295.27-.405l3.555-4.815h1.2zm6.597-.18c.91 0 1.56.33 1.95.99.39.66.585 1.625.585 2.895 0 .95-.1 1.705-.3 2.265-.2.55-.505.945-.915 1.185-.41.23-.925.345-1.545.345-.49 0-.97-.065-1.44-.195-.47-.14-.915-.35-1.335-.63l.09-.81c.44.13.83.235 1.17.315.34.08.705.12 1.095.12.41 0 .735-.07.975-.21.25-.14.43-.4.54-.78.11-.38.165-.915.165-1.605 0-.68-.05-1.21-.15-1.59-.1-.39-.26-.665-.48-.825-.22-.17-.52-.255-.9-.255s-.755.09-1.125.27c-.37.17-.795.44-1.275.81l-.165-.9c.25-.28.54-.525.87-.735.34-.21.7-.37 1.08-.48.38-.12.75-.18 1.11-.18zm-3.12.18l.165 1.485.105.195v4.71l-.075.18c.03.28.05.555.06.825.02.27.025.555.015.855v2.055h-1.44V256.68h1.17zm10.799-.18c.86 0 1.545.125 2.055.375.51.25.88.66 1.11 1.23.23.56.345 1.305.345 2.235 0 .94-.115 1.695-.345 2.265-.23.56-.6.965-1.11 1.215-.51.25-1.195.375-2.055.375-.86 0-1.55-.125-2.07-.375-.51-.25-.88-.655-1.11-1.215-.23-.57-.345-1.325-.345-2.265 0-.93.115-1.675.345-2.235.23-.57.6-.98 1.11-1.23.52-.25 1.21-.375 2.07-.375zm0 1.17c-.5 0-.9.08-1.2.24-.29.16-.5.435-.63.825-.12.38-.18.915-.18 1.605s.06 1.23.18 1.62c.13.39.34.665.63.825.3.15.7.225 1.2.225s.895-.075 1.185-.225c.29-.16.495-.435.615-.825.12-.39.18-.93.18-1.62 0-.69-.06-1.225-.18-1.605-.12-.39-.325-.665-.615-.825-.29-.16-.685-.24-1.185-.24zm8.523-1.065c.77 0 1.38.055 1.83.165.45.11.775.305.975.585.21.28.315.68.315 1.2 0 .52-.125.915-.375 1.185-.25.26-.655.415-1.215.465v.045c.68.05 1.155.24 1.425.57.28.33.42.79.42 1.38 0 .5-.1.89-.3 1.17-.2.27-.515.46-.945.57-.43.11-1 .165-1.71.165-.53 0-.995-.005-1.395-.015-.39 0-.75-.01-1.08-.03-.32-.01-.66-.025-1.02-.045l.18-1.035c.2.01.575.02 1.125.03h1.965c.43 0 .77-.03 1.02-.09.26-.06.44-.17.54-.33.11-.17.165-.405.165-.705 0-.45-.13-.755-.39-.915-.26-.17-.725-.255-1.395-.255h-3.045v-.975h3.045c.39 0 .7-.025.93-.075.24-.06.41-.165.51-.315.11-.16.165-.38.165-.66 0-.27-.06-.475-.18-.615-.11-.14-.295-.24-.555-.3-.26-.06-.61-.09-1.05-.09-.45-.01-.85-.015-1.2-.015s-.66.005-.93.015c-.27 0-.51.01-.72.03l-.18-1.02c.32-.03.625-.05.915-.06.29-.01.605-.015.945-.015.35-.01.755-.015 1.215-.015zm-1.71.09v7.32h-1.365v-7.32h1.365zm10.539-.195c.56 0 1.03.075 1.41.225.38.14.665.385.855.735.2.35.3.83.3 1.44v5.1h-1.14l-.225-1.59-.075-.18v-3.33c-.01-.43-.115-.74-.315-.93-.19-.19-.565-.285-1.125-.285-.39 0-.875.02-1.455.06l-1.695.12-.135-1.035c.34-.06.72-.115 1.14-.165.42-.05.845-.09 1.275-.12.43-.03.825-.045 1.185-.045zm1.905 2.985l-.015 1.02-3.435.015c-.34.01-.58.1-.72.27-.14.16-.21.385-.21.675v.45c0 .36.09.625.27.795.18.16.455.24.825.24.28 0 .59-.05.93-.15.35-.11.7-.27 1.05-.48.35-.22.665-.495.945-.825v.945c-.09.14-.235.31-.435.51-.2.19-.445.375-.735.555-.28.18-.595.33-.945.45s-.73.18-1.14.18c-.44 0-.83-.075-1.17-.225-.33-.16-.59-.39-.78-.69-.18-.31-.27-.685-.27-1.125v-.795c0-.57.18-1.015.54-1.335.37-.32.88-.48 1.53-.48h3.765zm4.315-2.805V264h-1.425v-7.32h1.425zm3.795 2.895v1.08h-3.885v-1.08h3.885zm1.29-2.895V264h-1.425v-7.32h1.425zm3.704 0V264h-1.425v-7.32h1.425zm3.795 2.895v1.08h-3.885v-1.08h3.885zm1.29-2.895V264h-1.425v-7.32h1.425zm5.309 2.79c.75 0 1.335.07 1.755.21.43.14.735.38.915.72.18.34.27.8.27 1.38 0 .6-.095 1.07-.285 1.41-.18.34-.47.575-.87.705s-.92.195-1.56.195c-.49 0-.915-.005-1.275-.015-.36 0-.69-.01-.99-.03-.3-.01-.615-.025-.945-.045l.165-1.05c.19.01.535.02 1.035.03.5.01 1.095.015 1.785.015.37 0 .66-.035.87-.105a.742.742 0 00.465-.375c.09-.18.135-.445.135-.795 0-.46-.1-.78-.3-.96-.2-.18-.59-.27-1.17-.27h-2.835v-1.02h2.835zm-1.62-2.79V264h-1.41v-7.32h1.41zm7.29 0V264h-1.455v-7.32h1.455zm5.377-.18c1.13 0 1.945.205 2.445.615.51.4.77.995.78 1.785 0 .66-.145 1.17-.435 1.53-.29.36-.765.54-1.425.54h-4.245v-1.035h3.87c.32 0 .53-.105.63-.315.11-.21.16-.45.15-.72 0-.45-.13-.77-.39-.96-.25-.19-.69-.285-1.32-.285-.51 0-.91.075-1.2.225-.29.15-.495.41-.615.78-.12.37-.18.89-.18 1.56 0 .75.075 1.325.225 1.725.15.39.385.66.705.81.33.15.765.225 1.305.225.39 0 .82-.015 1.29-.045.48-.04.915-.085 1.305-.135l.135.945c-.23.1-.52.185-.87.255-.34.06-.69.105-1.05.135-.36.03-.69.045-.99.045-.85 0-1.54-.13-2.07-.39-.52-.26-.9-.67-1.14-1.23-.23-.57-.345-1.315-.345-2.235 0-.96.12-1.72.36-2.28.24-.56.61-.955 1.11-1.185.5-.24 1.155-.36 1.965-.36zm11.589 0c.23 0 .485.01.765.03.28.02.565.055.855.105.29.05.56.125.81.225l-.18.93c-.35-.03-.71-.05-1.08-.06-.36-.02-.67-.03-.93-.03-.55 0-.99.08-1.32.24-.33.15-.57.415-.72.795-.14.38-.21.91-.21 1.59s.07 1.215.21 1.605c.15.39.39.66.72.81.33.15.77.225 1.32.225a25.48 25.48 0 001.38-.06c.28-.02.545-.05.795-.09l.135.96c-.36.14-.765.24-1.215.3-.45.07-.9.105-1.35.105-.85 0-1.535-.125-2.055-.375-.51-.25-.88-.655-1.11-1.215-.23-.56-.345-1.315-.345-2.265 0-.94.115-1.69.345-2.25.23-.56.6-.96 1.11-1.2.52-.25 1.21-.375 2.07-.375zm10.907.18l-2.865 7.665c-.09.26-.205.525-.345.795-.14.28-.31.545-.51.795-.19.25-.415.465-.675.645-.38.26-.805.415-1.275.465-.46.05-.95.04-1.47-.03l.12-.99c.34.01.665-.005.975-.045.31-.04.585-.135.825-.285.21-.15.4-.355.57-.615.17-.25.315-.525.435-.825l.375-.885c.08-.21.16-.44.24-.69.08-.26.155-.485.225-.675l1.815-5.325h1.56zm-5.985 0l1.845 5.325c.05.15.095.305.135.465.04.15.08.305.12.465h.36l-.495 1.065h-.39c-.13 0-.24-.03-.33-.09a.758.758 0 01-.195-.285l-2.595-6.945h1.545zm15.765 0c.36 0 .54.175.54.525l.3 6.795h-1.35l-.27-6.225h-.24l-1.755 4.935a.683.683 0 01-.195.345.545.545 0 01-.375.12h-1.005a.545.545 0 01-.375-.12.87.87 0 01-.195-.345l-1.755-4.935h-.24l-.255 6.225h-1.335l.285-6.795c.01-.35.195-.525.555-.525h1.44c.16 0 .28.04.36.12.09.07.155.185.195.345l1.41 4.035c.07.18.125.355.165.525.05.17.095.345.135.525h.225c.05-.19.095-.37.135-.54.05-.17.105-.34.165-.51l1.41-4.035c.09-.31.28-.465.57-.465h1.455zm11.324 0c.36 0 .54.175.54.525l.3 6.795h-1.35l-.27-6.225h-.24l-1.755 4.935a.683.683 0 01-.195.345.545.545 0 01-.375.12h-1.005a.545.545 0 01-.375-.12.87.87 0 01-.195-.345l-1.755-4.935h-.24l-.255 6.225h-1.335l.285-6.795c.01-.35.195-.525.555-.525h1.44c.16 0 .28.04.36.12.09.07.155.185.195.345l1.41 4.035c.07.18.125.355.165.525.05.17.095.345.135.525h.225c.05-.19.095-.37.135-.54.05-.17.105-.34.165-.51l1.41-4.035c.09-.31.28-.465.57-.465h1.455zm5.998 2.79c.75 0 1.335.07 1.755.21.43.14.735.38.915.72.18.34.27.8.27 1.38 0 .6-.095 1.07-.285 1.41-.18.34-.47.575-.87.705s-.92.195-1.56.195c-.49 0-.915-.005-1.275-.015-.36 0-.69-.01-.99-.03-.3-.01-.615-.025-.945-.045l.165-1.05c.19.01.535.02 1.035.03.5.01 1.095.015 1.785.015.37 0 .66-.035.87-.105a.742.742 0 00.465-.375c.09-.18.135-.445.135-.795 0-.46-.1-.78-.3-.96-.2-.18-.59-.27-1.17-.27h-2.835v-1.02h2.835zm-1.62-2.79V264h-1.41v-7.32h1.41zm7.29 0V264h-1.455v-7.32h1.455z" fill="#030303"/><path fill-rule="evenodd" clip-rule="evenodd" d="M737.408 127c9.733 0 17.623 7.89 17.623 17.623v32.896c0 9.733-7.89 17.623-17.623 17.623H541.747c-.234 0-.462.069-.655.201a37.3 37.3 0 00-2.961 2.228c-5.01 4.21-12.722 7.851-17.392 9.842-1.107.472-2.181-.927-1.552-1.958 2.045-3.352 4.897-8.96 6.66-16.398.021-.088.031-.179.031-.269v-44.165c0-9.733 7.89-17.623 17.623-17.623h193.907z" fill="#D6D6FF"/><path d="M557.446 145.65c-.21.59-.405 1.135-.585 1.635-.17.49-.345.93-.525 1.32-.18.38-.375.71-.585.99-.21.28-.45.505-.72.675-.27.16-.59.26-.96.3v.06c.39.04.73.145 1.02.315.29.16.545.39.765.69.23.29.44.645.63 1.065.19.42.38.91.57 1.47.2.55.42 1.16.66 1.83h-1.575c-.28-.8-.53-1.5-.75-2.1-.21-.6-.435-1.1-.675-1.5-.23-.4-.5-.7-.81-.9-.31-.21-.7-.315-1.17-.315v-1.155c.44 0 .81-.105 1.11-.315.31-.22.58-.525.81-.915.23-.39.44-.85.63-1.38.2-.53.41-1.12.63-1.77h1.53zm-5.67 0v3.18c0 .31-.015.61-.045.9-.03.29-.08.575-.15.855.05.28.095.565.135.855.04.29.06.565.06.825V156h-1.485v-10.35h1.485zm1.53 4.38v1.155h-1.965v-1.155h1.965zm9.069-1.53c.86 0 1.545.125 2.055.375.51.25.88.66 1.11 1.23.23.56.345 1.305.345 2.235 0 .94-.115 1.695-.345 2.265-.23.56-.6.965-1.11 1.215-.51.25-1.195.375-2.055.375-.86 0-1.55-.125-2.07-.375-.51-.25-.88-.655-1.11-1.215-.23-.57-.345-1.325-.345-2.265 0-.93.115-1.675.345-2.235.23-.57.6-.98 1.11-1.23.52-.25 1.21-.375 2.07-.375zm0 1.17c-.5 0-.9.08-1.2.24-.29.16-.5.435-.63.825-.12.38-.18.915-.18 1.605s.06 1.23.18 1.62c.13.39.34.665.63.825.3.15.7.225 1.2.225s.895-.075 1.185-.225c.29-.16.495-.435.615-.825.12-.39.18-.93.18-1.62 0-.69-.06-1.225-.18-1.605-.12-.39-.325-.665-.615-.825-.29-.16-.685-.24-1.185-.24zm6.873-.99V156h-1.425v-7.32h1.425zm3.795 2.895v1.08h-3.885v-1.08h3.885zm1.29-2.895V156h-1.425v-7.32h1.425zm5.579 0V156h-1.455v-7.32h1.455zm2.61 0v1.17h-6.675v-1.17h6.675zm5.807-.18c.91 0 1.56.33 1.95.99.39.66.585 1.625.585 2.895 0 .95-.1 1.705-.3 2.265-.2.55-.505.945-.915 1.185-.41.23-.925.345-1.545.345-.49 0-.97-.065-1.44-.195-.47-.14-.915-.35-1.335-.63l.09-.81c.44.13.83.235 1.17.315.34.08.705.12 1.095.12.41 0 .735-.07.975-.21.25-.14.43-.4.54-.78.11-.38.165-.915.165-1.605 0-.68-.05-1.21-.15-1.59-.1-.39-.26-.665-.48-.825-.22-.17-.52-.255-.9-.255s-.755.09-1.125.27c-.37.17-.795.44-1.275.81l-.165-.9c.25-.28.54-.525.87-.735.34-.21.7-.37 1.08-.48.38-.12.75-.18 1.11-.18zm-3.12.18l.165 1.485.105.195v4.71l-.075.18c.03.28.05.555.06.825.02.27.025.555.015.855v2.055h-1.44V148.68h1.17zm10.799-.18c.86 0 1.545.125 2.055.375.51.25.88.66 1.11 1.23.23.56.345 1.305.345 2.235 0 .94-.115 1.695-.345 2.265-.23.56-.6.965-1.11 1.215-.51.25-1.195.375-2.055.375-.86 0-1.55-.125-2.07-.375-.51-.25-.88-.655-1.11-1.215-.23-.57-.345-1.325-.345-2.265 0-.93.115-1.675.345-2.235.23-.57.6-.98 1.11-1.23.52-.25 1.21-.375 2.07-.375zm0 1.17c-.5 0-.9.08-1.2.24-.29.16-.5.435-.63.825-.12.38-.18.915-.18 1.605s.06 1.23.18 1.62c.13.39.34.665.63.825.3.15.7.225 1.2.225s.895-.075 1.185-.225c.29-.16.495-.435.615-.825.12-.39.18-.93.18-1.62 0-.69-.06-1.225-.18-1.605-.12-.39-.325-.665-.615-.825-.29-.16-.685-.24-1.185-.24zm11.36-.99v1.095h-2.73c-.3 0-.52.065-.66.195-.13.13-.215.36-.255.69-.05.43-.11.875-.18 1.335-.06.45-.13.885-.21 1.305-.07.41-.165.78-.285 1.11-.12.38-.295.695-.525.945-.22.25-.49.435-.81.555a3.36 3.36 0 01-1.095.165l-.15-1.095c.26-.07.47-.145.63-.225.17-.08.3-.18.39-.3.1-.13.185-.285.255-.465a4.3 4.3 0 00.225-.78c.07-.3.125-.61.165-.93.05-.33.09-.655.12-.975.04-.33.075-.63.105-.9.07-.56.255-.985.555-1.275.3-.3.755-.45 1.365-.45h3.09zm.195 0V156h-1.455v-7.32h1.455zm8.871 0V156h-1.305v-4.665c0-.17.005-.335.015-.495.01-.16.025-.335.045-.525h-.045c-.06.15-.14.31-.24.48-.09.16-.18.3-.27.42L611.079 156h-1.215v-7.32h1.305v4.68c0 .16-.005.32-.015.48 0 .16-.01.335-.03.525h.03c.08-.16.165-.315.255-.465.09-.16.18-.295.27-.405l3.555-4.815h1.2zm6.597-.18c.91 0 1.56.33 1.95.99.39.66.585 1.625.585 2.895 0 .95-.1 1.705-.3 2.265-.2.55-.505.945-.915 1.185-.41.23-.925.345-1.545.345-.49 0-.97-.065-1.44-.195-.47-.14-.915-.35-1.335-.63l.09-.81c.44.13.83.235 1.17.315.34.08.705.12 1.095.12.41 0 .735-.07.975-.21.25-.14.43-.4.54-.78.11-.38.165-.915.165-1.605 0-.68-.05-1.21-.15-1.59-.1-.39-.26-.665-.48-.825-.22-.17-.52-.255-.9-.255s-.755.09-1.125.27c-.37.17-.795.44-1.275.81l-.165-.9c.25-.28.54-.525.87-.735.34-.21.7-.37 1.08-.48.38-.12.75-.18 1.11-.18zm-3.12.18l.165 1.485.105.195v4.71l-.075.18c.03.28.05.555.06.825.02.27.025.555.015.855v2.055h-1.44V148.68h1.17zm14.191 0l-2.865 7.665c-.09.26-.205.525-.345.795-.14.28-.31.545-.51.795-.19.25-.415.465-.675.645-.38.26-.805.415-1.275.465-.46.05-.95.04-1.47-.03l.12-.99c.34.01.665-.005.975-.045.31-.04.585-.135.825-.285.21-.15.4-.355.57-.615.17-.25.315-.525.435-.825l.375-.885c.08-.21.16-.44.24-.69.08-.26.155-.485.225-.675l1.815-5.325h1.56zm-5.985 0l1.845 5.325c.05.15.095.305.135.465.04.15.08.305.12.465h.36l-.495 1.065h-.39c-.13 0-.24-.03-.33-.09a.758.758 0 01-.195-.285l-2.595-6.945h1.545zm13.981 0V156h-1.305v-4.665c0-.17.005-.335.015-.495.01-.16.025-.335.045-.525h-.045c-.06.15-.14.31-.24.48-.09.16-.18.3-.27.42L636.743 156h-1.215v-7.32h1.305v4.68c0 .16-.005.32-.015.48 0 .16-.01.335-.03.525h.03c.08-.16.165-.315.255-.465.09-.16.18-.295.27-.405l3.555-4.815h1.2zm-2.085-3.255h1.05c.04.4-.03.76-.21 1.08-.18.31-.445.565-.795.765-.35.19-.77.285-1.26.285-.5 0-.93-.095-1.29-.285-.35-.2-.615-.455-.795-.765-.18-.32-.255-.68-.225-1.08h1.065c-.01.44.095.775.315 1.005.22.22.53.33.93.33.39 0 .69-.11.9-.33.21-.23.315-.565.315-1.005zm7.677 3.255V156h-1.455v-7.32h1.455zm2.61 0v1.17h-6.675v-1.17h6.675zm4.49-.18c1.13 0 1.945.205 2.445.615.51.4.77.995.78 1.785 0 .66-.145 1.17-.435 1.53-.29.36-.765.54-1.425.54h-4.245v-1.035h3.87c.32 0 .53-.105.63-.315.11-.21.16-.45.15-.72 0-.45-.13-.77-.39-.96-.25-.19-.69-.285-1.32-.285-.51 0-.91.075-1.2.225-.29.15-.495.41-.615.78-.12.37-.18.89-.18 1.56 0 .75.075 1.325.225 1.725.15.39.385.66.705.81.33.15.765.225 1.305.225.39 0 .82-.015 1.29-.045.48-.04.915-.085 1.305-.135l.135.945c-.23.1-.52.185-.87.255-.34.06-.69.105-1.05.135-.36.03-.69.045-.99.045-.85 0-1.54-.13-2.07-.39-.52-.26-.9-.67-1.14-1.23-.23-.57-.345-1.315-.345-2.235 0-.96.12-1.72.36-2.28.24-.56.61-.955 1.11-1.185.5-.24 1.155-.36 1.965-.36zm11.589 0c.23 0 .485.01.765.03.28.02.565.055.855.105.29.05.56.125.81.225l-.18.93c-.35-.03-.71-.05-1.08-.06-.36-.02-.67-.03-.93-.03-.55 0-.99.08-1.32.24-.33.15-.57.415-.72.795-.14.38-.21.91-.21 1.59s.07 1.215.21 1.605c.15.39.39.66.72.81.33.15.77.225 1.32.225a25.48 25.48 0 001.38-.06c.28-.02.545-.05.795-.09l.135.96c-.36.14-.765.24-1.215.3-.45.07-.9.105-1.35.105-.85 0-1.535-.125-2.055-.375-.51-.25-.88-.655-1.11-1.215-.23-.56-.345-1.315-.345-2.265 0-.94.115-1.69.345-2.25.23-.56.6-.96 1.11-1.2.52-.25 1.21-.375 2.07-.375zm10.546.18c-.17.45-.325.855-.465 1.215-.14.36-.28.675-.42.945-.14.27-.3.495-.48.675-.17.18-.37.325-.6.435-.22.11-.49.18-.81.21v.06c.34.03.625.095.855.195.24.1.45.245.63.435.19.19.36.43.51.72.15.28.305.625.465 1.035.16.4.335.865.525 1.395h-1.515c-.18-.49-.345-.915-.495-1.275-.14-.37-.28-.68-.42-.93-.14-.26-.29-.465-.45-.615-.16-.16-.35-.27-.57-.33-.21-.07-.46-.105-.75-.105v-1.095c.35 0 .645-.06.885-.18.24-.13.445-.32.615-.57.18-.25.345-.555.495-.915.15-.37.315-.805.495-1.305h1.5zm-4.845 0v2.115c0 .23-.02.465-.06.705-.03.23-.08.45-.15.66.06.22.11.44.15.66.04.22.06.425.06.615V156h-1.455v-7.32h1.455zm1.35 2.97v1.095h-1.77v-1.095h1.77zm8.432-3.15c.86 0 1.545.125 2.055.375.51.25.88.66 1.11 1.23.23.56.345 1.305.345 2.235 0 .94-.115 1.695-.345 2.265-.23.56-.6.965-1.11 1.215-.51.25-1.195.375-2.055.375-.86 0-1.55-.125-2.07-.375-.51-.25-.88-.655-1.11-1.215-.23-.57-.345-1.325-.345-2.265 0-.93.115-1.675.345-2.235.23-.57.6-.98 1.11-1.23.52-.25 1.21-.375 2.07-.375zm0 1.17c-.5 0-.9.08-1.2.24-.29.16-.5.435-.63.825-.12.38-.18.915-.18 1.605s.06 1.23.18 1.62c.13.39.34.665.63.825.3.15.7.225 1.2.225s.895-.075 1.185-.225c.29-.16.495-.435.615-.825.12-.39.18-.93.18-1.62 0-.69-.06-1.225-.18-1.605-.12-.39-.325-.665-.615-.825-.29-.16-.685-.24-1.185-.24zm9.753-1.17c.91 0 1.56.33 1.95.99.39.66.585 1.625.585 2.895 0 .95-.1 1.705-.3 2.265-.2.55-.505.945-.915 1.185-.41.23-.925.345-1.545.345-.49 0-.97-.065-1.44-.195-.47-.14-.915-.35-1.335-.63l.09-.81c.44.13.83.235 1.17.315.34.08.705.12 1.095.12.41 0 .735-.07.975-.21.25-.14.43-.4.54-.78.11-.38.165-.915.165-1.605 0-.68-.05-1.21-.15-1.59-.1-.39-.26-.665-.48-.825-.22-.17-.52-.255-.9-.255s-.755.09-1.125.27c-.37.17-.795.44-1.275.81l-.165-.9c.25-.28.54-.525.87-.735.34-.21.7-.37 1.08-.48.38-.12.75-.18 1.11-.18zm-3.12.18l.165 1.485.105.195v4.71l-.075.18c.03.28.05.555.06.825.02.27.025.555.015.855v2.055h-1.44V148.68h1.17zm10.799-.18c.86 0 1.545.125 2.055.375.51.25.88.66 1.11 1.23.23.56.345 1.305.345 2.235 0 .94-.115 1.695-.345 2.265-.23.56-.6.965-1.11 1.215-.51.25-1.195.375-2.055.375-.86 0-1.55-.125-2.07-.375-.51-.25-.88-.655-1.11-1.215-.23-.57-.345-1.325-.345-2.265 0-.93.115-1.675.345-2.235.23-.57.6-.98 1.11-1.23.52-.25 1.21-.375 2.07-.375zm0 1.17c-.5 0-.9.08-1.2.24-.29.16-.5.435-.63.825-.12.38-.18.915-.18 1.605s.06 1.23.18 1.62c.13.39.34.665.63.825.3.15.7.225 1.2.225s.895-.075 1.185-.225c.29-.16.495-.435.615-.825.12-.39.18-.93.18-1.62 0-.69-.06-1.225-.18-1.605-.12-.39-.325-.665-.615-.825-.29-.16-.685-.24-1.185-.24zm8.628-1.17c.23 0 .485.01.765.03.28.02.565.055.855.105.29.05.56.125.81.225l-.18.93c-.35-.03-.71-.05-1.08-.06-.36-.02-.67-.03-.93-.03-.55 0-.99.08-1.32.24-.33.15-.57.415-.72.795-.14.38-.21.91-.21 1.59s.07 1.215.21 1.605c.15.39.39.66.72.81.33.15.77.225 1.32.225a25.48 25.48 0 001.38-.06c.28-.02.545-.05.795-.09l.135.96c-.36.14-.765.24-1.215.3-.45.07-.9.105-1.35.105-.85 0-1.535-.125-2.055-.375-.51-.25-.88-.655-1.11-1.215-.23-.56-.345-1.315-.345-2.265 0-.94.115-1.69.345-2.25.23-.56.6-.96 1.11-1.2.52-.25 1.21-.375 2.07-.375zm7.546.18V156h-1.455v-7.32h1.455zm2.61 0v1.17h-6.675v-1.17h6.675zm4.532 2.79c.77 0 1.375.07 1.815.21.44.14.75.38.93.72.19.34.285.8.285 1.38 0 .6-.095 1.07-.285 1.41-.19.34-.495.575-.915.705-.41.13-.945.195-1.605.195-.49 0-.915-.005-1.275-.015-.36 0-.69-.01-.99-.03-.3-.01-.615-.025-.945-.045l.165-1.05c.19.01.535.02 1.035.03.51.01 1.105.015 1.785.015.38 0 .685-.035.915-.105.23-.07.39-.195.48-.375.1-.18.15-.445.15-.795 0-.31-.045-.555-.135-.735a.742.742 0 00-.465-.375c-.22-.08-.535-.12-.945-.12h-2.835v-1.02h2.835zm-1.62-2.79V156h-1.41v-7.32h1.41zM554.476 167.5c.91 0 1.56.33 1.95.99.39.66.585 1.625.585 2.895 0 .95-.1 1.705-.3 2.265-.2.55-.505.945-.915 1.185-.41.23-.925.345-1.545.345-.49 0-.97-.065-1.44-.195-.47-.14-.915-.35-1.335-.63l.09-.81c.44.13.83.235 1.17.315.34.08.705.12 1.095.12.41 0 .735-.07.975-.21.25-.14.43-.4.54-.78.11-.38.165-.915.165-1.605 0-.68-.05-1.21-.15-1.59-.1-.39-.26-.665-.48-.825-.22-.17-.52-.255-.9-.255s-.755.09-1.125.27c-.37.17-.795.44-1.275.81l-.165-.9c.25-.28.54-.525.87-.735.34-.21.7-.37 1.08-.48.38-.12.75-.18 1.11-.18zm-3.12.18l.165 1.485.105.195v4.71l-.075.18c.03.28.05.555.06.825.02.27.025.555.015.855v2.055h-1.44V167.68h1.17zm11.159-.18c.56 0 1.03.075 1.41.225.38.14.665.385.855.735.2.35.3.83.3 1.44v5.1h-1.14l-.225-1.59-.075-.18v-3.33c-.01-.43-.115-.74-.315-.93-.19-.19-.565-.285-1.125-.285-.39 0-.875.02-1.455.06l-1.695.12-.135-1.035c.34-.06.72-.115 1.14-.165.42-.05.845-.09 1.275-.12.43-.03.825-.045 1.185-.045zm1.905 2.985l-.015 1.02-3.435.015c-.34.01-.58.1-.72.27-.14.16-.21.385-.21.675v.45c0 .36.09.625.27.795.18.16.455.24.825.24.28 0 .59-.05.93-.15.35-.11.7-.27 1.05-.48.35-.22.665-.495.945-.825v.945c-.09.14-.235.31-.435.51-.2.19-.445.375-.735.555-.28.18-.595.33-.945.45s-.73.18-1.14.18c-.44 0-.83-.075-1.17-.225-.33-.16-.59-.39-.78-.69-.18-.31-.27-.685-.27-1.125v-.795c0-.57.18-1.015.54-1.335.37-.32.88-.48 1.53-.48h3.765zm6.07-2.985c.23 0 .485.01.765.03.28.02.565.055.855.105.29.05.56.125.81.225l-.18.93c-.35-.03-.71-.05-1.08-.06-.36-.02-.67-.03-.93-.03-.55 0-.99.08-1.32.24-.33.15-.57.415-.72.795-.14.38-.21.91-.21 1.59s.07 1.215.21 1.605c.15.39.39.66.72.81.33.15.77.225 1.32.225a25.48 25.48 0 001.38-.06c.28-.02.545-.05.795-.09l.135.96c-.36.14-.765.24-1.215.3-.45.07-.9.105-1.35.105-.85 0-1.535-.125-2.055-.375-.51-.25-.88-.655-1.11-1.215-.23-.56-.345-1.315-.345-2.265 0-.94.115-1.69.345-2.25.23-.56.6-.96 1.11-1.2.52-.25 1.21-.375 2.07-.375zm10.682.18l-2.25 3.555 2.43 3.765h-1.56l-2.34-3.765 2.175-3.555h1.545zm-5.52 0l2.175 3.555-2.355 3.765h-1.56l2.43-3.765-2.235-3.555h1.545zm2.835 2.985v1.065h-1.695v-1.065h1.695zm7.34-3.165c.86 0 1.545.125 2.055.375.51.25.88.66 1.11 1.23.23.56.345 1.305.345 2.235 0 .94-.115 1.695-.345 2.265-.23.56-.6.965-1.11 1.215-.51.25-1.195.375-2.055.375-.86 0-1.55-.125-2.07-.375-.51-.25-.88-.655-1.11-1.215-.23-.57-.345-1.325-.345-2.265 0-.93.115-1.675.345-2.235.23-.57.6-.98 1.11-1.23.52-.25 1.21-.375 2.07-.375zm0 1.17c-.5 0-.9.08-1.2.24-.29.16-.5.435-.63.825-.12.38-.18.915-.18 1.605s.06 1.23.18 1.62c.13.39.34.665.63.825.3.15.7.225 1.2.225s.895-.075 1.185-.225c.29-.16.495-.435.615-.825.12-.39.18-.93.18-1.62 0-.69-.06-1.225-.18-1.605-.12-.39-.325-.665-.615-.825-.29-.16-.685-.24-1.185-.24zm11.302-.99v1.08h-2.67c-.54 0-.835.285-.885.855-.06.74-.16 1.425-.3 2.055a8.986 8.986 0 01-.555 1.755 7.002 7.002 0 01-.945 1.575h-1.185c.39-.59.695-1.19.915-1.8.22-.62.39-1.25.51-1.89.13-.64.215-1.285.255-1.935.05-.57.23-.995.54-1.275.31-.28.76-.42 1.35-.42h2.97zm-5.7 7.245l-.135 2.22h-.945v-2.22h1.08zm6.915-1.035V175h-7.995v-1.11h7.995zm0 1.035v2.22h-.96l-.135-2.22h1.095zm-1.035-7.245V175h-1.38v-7.32h1.38zm6.236-.18c.56 0 1.03.075 1.41.225.38.14.665.385.855.735.2.35.3.83.3 1.44v5.1h-1.14l-.225-1.59-.075-.18v-3.33c-.01-.43-.115-.74-.315-.93-.19-.19-.565-.285-1.125-.285-.39 0-.875.02-1.455.06l-1.695.12-.135-1.035c.34-.06.72-.115 1.14-.165.42-.05.845-.09 1.275-.12.43-.03.825-.045 1.185-.045zm1.905 2.985l-.015 1.02-3.435.015c-.34.01-.58.1-.72.27-.14.16-.21.385-.21.675v.45c0 .36.09.625.27.795.18.16.455.24.825.24.28 0 .59-.05.93-.15.35-.11.7-.27 1.05-.48.35-.22.665-.495.945-.825v.945c-.09.14-.235.31-.435.51-.2.19-.445.375-.735.555-.28.18-.595.33-.945.45s-.73.18-1.14.18c-.44 0-.83-.075-1.17-.225-.33-.16-.59-.39-.78-.69-.18-.31-.27-.685-.27-1.125v-.795c0-.57.18-1.015.54-1.335.37-.32.88-.48 1.53-.48h3.765zm9.515-2.805V175h-1.455v-7.32h1.455zm2.61 0v1.17H610.9v-1.17h6.675zm4.58-.18c.86 0 1.545.125 2.055.375.51.25.88.66 1.11 1.23.23.56.345 1.305.345 2.235 0 .94-.115 1.695-.345 2.265-.23.56-.6.965-1.11 1.215-.51.25-1.195.375-2.055.375-.86 0-1.55-.125-2.07-.375-.51-.25-.88-.655-1.11-1.215-.23-.57-.345-1.325-.345-2.265 0-.93.115-1.675.345-2.235.23-.57.6-.98 1.11-1.23.52-.25 1.21-.375 2.07-.375zm0 1.17c-.5 0-.9.08-1.2.24-.29.16-.5.435-.63.825-.12.38-.18.915-.18 1.605s.06 1.23.18 1.62c.13.39.34.665.63.825.3.15.7.225 1.2.225s.895-.075 1.185-.225c.29-.16.495-.435.615-.825.12-.39.18-.93.18-1.62 0-.69-.06-1.225-.18-1.605-.12-.39-.325-.665-.615-.825-.29-.16-.685-.24-1.185-.24zm8.523-1.065c.77 0 1.38.055 1.83.165.45.11.775.305.975.585.21.28.315.68.315 1.2 0 .52-.125.915-.375 1.185-.25.26-.655.415-1.215.465v.045c.68.05 1.155.24 1.425.57.28.33.42.79.42 1.38 0 .5-.1.89-.3 1.17-.2.27-.515.46-.945.57-.43.11-1 .165-1.71.165-.53 0-.995-.005-1.395-.015-.39 0-.75-.01-1.08-.03-.32-.01-.66-.025-1.02-.045l.18-1.035c.2.01.575.02 1.125.03h1.965c.43 0 .77-.03 1.02-.09.26-.06.44-.17.54-.33.11-.17.165-.405.165-.705 0-.45-.13-.755-.39-.915-.26-.17-.725-.255-1.395-.255h-3.045v-.975h3.045c.39 0 .7-.025.93-.075.24-.06.41-.165.51-.315.11-.16.165-.38.165-.66 0-.27-.06-.475-.18-.615-.11-.14-.295-.24-.555-.3-.26-.06-.61-.09-1.05-.09-.45-.01-.85-.015-1.2-.015s-.66.005-.93.015c-.27 0-.51.01-.72.03l-.18-1.02c.32-.03.625-.05.915-.06.29-.01.605-.015.945-.015.35-.01.755-.015 1.215-.015zm-1.71.09v7.32h-1.365v-7.32h1.365zm10.539-.195c.56 0 1.03.075 1.41.225.38.14.665.385.855.735.2.35.3.83.3 1.44v5.1h-1.14l-.225-1.59-.075-.18v-3.33c-.01-.43-.115-.74-.315-.93-.19-.19-.565-.285-1.125-.285-.39 0-.875.02-1.455.06l-1.695.12-.135-1.035c.34-.06.72-.115 1.14-.165.42-.05.845-.09 1.275-.12.43-.03.825-.045 1.185-.045zm1.905 2.985l-.015 1.02-3.435.015c-.34.01-.58.1-.72.27-.14.16-.21.385-.21.675v.45c0 .36.09.625.27.795.18.16.455.24.825.24.28 0 .59-.05.93-.15.35-.11.7-.27 1.05-.48.35-.22.665-.495.945-.825v.945c-.09.14-.235.31-.435.51-.2.19-.445.375-.735.555-.28.18-.595.33-.945.45s-.73.18-1.14.18c-.44 0-.83-.075-1.17-.225-.33-.16-.59-.39-.78-.69-.18-.31-.27-.685-.27-1.125v-.795c0-.57.18-1.015.54-1.335.37-.32.88-.48 1.53-.48h3.765zm7.195-2.985c.91 0 1.56.33 1.95.99.39.66.585 1.625.585 2.895 0 .95-.1 1.705-.3 2.265-.2.55-.505.945-.915 1.185-.41.23-.925.345-1.545.345-.49 0-.97-.065-1.44-.195-.47-.14-.915-.35-1.335-.63l.09-.81c.44.13.83.235 1.17.315.34.08.705.12 1.095.12.41 0 .735-.07.975-.21.25-.14.43-.4.54-.78.11-.38.165-.915.165-1.605 0-.68-.05-1.21-.15-1.59-.1-.39-.26-.665-.48-.825-.22-.17-.52-.255-.9-.255s-.755.09-1.125.27c-.37.17-.795.44-1.275.81l-.165-.9c.25-.28.54-.525.87-.735.34-.21.7-.37 1.08-.48.38-.12.75-.18 1.11-.18zm-3.12.18l.165 1.485.105.195v4.71l-.075.18c.03.28.05.555.06.825.02.27.025.555.015.855v2.055h-1.44V167.68h1.17zm10.799-.18c.86 0 1.545.125 2.055.375.51.25.88.66 1.11 1.23.23.56.345 1.305.345 2.235 0 .94-.115 1.695-.345 2.265-.23.56-.6.965-1.11 1.215-.51.25-1.195.375-2.055.375-.86 0-1.55-.125-2.07-.375-.51-.25-.88-.655-1.11-1.215-.23-.57-.345-1.325-.345-2.265 0-.93.115-1.675.345-2.235.23-.57.6-.98 1.11-1.23.52-.25 1.21-.375 2.07-.375zm0 1.17c-.5 0-.9.08-1.2.24-.29.16-.5.435-.63.825-.12.38-.18.915-.18 1.605s.06 1.23.18 1.62c.13.39.34.665.63.825.3.15.7.225 1.2.225s.895-.075 1.185-.225c.29-.16.495-.435.615-.825.12-.39.18-.93.18-1.62 0-.69-.06-1.225-.18-1.605-.12-.39-.325-.665-.615-.825-.29-.16-.685-.24-1.185-.24zm8.523-1.065c.77 0 1.38.055 1.83.165.45.11.775.305.975.585.21.28.315.68.315 1.2 0 .52-.125.915-.375 1.185-.25.26-.655.415-1.215.465v.045c.68.05 1.155.24 1.425.57.28.33.42.79.42 1.38 0 .5-.1.89-.3 1.17-.2.27-.515.46-.945.57-.43.11-1 .165-1.71.165-.53 0-.995-.005-1.395-.015-.39 0-.75-.01-1.08-.03-.32-.01-.66-.025-1.02-.045l.18-1.035c.2.01.575.02 1.125.03h1.965c.43 0 .77-.03 1.02-.09.26-.06.44-.17.54-.33.11-.17.165-.405.165-.705 0-.45-.13-.755-.39-.915-.26-.17-.725-.255-1.395-.255h-3.045v-.975h3.045c.39 0 .7-.025.93-.075.24-.06.41-.165.51-.315.11-.16.165-.38.165-.66 0-.27-.06-.475-.18-.615-.11-.14-.295-.24-.555-.3-.26-.06-.61-.09-1.05-.09-.45-.01-.85-.015-1.2-.015s-.66.005-.93.015c-.27 0-.51.01-.72.03l-.18-1.02c.32-.03.625-.05.915-.06.29-.01.605-.015.945-.015.35-.01.755-.015 1.215-.015zm-1.71.09v7.32h-1.365v-7.32h1.365z" fill="#030303"/><defs><clipPath id="clip0_3433_45549"><path fill="#fff" transform="translate(302)" d="M0 0h214v372H0z"/></clipPath></defs></svg>