<svg width="36" height="36" viewBox="0 0 36 36" fill="none" xmlns="http://www.w3.org/2000/svg">
<mask id="mask0_3015_61658" style="mask-type:luminance" maskUnits="userSpaceOnUse" x="0" y="2" width="36" height="34">
<path d="M35.25 35.25V2.75H0.75V35.25H35.25Z" fill="white" stroke="white" stroke-width="1.5"/>
</mask>
<g mask="url(#mask0_3015_61658)">
<path d="M15.0117 9.86084H6.66113C6.66113 11.1536 5.61311 12.2017 4.32031 12.2017V20.0044C5.61311 20.0044 6.66113 21.0524 6.66113 22.3452H18.8046" stroke="#F9B974" stroke-width="1.5" stroke-miterlimit="10" stroke-linecap="round" stroke-linejoin="round"/>
<path d="M15.1797 16.1029C15.1797 14.5503 16.4383 13.2917 17.9909 13.2917C19.5434 13.2917 20.8021 14.5503 20.8021 16.1029C20.8021 17.6555 19.5434 18.9141 17.9909 18.9141C16.4383 18.9141 15.1797 17.6555 15.1797 16.1029Z" stroke="#F9B974" stroke-width="1.5" stroke-miterlimit="10" stroke-linecap="round" stroke-linejoin="round"/>
<path d="M10.7617 16.103H9.03516" stroke="#F9B974" stroke-width="1.5" stroke-miterlimit="10" stroke-linecap="round" stroke-linejoin="round"/>
<path d="M14.3477 25.0015H34.3359V7.20459H1.66406V25.0015H19.0647" stroke="#F9B974" stroke-width="1.5" stroke-miterlimit="10" stroke-linecap="round" stroke-linejoin="round"/>
<path d="M24.7734 31.6123H19.9922C19.112 31.6123 18.3984 30.8988 18.3984 30.0186C18.3984 29.1383 19.112 28.4248 19.9922 28.4248H24.7734C25.6537 28.4248 26.3672 29.1383 26.3672 30.0186C26.3672 30.8988 25.6537 31.6123 24.7734 31.6123Z" stroke="#F9B974" stroke-width="1.5" stroke-miterlimit="10" stroke-linecap="round" stroke-linejoin="round"/>
<path d="M24.7734 28.4248H19.9922C19.112 28.4248 18.3984 27.7113 18.3984 26.8311C18.3984 25.9508 19.112 25.2373 19.9922 25.2373H24.7734C25.6537 25.2373 26.3672 25.9508 26.3672 26.8311C26.3672 27.7113 25.6537 28.4248 24.7734 28.4248Z" stroke="#F9B974" stroke-width="1.5" stroke-miterlimit="10" stroke-linecap="round" stroke-linejoin="round"/>
<path d="M32.7422 31.8999H27.9609C27.0807 31.8999 26.3672 31.1864 26.3672 30.3062C26.3672 29.4259 27.0807 28.7124 27.9609 28.7124H32.7422C33.6224 28.7124 34.3359 29.4259 34.3359 30.3062C34.3359 31.1864 33.6224 31.8999 32.7422 31.8999Z" stroke="#F9B974" stroke-width="1.5" stroke-miterlimit="10" stroke-linecap="round" stroke-linejoin="round"/>
<path d="M32.7422 28.7124H27.9609C27.0807 28.7124 26.3672 27.9989 26.3672 27.1187C26.3672 26.2384 27.0807 25.5249 27.9609 25.5249H32.7422C33.6224 25.5249 34.3359 26.2384 34.3359 27.1187C34.3359 27.9989 33.6224 28.7124 32.7422 28.7124Z" stroke="#F9B974" stroke-width="1.5" stroke-miterlimit="10" stroke-linecap="round" stroke-linejoin="round"/>
<path d="M32.7422 25.5249H27.9609C27.0807 25.5249 26.3672 24.8114 26.3672 23.9312C26.3672 23.0509 27.0807 22.3374 27.9609 22.3374H32.7422C33.6224 22.3374 34.3359 23.0509 34.3359 23.9312C34.3359 24.8114 33.6224 25.5249 32.7422 25.5249Z" stroke="#F9B974" stroke-width="1.5" stroke-miterlimit="10" stroke-linecap="round" stroke-linejoin="round"/>
<path d="M8.00391 31.8999H3.22266C2.34244 31.8999 1.62891 31.1864 1.62891 30.3062C1.62891 29.4259 2.34244 28.7124 3.22266 28.7124H8.00391C8.88412 28.7124 9.59766 29.4259 9.59766 30.3062C9.59766 31.1864 8.88412 31.8999 8.00391 31.8999Z" stroke="#F9B974" stroke-width="1.5" stroke-miterlimit="10" stroke-linecap="round" stroke-linejoin="round"/>
<path d="M8.00391 28.7124H3.22266C2.34244 28.7124 1.62891 27.9989 1.62891 27.1187C1.62891 26.2384 2.34244 25.5249 3.22266 25.5249H8.00391C8.88412 25.5249 9.59766 26.2384 9.59766 27.1187C9.59766 27.9989 8.88412 28.7124 8.00391 28.7124Z" stroke="#F9B974" stroke-width="1.5" stroke-miterlimit="10" stroke-linecap="round" stroke-linejoin="round"/>
<path d="M8.00391 25.5249H3.22266C2.34244 25.5249 1.62891 24.8114 1.62891 23.9312C1.62891 23.0509 2.34244 22.3374 3.22266 22.3374H8.00391C8.88412 22.3374 9.59766 23.0509 9.59766 23.9312C9.59766 24.8114 8.88412 25.5249 8.00391 25.5249Z" stroke="#F9B974" stroke-width="1.5" stroke-miterlimit="10" stroke-linecap="round" stroke-linejoin="round"/>
<path d="M31.6797 15.439V12.2017C30.3869 12.2017 29.3389 11.1536 29.3389 9.86084H20.9883" stroke="#F9B974" stroke-width="1.5" stroke-miterlimit="10" stroke-linecap="round" stroke-linejoin="round"/>
</g>
</svg>
