<svg width="36" height="36" viewBox="0 0 36 36" fill="none" xmlns="http://www.w3.org/2000/svg">
<g clip-path="url(#clip0_3015_61680)">
<path d="M22.5087 12.7781C24.5134 10.7733 24.5134 7.52308 22.5086 5.5184C20.5039 3.51373 17.2536 3.51379 15.2489 5.51853C13.2442 7.52327 13.2443 10.7735 15.249 12.7782C17.2538 14.7829 20.5041 14.7828 22.5087 12.7781Z" stroke="#F9B974" stroke-width="1.5" stroke-miterlimit="10" stroke-linecap="round" stroke-linejoin="round"/>
<path d="M24.5821 14.8515C27.7317 11.7017 27.7317 6.59496 24.5819 3.44528C21.4321 0.295598 16.3253 0.295687 13.1757 3.44548C10.026 6.59527 10.0261 11.702 13.1759 14.8517C16.3257 18.0014 21.4324 18.0013 24.5821 14.8515Z" stroke="#F9B974" stroke-width="1.5" stroke-miterlimit="10" stroke-linecap="round" stroke-linejoin="round"/>
<path d="M27.8646 16.1145L25.8456 18.1335L23.4844 15.7722C24.2704 15.2228 24.9536 14.5394 25.5027 13.7532L27.8646 16.1145Z" stroke="#F9B974" stroke-width="1.5" stroke-miterlimit="10" stroke-linecap="round" stroke-linejoin="round"/>
<path d="M33.1127 16.645L31.7234 15.2556L27.9865 18.9925M27.9865 18.9925L33.7862 24.7921C34.8181 25.824 36.4911 25.824 37.523 24.7921C38.5549 23.7602 38.5549 22.0872 37.523 21.0553L37.4886 21.0209M27.9865 18.9925L27.9865 28.8679M17 9.5L19 11L21 7.5M3.70312 5.16797V31.8608M3.70312 31.8608H7.68654V34.917H3.70312V31.8608ZM3.70312 31.8608H27.9865M3.70312 31.8608V28.8679H27.9865M27.9865 31.8608H24.003V34.917H27.9865V31.8608ZM27.9865 31.8608V28.8679M3.70312 21.9606H27.9865M3.70312 11.9966H14.2366M11.677 18.6996H6.51605V21.9605H11.677M11.677 18.6996V21.9605M11.677 18.6996H16.8379V21.9605H11.677M6.71559 24.9504H10.6331V28.8679H6.71559V24.9504ZM13.8503 24.9504H17.7678V28.8679H13.8503V24.9504ZM20.9849 24.9504H24.9024V28.8679H20.9849V24.9504ZM7.87041 15.4387H13.0313V18.6996H7.87041V15.4387ZM6.93462 8.18086H10.5488V11.7951H6.93462V8.18086Z" stroke="#F9B974" stroke-width="1.4" stroke-miterlimit="10" stroke-linecap="round" stroke-linejoin="round"/>
</g>
<defs>
<clipPath id="clip0_3015_61680">
<rect width="36" height="36" fill="white"/>
</clipPath>
</defs>
</svg>
