<svg width="36" height="36" viewBox="0 0 36 36" fill="none" xmlns="http://www.w3.org/2000/svg">
<g clip-path="url(#clip0_3015_61761)">
<mask id="mask0_3015_61761" style="mask-type:luminance" maskUnits="userSpaceOnUse" x="0" y="0" width="36" height="36">
<path d="M35.2499 35.25V0.750107H0.75V35.25H35.2499Z" fill="white" stroke="white" stroke-width="1.5"/>
</mask>
<g mask="url(#mask0_3015_61761)">
<path d="M26.9858 3.74734V2.56054C26.9858 1.53482 26.1543 0.703312 25.1286 0.703312H19.5324C18.5067 0.703312 17.6752 1.53482 17.6752 2.56054V3.74734H14.0566V5.29266C14.0566 6.06167 14.68 6.68506 15.449 6.68506H29.2121C29.9811 6.68506 30.6045 6.06167 30.6045 5.29266V3.74734H26.9858Z" stroke="#F9B974" stroke-width="1.5" stroke-miterlimit="10" stroke-linecap="round" stroke-linejoin="round"/>
<path d="M9.86258 19.3726C9.8443 19.3444 9.82742 19.3155 9.81055 19.2875L9.81125 19.2867C9.82812 19.3155 9.845 19.3444 9.86258 19.3726Z" stroke="#F9B974" stroke-width="1.5" stroke-miterlimit="10" stroke-linecap="round" stroke-linejoin="round"/>
<path d="M34.9497 30.0651V34.2816C34.9497 34.842 34.4948 35.2969 33.9345 35.2969H10.7281C10.1677 35.2969 9.71289 34.842 9.71289 34.2816V25.4592L10.396 24.776L9.72667 24.1067L12.1906 21.6428C14.6739 23.0665 17.8962 22.7179 20.0174 20.5966C22.5556 18.0584 22.5556 13.9425 20.0174 11.4043C17.4785 8.86543 13.3626 8.86543 10.8245 11.4043C10.3738 11.855 10.0025 12.3556 9.71289 12.8879V4.76355C9.71289 4.20253 10.1677 3.74831 10.7281 3.74831H14.058V5.29371C14.058 6.06222 14.6816 6.68582 15.4501 6.68582H29.2125C29.981 6.68582 30.6046 6.06222 30.6046 5.29371V3.74831H33.9345C34.4948 3.74831 34.9497 4.20253 34.9497 4.76355V23.8843" stroke="#F9B974" stroke-width="1.5" stroke-miterlimit="10" stroke-linecap="round" stroke-linejoin="round"/>
<path d="M21.0566 3.69418C21.0566 3.69418 23.6065 3.70662 23.6065 3.69418" stroke="#F9B974" stroke-width="1.5" stroke-miterlimit="10" stroke-linecap="round" stroke-linejoin="round"/>
<path d="M20.0177 29.73C19.559 30.8384 18.4669 31.6182 17.1927 31.6182C15.5049 31.6182 14.1367 30.25 14.1367 28.5622C14.1367 26.8743 15.5049 25.5061 17.1927 25.5061" stroke="#F9B974" stroke-width="1.5" stroke-miterlimit="10" stroke-linecap="round" stroke-linejoin="round"/>
<path d="M24.4629 14.1289H30.2396" stroke="#F9B974" stroke-width="1.5" stroke-miterlimit="10" stroke-linecap="round" stroke-linejoin="round"/>
<path d="M24.4629 17.4648H28.0521" stroke="#F9B974" stroke-width="1.5" stroke-miterlimit="10" stroke-linecap="round" stroke-linejoin="round"/>
<path d="M23.9805 26.8252H30.2395" stroke="#F9B974" stroke-width="1.5" stroke-miterlimit="10" stroke-linecap="round" stroke-linejoin="round"/>
<path d="M23.9805 30.1611H28.052" stroke="#F9B974" stroke-width="1.5" stroke-miterlimit="10" stroke-linecap="round" stroke-linejoin="round"/>
<path d="M16.5 28.059L17.4596 29.0186L20.018 26.4603" stroke="#F9B974" stroke-width="1.5" stroke-miterlimit="10" stroke-linecap="round" stroke-linejoin="round"/>
<path d="M10.395 24.7757L5.50647 29.6647C4.48722 30.684 2.83453 30.6841 1.81522 29.6647C0.795969 28.6455 0.795969 26.9929 1.81522 25.9736L6.70375 21.0851L10.395 24.7757Z" stroke="#F9B974" stroke-width="1.5" stroke-miterlimit="10" stroke-linecap="round" stroke-linejoin="round"/>
<path d="M9.80991 19.2868L7.35742 21.7393L9.72498 24.1069L12.1894 21.6426C11.6899 21.3557 11.2306 21.0039 10.8235 20.5963C10.4312 20.2048 10.0906 19.7647 9.80991 19.2868Z" stroke="#F9B974" stroke-width="1.5" stroke-miterlimit="10" stroke-linecap="round" stroke-linejoin="round"/>
<path d="M10.8238 11.4041C8.28528 13.9427 8.28528 18.0583 10.8238 20.5968C13.3623 23.1354 17.4781 23.1354 20.0165 20.5968C22.555 18.0584 22.555 13.9427 20.0165 11.4041C17.4781 8.86556 13.3623 8.86556 10.8238 11.4041Z" stroke="#F9B974" stroke-width="1.5" stroke-miterlimit="10" stroke-linecap="round" stroke-linejoin="round"/>
<path d="M12.7129 16.2773L14.5147 18.0791L18.1969 14.397" stroke="#F9B974" stroke-width="1.5" stroke-miterlimit="10" stroke-linecap="round" stroke-linejoin="round"/>
</g>
</g>
<defs>
<clipPath id="clip0_3015_61761">
<rect width="36" height="36" fill="white"/>
</clipPath>
</defs>
</svg>
