<svg width="36" height="36" viewBox="0 0 36 36" fill="none" xmlns="http://www.w3.org/2000/svg">
<path d="M30.6562 18.7031C30.2681 18.7031 29.9531 19.0181 29.9531 19.4062C29.9531 19.7944 30.2681 20.1094 30.6562 20.1094C31.0444 20.1094 31.3594 19.7944 31.3594 19.4062C31.3594 19.0181 31.0444 18.7031 30.6562 18.7031ZM30.6562 21.5156C30.2681 21.5156 29.9531 21.8306 29.9531 22.2188C29.9531 22.6069 30.2681 22.9219 30.6562 22.9219C31.0444 22.9219 31.3594 22.6069 31.3594 22.2188C31.3594 21.8306 31.0444 21.5156 30.6562 21.5156ZM27.8438 18.7031C27.4556 18.7031 27.1406 19.0181 27.1406 19.4062C27.1406 19.7944 27.4556 20.1094 27.8438 20.1094C28.2319 20.1094 28.5469 19.7944 28.5469 19.4062C28.5469 19.0181 28.2319 18.7031 27.8438 18.7031ZM27.8438 21.5156C27.4556 21.5156 27.1406 21.8306 27.1406 22.2188C27.1406 22.6069 27.4556 22.9219 27.8438 22.9219C28.2319 22.9219 28.5469 22.6069 28.5469 22.2188C28.5469 21.8306 28.2319 21.5156 27.8438 21.5156ZM8.15625 28.7578C7.76812 28.7578 7.45312 29.0728 7.45312 29.4609C7.45312 29.8491 7.76812 30.1641 8.15625 30.1641C8.54437 30.1641 8.85938 29.8491 8.85938 29.4609C8.85938 29.0728 8.54437 28.7578 8.15625 28.7578Z" fill="#F9B974"/>
<path d="M32.0625 0H3.9375C2.77439 0 1.82812 0.946266 1.82812 2.10938V33.8906C1.82812 35.0537 2.77439 36 3.9375 36H32.0625C33.2256 36 34.1719 35.0537 34.1719 33.8906V2.10938C34.1719 0.946266 33.2256 0 32.0625 0ZM32.7656 33.8906C32.7656 34.2783 32.4502 34.5938 32.0625 34.5938H3.9375C3.5498 34.5938 3.23438 34.2783 3.23438 33.8906V2.10938C3.23438 1.72167 3.5498 1.40625 3.9375 1.40625H32.0625C32.4502 1.40625 32.7656 1.72167 32.7656 2.10938V33.8906Z" fill="#F9B974"/>
<path d="M25.0312 2.8125H5.34375C4.95541 2.8125 4.64062 3.12736 4.64062 3.51562V22.2188C4.64062 22.607 4.95541 22.9219 5.34375 22.9219H25.0312C25.4196 22.9219 25.7344 22.607 25.7344 22.2188V3.51562C25.7344 3.12736 25.4196 2.8125 25.0312 2.8125ZM24.3281 21.5156H6.04688V18.7031H24.3281V21.5156ZM8.85938 17.2969V14.2734H10.2656V17.2969H8.85938ZM14.4844 17.2969V14.2734H15.8906V17.2969H14.4844ZM20.1094 17.2969V14.2734H21.5156V17.2969H20.1094ZM24.3281 17.2969H22.9219V13.5703C22.9219 13.182 22.6071 12.8672 22.2188 12.8672H19.4062C19.0179 12.8672 18.7031 13.182 18.7031 13.5703V17.2969H17.2969V13.5703C17.2969 13.182 16.9821 12.8672 16.5938 12.8672H13.7812C13.3929 12.8672 13.0781 13.182 13.0781 13.5703V17.2969H11.6719V13.5703C11.6719 13.182 11.3571 12.8672 10.9688 12.8672H8.15625C7.76791 12.8672 7.45312 13.182 7.45312 13.5703V17.2969H6.04688V11.4609H24.3281V17.2969ZM8.85938 10.0547V7.03125H10.2656V10.0547H8.85938ZM14.4844 10.0547V7.03125H15.8906V10.0547H14.4844ZM20.1094 10.0547V7.03125H21.5156V10.0547H20.1094ZM24.3281 10.0547H22.9219V6.32812C22.9219 5.93986 22.6071 5.625 22.2188 5.625H19.4062C19.0179 5.625 18.7031 5.93986 18.7031 6.32812V10.0547H17.2969V6.32812C17.2969 5.93986 16.9821 5.625 16.5938 5.625H13.7812C13.3929 5.625 13.0781 5.93986 13.0781 6.32812V10.0547H11.6719V6.32812C11.6719 5.93986 11.3571 5.625 10.9688 5.625H8.15625C7.76791 5.625 7.45312 5.93986 7.45312 6.32812V10.0547H6.04688V4.21875H24.3281V10.0547ZM25.0312 25.9453H5.34375C4.95541 25.9453 4.64062 26.2602 4.64062 26.6484V32.2734C4.64062 32.6617 4.95541 32.9766 5.34375 32.9766H25.0312C25.4196 32.9766 25.7344 32.6617 25.7344 32.2734V26.6484C25.7344 26.2602 25.4196 25.9453 25.0312 25.9453ZM24.3281 31.5703H6.04688V27.3516H24.3281V31.5703Z" fill="#F9B974"/>
<path d="M22.2188 28.7578H10.9688C10.5804 28.7578 10.2656 29.0727 10.2656 29.4609C10.2656 29.8492 10.5804 30.1641 10.9688 30.1641H22.2188C22.6071 30.1641 22.9219 29.8492 22.9219 29.4609C22.9219 29.0727 22.6071 28.7578 22.2188 28.7578ZM30.6562 15.8906H27.8438C27.4554 15.8906 27.1406 16.2055 27.1406 16.5938C27.1406 16.982 27.4554 17.2969 27.8438 17.2969H30.6562C31.0446 17.2969 31.3594 16.982 31.3594 16.5938C31.3594 16.2055 31.0446 15.8906 30.6562 15.8906ZM30.6562 5.625H27.8438C27.4554 5.625 27.1406 5.93986 27.1406 6.32812V13.5703C27.1406 13.9586 27.4554 14.2734 27.8438 14.2734H30.6562C31.0446 14.2734 31.3594 13.9586 31.3594 13.5703V6.32812C31.3594 5.93986 31.0446 5.625 30.6562 5.625ZM29.9531 12.8672H28.5469V7.03125H29.9531V12.8672Z" fill="#F9B974"/>
</svg>
