<svg width="36" height="36" viewBox="0 0 36 36" fill="none" xmlns="http://www.w3.org/2000/svg">
<path d="M33.9643 12.9111C33.5759 12.9111 33.2612 13.2259 33.2612 13.6143V29.7908H29.624C29.4374 29.7908 29.2586 29.8647 29.1265 29.9965C28.9947 30.1285 28.9207 30.3074 28.9208 30.4939V34.5938H9.90924V31.7798H11.5536C11.9101 31.7798 12.2103 31.5131 12.2521 31.1591L12.435 29.6059C12.4621 29.3749 12.5948 29.1701 12.7931 29.0561C12.83 29.0344 12.867 29.013 12.9016 28.9921C13.0947 28.8764 13.3383 28.86 13.5528 28.9479L15.0396 29.5571C15.1971 29.6215 15.3727 29.6267 15.5338 29.5716C15.6948 29.5165 15.8305 29.4049 15.9155 29.2574L18.2638 25.1815C18.35 25.0318 18.3781 24.8555 18.3427 24.6864C18.3073 24.5172 18.2109 24.367 18.0718 24.2644L16.7611 23.2984C16.5721 23.1589 16.4598 22.9304 16.4601 22.687V22.631C16.4587 22.3898 16.5711 22.1624 16.7608 22.0226L18.0718 21.0561C18.2109 20.9536 18.3074 20.8034 18.3428 20.6342C18.3782 20.4651 18.3501 20.2888 18.2638 20.139L15.9155 16.0634C15.8304 15.9156 15.6946 15.8038 15.5333 15.7488C15.3719 15.6938 15.1961 15.6993 15.0385 15.7643L13.5196 16.3894C13.3065 16.4776 13.0628 16.4611 12.8698 16.3465C12.8448 16.332 12.8212 16.318 12.7951 16.3031C12.5973 16.1889 12.4632 15.9829 12.4363 15.7516L12.2521 14.1628C12.2322 13.9914 12.1501 13.8334 12.0213 13.7187C11.8925 13.6039 11.726 13.5406 11.5536 13.5406H6.8567C6.68425 13.5407 6.51782 13.6041 6.38905 13.7188C6.26027 13.8335 6.17812 13.9915 6.15821 14.1628L5.97751 15.7215C5.96297 15.8447 5.92004 15.963 5.85209 16.0669C5.78413 16.1707 5.693 16.2575 5.58587 16.3202C5.58116 16.3227 5.57673 16.3254 5.57237 16.3282C5.57047 16.3296 5.56801 16.3306 5.56576 16.332C5.45968 16.3925 5.34119 16.4281 5.2193 16.4359C5.09741 16.4438 4.97533 16.4238 4.86235 16.3773L3.37208 15.764C3.21447 15.6991 3.03867 15.6937 2.87736 15.7487C2.71606 15.8037 2.58021 15.9155 2.49507 16.0631L0.146773 20.139C0.0605443 20.2888 0.0324523 20.4651 0.0678548 20.6342C0.103257 20.8033 0.199677 20.9535 0.338726 21.0561L1.64998 22.0226C1.83983 22.1624 1.95233 22.3896 1.95043 22.6354V22.6868C1.95071 22.9304 1.83814 23.1589 1.6497 23.2979L0.338726 24.2644C0.199563 24.3669 0.103054 24.5171 0.0676436 24.6863C0.0322331 24.8555 0.0604043 25.0318 0.146773 25.1815L2.49507 29.2572C2.58006 29.4047 2.71567 29.5164 2.87675 29.5714C3.03783 29.6265 3.21343 29.6213 3.37095 29.5568L4.85771 28.9479C5.07252 28.8597 5.31587 28.8761 5.50592 28.9902C5.54298 29.0127 5.58031 29.0344 5.62095 29.058C5.81572 29.1701 5.9484 29.3749 5.97554 29.6059L6.15849 31.1591C6.17863 31.3302 6.26085 31.4878 6.38955 31.6023C6.51826 31.7167 6.68448 31.7799 6.8567 31.7798H8.50271V35.2969C8.50271 35.6852 8.81771 36 9.20584 36H29.6228C30.0075 36 30.2259 35.679 30.4572 35.4232C30.812 35.0305 34.5166 30.9397 34.5671 30.8545C34.6321 30.7453 34.6667 30.6207 34.6674 30.4936V13.6143C34.6674 13.2259 34.3526 12.9111 33.9643 12.9111H33.9643ZM7.37216 29.4417C7.29341 28.7707 6.90064 28.1714 6.3252 27.8407C6.29469 27.8231 6.26424 27.8053 6.23127 27.7855C5.66026 27.4433 4.9475 27.3914 4.32488 27.6465L3.40667 28.0226L1.67881 25.0236L2.48459 24.4297C3.03177 24.0257 3.3578 23.3736 3.35668 22.686V22.6406C3.36188 21.9509 3.03563 21.297 2.4841 20.8905L1.67881 20.2967L3.40639 17.2988L4.32622 17.6773C4.95931 17.939 5.69021 17.8882 6.2821 17.5421L6.2942 17.5347C6.29694 17.5333 6.29996 17.5314 6.30263 17.5298C6.89537 17.1804 7.29587 16.5651 7.37441 15.8827L7.4829 14.9466H10.9274L11.0394 15.9131C11.1169 16.5847 11.5107 17.1859 12.0911 17.5202C12.1109 17.5317 12.1306 17.543 12.1518 17.5556C12.7241 17.8948 13.4358 17.9448 14.0551 17.6894L15.0042 17.2988L16.7315 20.2967L15.9262 20.8902C15.3758 21.2959 15.0494 21.9498 15.0536 22.6351V22.6846C15.0525 23.3734 15.3784 24.0257 15.9262 24.4297L16.7315 25.0236L15.0036 28.0223L14.0857 27.6462C13.463 27.3914 12.7506 27.4433 12.1771 27.7864C12.1463 27.805 12.1158 27.8229 12.0886 27.8385C11.5096 28.1711 11.1169 28.7705 11.038 29.4415L10.9282 30.3736H7.48177L7.37216 29.4417ZM30.3271 33.4702V31.197H32.3812L30.3271 33.4702Z" fill="#F9B974"/>
<path d="M13.1353 22.6607C13.1353 20.4936 11.3722 18.7306 9.20518 18.7306C7.03815 18.7306 5.27506 20.4936 5.27506 22.6607C5.27506 24.8277 7.03815 26.5908 9.20518 26.5908C11.3722 26.5908 13.1352 24.8277 13.1352 22.6607H13.1353ZM9.20518 25.1845C7.81348 25.1845 6.68131 24.0521 6.68131 22.6607C6.68131 21.269 7.81348 20.1369 9.20518 20.1369C10.5969 20.1369 11.729 21.269 11.729 22.6607C11.729 24.0521 10.5969 25.1845 9.20518 25.1845ZM33.9642 0H9.20574C8.81733 0 8.50261 0.314789 8.50261 0.703125V6.91861C8.50261 7.30673 8.81733 7.62173 9.20574 7.62173C9.59386 7.62173 9.90886 7.30673 9.90886 6.91861V1.40625H33.2611V7.28529C33.2611 7.6737 33.5761 7.98841 33.9642 7.98841C34.3526 7.98841 34.6673 7.6737 34.6673 7.28529V0.703125C34.6673 0.314789 34.3526 0 33.9642 0H33.9642ZM28.8693 11.0391H20.8727C20.4846 11.0391 20.1696 11.3541 20.1696 11.7425C20.1696 12.1306 20.4846 12.4456 20.8727 12.4456H28.8693C29.2577 12.4456 29.5725 12.1306 29.5725 11.7425C29.5725 11.3541 29.2577 11.0391 28.8693 11.0391ZM28.8693 16.3262H20.8727C20.4846 16.3262 20.1696 16.641 20.1696 17.0293C20.1696 17.4177 20.4846 17.7325 20.8727 17.7325H28.8693C29.2577 17.7325 29.5725 17.4177 29.5725 17.0293C29.5725 16.641 29.2577 16.3262 28.8693 16.3262ZM28.8693 21.6134H20.8727C20.4846 21.6134 20.1696 21.9282 20.1696 22.3165C20.1696 22.7046 20.4846 23.0196 20.8727 23.0196H28.8693C29.2577 23.0196 29.5725 22.7046 29.5725 22.3165C29.5725 21.9282 29.2577 21.6134 28.8693 21.6134ZM28.8693 26.9003H20.8727C20.4846 26.9003 20.1696 27.2151 20.1696 27.6034C20.1696 27.9918 20.4846 28.3065 20.8727 28.3065H28.8693C29.2577 28.3065 29.5725 27.9918 29.5725 27.6034C29.5725 27.2151 29.2577 26.9003 28.8693 26.9003ZM0.703411 14.5769C0.875067 14.5771 1.04082 14.5143 1.16923 14.4004C3.38407 12.4395 6.23391 11.3598 9.19393 11.3598C11.3716 11.3598 13.4494 11.9232 15.2902 13.0018L14.4788 13.1224C14.0949 13.1794 13.8298 13.5371 13.887 13.9213C13.9389 14.2704 14.2391 14.5209 14.5816 14.5209C14.6159 14.5209 14.6508 14.5184 14.686 14.5132L17.2656 14.1295C17.6336 14.0749 17.9017 13.7266 17.861 13.3569L17.5762 10.7762C17.5336 10.3901 17.1856 10.1116 16.8 10.1544C16.4141 10.1969 16.1356 10.5444 16.1782 10.9303L16.2925 11.9639C14.1661 10.6447 11.7411 9.95365 9.19393 9.95365C5.89029 9.95365 2.70922 11.1588 0.237028 13.3473C-0.0535737 13.6046 -0.0807847 14.049 0.176559 14.3399C0.242529 14.4145 0.323628 14.4742 0.414467 14.5151C0.505306 14.556 0.603803 14.577 0.703411 14.5769ZM33.3152 10.6894C33.4262 10.9561 33.6976 11.1338 33.9873 11.1236C34.2768 11.1135 34.5367 10.9207 34.63 10.6466C34.7245 10.3692 34.6317 10.0514 34.4012 9.86984C34.1703 9.68801 33.8434 9.66797 33.5932 9.82343C33.3048 10.0025 33.1847 10.3761 33.3152 10.6894Z" fill="#F9B974"/>
<path d="M28.8703 5.75244H14.5605C14.1724 5.75244 13.8574 6.06716 13.8574 6.45557C13.8574 6.8439 14.1724 7.15869 14.5605 7.15869H28.8703C29.2586 7.15869 29.5734 6.8439 29.5734 6.45557C29.5734 6.06716 29.2586 5.75244 28.8703 5.75244Z" fill="#F9B974"/>
</svg>
