<svg width="569.000000" height="370.000000" viewBox="0 0 569 370" fill="none" xmlns="http://www.w3.org/2000/svg" xmlns:xlink="http://www.w3.org/1999/xlink">
	<desc>
			Created with Pixso.
	</desc>
	<defs/>
	<path id="Vector" d="M30.5605 109.602L420.145 31.0938L464.303 250.225L74.7188 328.734L30.5605 109.602Z" fill="#FFFFFF" fill-opacity="1.000000" fill-rule="evenodd"/>
	<path id="Vector" d="M464.336 250.204C464.336 250.204 464.047 248.857 463.504 246.288C462.979 243.701 462.182 239.874 461.152 234.862C459.109 224.818 456.096 210.05 452.227 191.077C444.543 153.15 433.438 98.4233 419.801 31.1381L420.219 31.4202C316.209 52.4161 179.678 79.9702 30.6777 110.053L30.6426 110.054L31.0117 109.507C46.6211 187.017 61.5488 261.131 75.1523 328.651L74.6426 328.317C188.717 305.404 286.082 285.859 354.932 272.037C389.393 265.144 416.703 259.673 435.426 255.933C444.787 254.064 451.992 252.641 456.879 251.667C459.305 251.18 461.156 250.828 462.414 250.575C463.689 250.322 464.336 250.204 464.336 250.204C464.336 250.204 463.727 250.339 462.504 250.61C461.264 250.862 459.432 251.25 457.025 251.737C452.174 252.728 444.986 254.187 435.68 256.092C416.996 259.885 389.723 265.427 355.316 272.41C286.414 286.359 188.979 306.067 74.8184 329.161L74.3867 329.239L74.3086 328.808C60.6855 261.288 45.7402 187.175 30.1133 109.665L30.0176 109.198L30.4844 109.101L30.5195 109.1C179.557 79.1071 316.09 51.625 420.1 30.6831L420.459 30.6057L420.537 30.965C434.031 98.3605 445.031 153.197 452.645 191.197C456.422 210.153 459.363 224.905 461.369 234.948C462.363 239.943 463.105 243.753 463.631 246.34C464.102 248.91 464.336 250.204 464.336 250.204Z" fill="#030303" fill-opacity="1.000000" fill-rule="evenodd"/>
	<path id="404" d="M281.241 143.014C287.113 169.099 278.533 186.952 258.615 191.457C238.691 195.935 223.172 183.477 217.371 157.46C211.535 131.534 220.247 114.015 240.085 109.528C259.923 105.041 275.444 117.135 281.241 143.014ZM187.098 191.189L149.121 199.779L146.142 186.606L167.412 127.109L188.339 122.376L200.058 174.189L209.884 171.966L212.912 185.351L203.085 187.574L206.233 201.489L190.245 205.105L187.098 191.189ZM335.702 157.579L297.726 166.168L294.746 152.996L316.017 93.4984L336.944 88.7653L348.663 140.578L358.489 138.356L361.516 151.741L351.69 153.963L354.837 167.879L338.85 171.495L335.702 157.579ZM234.394 153.609C238.494 171.86 246.424 179.642 255.48 177.594C264.536 175.545 268.345 165.109 264.165 146.876C260.104 128.923 252.193 121.221 243.19 123.258C234.161 125.3 230.36 135.651 234.394 153.609ZM162.958 182.58L184.389 177.733L176.797 144.164L176.186 144.302L162.814 181.942L162.958 182.58ZM311.562 148.969L332.994 144.122L325.402 110.554L324.791 110.692L311.418 148.332L311.562 148.969Z" fill="#5E60CE" fill-opacity="1.000000" fill-rule="evenodd"/>
	<path id="ошибка" d="M205.639 252.849Q206.457 249.064 205.491 244.408Q204.523 239.743 202.266 236.596Q200.933 234.729 199.152 233.527Q197.929 232.702 196.495 232.19Q192.97 230.921 188.222 231.907Q183.393 232.909 180.663 235.476Q179.562 236.506 178.772 237.737Q177.602 239.558 177.113 241.817Q176.305 245.6 177.264 250.224Q178.231 254.879 180.482 258.049Q181.839 259.948 183.652 261.172Q184.861 261.989 186.273 262.504Q189.801 263.783 194.589 262.789Q199.337 261.804 202.085 259.223Q203.269 258.105 204.093 256.766Q205.179 255 205.639 252.849ZM361.272 219.478L365.646 226.848L371.358 225.663L354.105 197.831L347.973 199.104L343.222 231.499L327.695 218.564L336.406 201.633L330.572 202.844L321.91 219.807L318.892 205.268L313.52 206.383L319.744 236.375L325.117 235.26L321.961 220.054L337.001 232.793L348.933 230.317L349.972 221.823L361.272 219.478ZM214.998 258.115L251.829 250.471L245.604 220.478L240.19 221.602L245.466 247.021L235.13 249.166L229.855 223.747L224.441 224.871L229.716 250.29L219.421 252.427L214.146 227.008L208.773 228.123L214.998 258.115ZM258.289 217.846L253.418 218.857L259.643 248.849L265.98 247.534L275.964 220.712L276.139 220.676Q276.202 221.187 276.416 222.683Q276.638 224.166 276.935 226.008Q277.232 227.85 277.545 229.358L280.684 244.482L285.554 243.471L279.33 213.479L273.034 214.786L263.048 241.393L262.873 241.43Q262.861 240.908 262.623 239.45Q262.382 237.981 262.061 236.229Q261.741 234.477 261.453 233.093L258.289 217.846ZM287.102 211.866L293.327 241.858L302.063 240.045Q308.277 238.755 310.566 235.767Q311.21 234.924 311.603 233.977Q312.611 231.551 311.965 228.439Q311.52 226.295 310.33 224.709Q310.097 224.399 309.836 224.11Q309.782 224.05 309.727 223.992Q308.142 222.315 305.379 221.752Q302.518 221.159 298.201 222.054L294.96 222.727L293.418 215.293L306.522 212.573L305.579 208.031L287.102 211.866ZM186.609 256.649Q183.997 254.164 182.943 249.088Q181.888 244.002 183.318 240.689Q183.685 239.839 184.247 239.147Q185.883 237.13 189.165 236.449Q192.536 235.749 194.829 237.01Q195.563 237.414 196.186 238.019Q198.765 240.499 199.821 245.585Q200.874 250.661 199.477 253.978Q199.143 254.772 198.632 255.429Q197.018 257.504 193.638 258.206Q190.337 258.891 188.038 257.677Q187.267 257.27 186.609 256.649ZM353.886 206.465Q354.433 207.4 354.721 207.96L358.928 215.141L350.489 216.892L351.532 208.622Q351.548 208.084 351.635 207.06Q351.733 206.035 351.825 204.882Q351.915 203.719 351.946 202.835Q352.269 203.517 352.8 204.53Q353.339 205.53 353.886 206.465ZM305.589 233.537Q304.164 234.967 300.842 235.656L297.776 236.293L295.884 227.177L298.407 226.654Q301.975 225.913 303.971 226.461Q304.556 226.622 305.015 226.956Q306.123 227.761 306.499 229.573Q306.892 231.466 306.183 232.75Q305.947 233.178 305.589 233.537Z" fill="#5E60CE" fill-opacity="1.000000" fill-rule="evenodd"/>
	<path id="Vector" d="M412.299 54.9832C412.547 59.4667 409.107 63.3024 404.605 63.5498C400.123 63.7969 396.287 60.3579 396.039 55.8564C395.791 51.3728 399.23 47.5371 403.732 47.2898C408.234 47.0425 412.053 50.4996 412.299 54.9832Z" fill="#DADADA" fill-opacity="1.000000" fill-rule="nonzero"/>
	<path id="Vector" d="M412.297 54.9833C412.207 54.9846 412.178 54.2643 411.764 53.063C411.35 51.8798 410.424 50.1997 408.549 48.9662C406.729 47.7318 403.836 47.1442 401.15 48.3376C398.482 49.4407 396.293 52.4648 396.506 55.8315C396.664 59.2172 399.156 61.9912 401.943 62.7966C404.75 63.6738 407.566 62.7849 409.221 61.3726C410.947 59.9412 411.695 58.1639 411.967 56.9525C412.254 55.7228 412.207 54.9846 412.297 54.9833C412.334 54.9828 412.354 55.1627 412.395 55.5045C412.436 55.8462 412.426 56.369 412.328 57.0193C412.148 58.3014 411.475 60.2577 409.643 61.8708C407.883 63.483 404.816 64.5559 401.686 63.6295C398.574 62.7928 395.734 59.6996 395.568 55.8995C395.332 52.1007 397.822 48.7117 400.814 47.5497C403.824 46.2794 407.006 47.0068 408.92 48.42C410.904 49.832 411.779 51.6932 412.105 52.9498C412.277 53.5959 412.338 54.0997 412.324 54.4423C412.33 54.8026 412.314 54.983 412.297 54.9833Z" fill="#030303" fill-opacity="1.000000" fill-rule="nonzero"/>
	<path id="Vector" d="M407.674 49.4115C407.906 49.354 408.258 52.4303 406.65 55.7341C405.078 59.0554 402.471 60.7162 402.359 60.5016C402.178 60.2881 404.348 58.4176 405.797 55.3324C407.301 52.2463 407.385 49.3978 407.674 49.4115Z" fill="#030303" fill-opacity="1.000000" fill-rule="nonzero"/>
	<path id="Vector" d="M409.387 58.0181C409.154 58.1658 408.041 56.0198 405.572 54.8132C403.121 53.5703 400.748 53.9661 400.709 53.6964C400.689 53.5885 401.244 53.3099 402.232 53.2231C403.205 53.1365 404.613 53.2958 405.992 53.9779C407.373 54.6602 408.344 55.709 408.842 56.5305C409.377 57.3514 409.494 57.9624 409.387 58.0181Z" fill="#030303" fill-opacity="1.000000" fill-rule="nonzero"/>
	<path id="Vector" d="M28.6172 191.4L48.8711 174.752L56.4004 183.911L36.1465 200.559L28.6172 191.4Z" fill="#DADADA" fill-opacity="1.000000" fill-rule="evenodd"/>
	<path id="Vector" d="M56.3945 183.914C56.3223 183.915 55.5508 183.025 54.1953 181.478C52.7637 179.823 50.8945 177.634 48.6191 174.965L49.0879 175.012C43.9102 179.378 36.7891 185.287 28.9199 191.766C28.8574 192.362 28.998 190.972 28.9824 191.116L28.9824 191.134L29.002 191.152L29.0371 191.188L29.0938 191.259L29.2207 191.401L29.4609 191.704L29.9551 192.309L30.9277 193.502C31.5703 194.286 32.2129 195.069 32.8379 195.835C34.0859 197.366 35.3164 198.861 36.4727 200.286L35.8398 200.223C41.6797 195.468 46.7559 191.41 50.4082 188.526C52.1523 187.149 53.5957 186.028 54.7188 185.146C55.752 184.338 56.3398 183.896 56.3945 183.914C56.4473 183.913 55.9668 184.353 55.0254 185.178C53.957 186.094 52.6055 187.268 50.9512 188.698C47.4277 191.706 42.373 195.981 36.4277 200.917L36.0898 201.192L35.7969 200.854C34.6211 199.43 33.3926 197.953 32.125 196.422C31.502 195.656 30.8594 194.873 30.1992 194.09L29.2266 192.897L28.7305 192.292L28.4922 191.989L28.3633 191.847L28.3086 191.775L28.2715 191.74L28.2539 191.722L28.252 191.704C28.2363 191.848 28.3789 190.459 28.3145 191.036C36.1836 184.576 43.3594 178.738 48.6484 174.496L48.916 174.276L49.1172 174.543C51.4668 177.464 53.3047 179.833 54.5547 181.436C55.8047 183.039 56.4473 183.913 56.3945 183.914Z" fill="#030303" fill-opacity="1.000000" fill-rule="nonzero"/>
	<path id="Vector" d="M24.1914 203.244C28.0273 207.908 34.9219 208.58 39.5859 204.744L25.6914 187.85C21.0273 191.686 20.3555 198.58 24.1914 203.244Z" fill="#DADADA" fill-opacity="1.000000" fill-rule="nonzero"/>
	<path id="Vector" d="M24.1914 203.244C24.1562 203.263 23.8457 202.961 23.332 202.302C22.8516 201.624 22.2051 200.552 21.7871 199.063C21.3691 197.574 21.1777 195.63 21.6875 193.532C22.1602 191.435 23.4062 189.217 25.418 187.511L25.7383 187.236L26.0137 187.575C28.1777 190.173 30.5273 193.022 32.9863 195.995C35.4277 198.986 37.7598 201.852 39.9062 204.469L40.1816 204.808L39.8438 205.083C37.7773 206.718 35.375 207.528 33.2129 207.579C31.0527 207.683 29.1875 207.098 27.8086 206.416C26.4277 205.716 25.4961 204.883 24.9277 204.278C24.3965 203.637 24.1562 203.281 24.1914 203.244C24.2988 203.116 25.3496 204.687 28.0703 205.925C29.4121 206.518 31.1855 206.996 33.2031 206.84C35.2188 206.738 37.4238 205.948 39.3105 204.406L39.248 205.02C37.082 202.403 34.7344 199.573 32.2754 196.6C29.834 193.609 27.502 190.742 25.3535 188.125L25.9688 188.188C24.0996 189.73 22.8848 191.766 22.3926 193.72C21.8438 195.674 21.9805 197.51 22.2891 198.947C23 201.838 24.334 203.152 24.1914 203.244Z" fill="#030303" fill-opacity="1.000000" fill-rule="nonzero"/>
	<path id="Vector" d="M26.6289 197.477C24.9277 199.431 24.5039 202.41 25.6016 204.755L26.6289 197.477Z" fill="#DADADA" fill-opacity="1.000000" fill-rule="nonzero"/>
	<path id="Vector" d="M25.6016 204.773C25.4062 204.938 24.2637 203.243 24.6074 200.913C24.9336 198.565 26.5 197.281 26.6465 197.477C26.8477 197.654 25.8047 199.021 25.5469 201.043C25.2148 203.048 25.834 204.661 25.6016 204.773Z" fill="#030303" fill-opacity="1.000000" fill-rule="nonzero"/>
	<path id="Vector" d="M39.5098 198.456C39.2773 198.604 37.6758 196.321 35.457 193.741C33.2383 191.143 31.2441 189.227 31.4219 189.008C31.582 188.807 33.8945 190.467 36.168 193.118C38.4609 195.787 39.7246 198.345 39.5098 198.456Z" fill="#030303" fill-opacity="1.000000" fill-rule="nonzero"/>
	<path id="Vector" d="M41.8965 196.51C41.6641 196.658 40.0625 194.375 37.8438 191.795C35.625 189.197 33.6309 187.281 33.8086 187.062C33.9688 186.861 36.2812 188.521 38.5547 191.172C40.8301 193.841 42.1113 196.381 41.8965 196.51Z" fill="#030303" fill-opacity="1.000000" fill-rule="nonzero"/>
	<path id="Vector" d="M44.2637 194.547C44.0312 194.695 42.4297 192.412 40.2109 189.832C37.9922 187.234 35.998 185.317 36.1758 185.099C36.3359 184.898 38.6484 186.557 40.9219 189.209C43.2148 191.878 44.4785 194.436 44.2637 194.547Z" fill="#030303" fill-opacity="1.000000" fill-rule="nonzero"/>
	<path id="Vector" d="M46.6504 192.601C46.418 192.749 44.8164 190.466 42.5977 187.886C40.3789 185.288 38.3848 183.371 38.5625 183.152C38.7227 182.952 41.0352 184.611 43.3086 187.263C45.584 189.932 46.8652 192.472 46.6504 192.601Z" fill="#030303" fill-opacity="1.000000" fill-rule="nonzero"/>
	<path id="Vector" d="M49.0371 190.637C48.8047 190.785 47.2031 188.502 44.9844 185.922C42.7656 183.324 40.7715 181.407 40.9492 181.189C41.1094 180.988 43.4219 182.647 45.6953 185.299C47.9707 187.968 49.252 190.526 49.0371 190.637Z" fill="#030303" fill-opacity="1.000000" fill-rule="nonzero"/>
	<path id="Vector" d="M51.4043 188.692C51.1719 188.839 49.5703 186.557 47.3516 183.977C45.1328 181.379 43.1387 179.462 43.3164 179.243C43.4766 179.043 45.7891 180.702 48.0625 183.353C50.3379 186.022 51.6191 188.562 51.4043 188.692Z" fill="#030303" fill-opacity="1.000000" fill-rule="nonzero"/>
	<path id="Vector" d="M53.7871 186.728C53.5547 186.875 51.9531 184.593 49.7344 182.013C47.5156 179.415 45.5215 177.498 45.6992 177.279C45.8594 177.079 48.1719 178.738 50.4453 181.389C52.7207 184.059 54.002 186.616 53.7871 186.728Z" fill="#030303" fill-opacity="1.000000" fill-rule="nonzero"/>
	<path id="Vector" d="M67.0684 127.261C66.9785 127.262 66.9492 126.524 66.5332 125.323C66.1191 124.139 65.1758 122.423 63.2832 121.172C61.4434 119.92 58.5156 119.333 55.7949 120.527C53.0898 121.63 50.8652 124.709 51.0781 128.13C51.2363 131.552 53.7656 134.379 56.5898 135.184C59.4316 136.079 62.2832 135.171 63.9746 133.74C65.7363 132.291 66.4668 130.496 66.7559 129.266C67.0254 128 66.9785 127.262 67.0684 127.261C67.1035 127.26 67.125 127.44 67.166 127.782C67.207 128.124 67.1973 128.647 67.0977 129.315C66.9199 130.615 66.2285 132.59 64.3789 134.239C62.6016 135.869 59.4805 136.961 56.3145 136.017C53.166 135.163 50.2891 132.034 50.123 128.18C49.8867 124.345 52.3945 120.92 55.4395 119.721C58.4844 118.432 61.7031 119.177 63.6523 120.608C65.6562 122.038 66.5488 123.917 66.875 125.209C67.0469 125.855 67.1094 126.377 67.1133 126.719C67.1016 127.08 67.1035 127.26 67.0684 127.261Z" fill="#030303" fill-opacity="1.000000" fill-rule="nonzero"/>
</svg>
