<svg width="64.000000" height="64.000000" viewBox="0 0 64 64" fill="none" xmlns="http://www.w3.org/2000/svg" xmlns:xlink="http://www.w3.org/1999/xlink">
	<desc>
			Created with Pixso.
	</desc>
	<defs/>
	<path id="Vector" d="M14.9307 13.4934C14.0815 14.1112 13.5796 14.9604 13.8882 15.3466C14.1973 15.7712 15.124 15.5781 15.9731 14.9991C16.8228 14.3813 17.3242 13.5321 17.0156 13.146C16.7451 12.6827 15.8188 12.8757 14.9307 13.4934ZM47.2061 11.5245L46.897 11.0999L45.7773 11.4087L46.2021 12.0264L47.2061 11.5245ZM47.9009 11.9492L48.4414 11.1384C48.4414 11.1384 47.6304 9.94165 47.5146 9.32397C47.3989 8.70618 47.8623 7.85693 47.9009 7.85693L46.7041 6.96899C46.7041 6.96899 46.1636 8.39734 46.6655 9.82581C47.1675 11.2543 47.9009 11.9492 47.9009 11.9492ZM46.395 6.77588L44.04 5L43.9243 5.73352L46.1636 7.66382L46.395 6.77588ZM17.8647 6.81445C16.7837 5.30884 13.3481 5.88794 10.1436 8.16577C6.97803 10.4049 5.24072 13.4934 6.32178 14.9991C7.40234 16.5048 10.8384 15.9257 14.043 13.6478C17.2471 11.3701 18.9458 8.32019 17.8647 6.81445ZM8.36768 13.9567C7.82715 13.1846 8.25195 11.9105 9.33301 10.6752C9.83496 10.0961 11.1089 9.98022 11.7266 10.2119C11.6494 9.47839 12.5757 8.16577 13.2319 7.89551C14.8149 7.27783 16.2046 7.27783 16.7451 8.04993C17.5176 9.13086 16.2822 11.3701 13.9658 12.9916C11.6494 14.613 9.13965 15.0763 8.36768 13.9567ZM46.7812 10.9069L46.5493 10.5208L45.1597 10.4822L45.5459 11.2157L46.7812 10.9069ZM47.7075 12.1422L47.3989 11.8334L46.4336 12.2581L47.2832 12.9529L47.7075 12.1422ZM49.3291 14.5359C49.4062 14.4586 49.9854 13.6865 50.9893 12.7599C51.9932 11.8334 53.4214 10.9069 53.4214 10.9069C53.4214 10.9069 52.5332 10.0188 51.6841 9.28528C50.8345 8.55176 49.8696 8.12708 49.8696 8.12708C49.8696 8.12708 49.4448 9.4397 49.0205 10.2505C48.6343 11.0613 47.3989 13.146 47.3989 13.146C47.8237 13.339 48.6729 13.4934 49.3291 14.5359ZM46.4722 10.3276L46.395 9.94165L44.7734 9.40112L45.0825 10.2119L46.4722 10.3276ZM49.6768 7.74109C49.6768 7.74109 50.6035 7.89551 51.916 9.05371C53.2285 10.2119 53.6919 10.9069 53.6919 10.9069C53.6919 10.9069 54.0391 10.984 54.3481 10.7523C54.6567 10.5208 54.541 10.0575 54.541 10.0575C54.541 10.0575 53.9619 9.2467 52.5723 8.04993C51.7227 7.5094 50.9507 7.04614 50.1396 6.81445C49.9854 6.89172 49.9087 6.77588 49.7153 7.20056C49.5225 7.62524 49.6768 7.74109 49.6768 7.74109ZM52.958 13.6093C52.3022 13.6478 50.9507 13.1074 50.9507 13.1074L50.2559 13.8022C50.2559 13.8022 51.1055 14.3813 52.6108 14.5359C54.1162 14.6903 55.3906 13.8409 55.3906 13.8409L54.2319 12.8757C54.3091 12.9143 53.6143 13.5707 52.958 13.6093ZM44.04 6.27405L44.1172 7.27783L46.1636 8.70618L46.0864 7.97266L44.04 6.27405ZM46.3179 9.59412L46.2021 8.97644L44.2334 7.85693L44.6577 9.16956L46.3179 9.59412ZM48.2095 13.9181C47.2832 13.3004 46.3179 13.1846 46.0479 13.6093C45.7773 14.0339 46.2793 14.8833 47.1675 15.501C48.0938 16.1187 49.0591 16.2345 49.3291 15.8098C49.6382 15.3466 49.1362 14.4972 48.2095 13.9181ZM49.4448 14.6516L50.3716 15.308L50.5259 14.3042L50.1396 14.0725L49.4448 14.6516ZM52.2246 14.8447L52.6494 16.1959L53.499 16.3118L52.6108 14.8447L52.2246 14.8447ZM45.7388 19.13C46.0479 18.6667 47.4761 16.6592 47.7852 16.2345C47.0127 15.9642 46.5493 15.6168 46.0093 15.0377C45.623 15.5396 43.9243 17.7401 43.5767 18.2034C39.5615 16.3503 35.624 13.4934 32.3809 9.09229C28.6748 13.4548 25.0845 16.8909 20.1812 18.7439L17.0156 14.5745C16.5137 15.2307 16.0503 15.4624 15.5483 15.6554L18.3281 19.3616C17.5947 19.5933 17.0156 19.7091 16.2046 19.8635C15.7031 26.8513 17.5562 31.4454 19.4092 35.3833C18.3667 37.1979 17.6719 39.0123 17.6333 40.6338C17.5947 41.8306 17.981 42.7572 18.5596 43.4521C17.4019 43.6066 16.2822 43.954 15.394 44.7261C15.0078 45.0349 14.7378 45.4596 14.5835 45.923C14.043 45.923 13.5024 46.0387 13.0005 46.2318C11.186 46.9268 10.2593 48.7413 10.5684 50.6329C10.877 52.7174 12.6143 54.2233 14.3901 55.2271C18.8687 57.7367 24.2734 58.5088 29.3311 58.5861C34.7358 58.6628 40.604 58.1614 45.314 55.1887C45.623 54.9954 45.3525 54.4934 45.0439 54.6868C41.5693 56.8873 37.4385 57.6979 33.3848 57.9297C29.1382 58.1998 24.7754 57.968 20.6445 56.9642C18.5986 56.4626 16.5522 55.7675 14.7378 54.7251C13.1548 53.8374 11.5332 52.5245 11.2246 50.6329C10.877 48.8186 11.8809 47.0812 13.7339 46.6178C14.0044 46.5406 14.313 46.5021 14.5835 46.5021C14.5835 46.6951 14.5835 46.8495 14.6221 47.0425C14.8535 48.0463 15.6646 49.0887 16.5522 49.5519C17.2856 49.9381 18.251 49.9381 18.9072 49.3973C19.5635 48.8569 19.5249 48.0077 18.9844 47.39C18.2896 46.6178 17.0928 46.1931 16.0889 46.0387C15.8188 46.0001 15.5483 45.9615 15.2783 45.923C15.3555 45.7299 15.4712 45.5754 15.6255 45.3824C16.5137 44.4172 17.7876 44.0698 19.1387 43.954C20.4131 45.1893 22.189 45.614 22.7681 45.5754L20.104 49.3206L21.5327 50.5557L26.4355 44.1857C28.3271 45.923 30.3735 47.3127 32.5742 48.7025C34.5815 47.39 36.5889 46.0774 38.4038 44.3787L43.6538 50.4784C44.3491 50.1698 44.6577 49.7836 45.0054 49.2816L39.7163 43.0275C39.9478 42.7572 40.2183 42.4869 40.4497 42.1781C40.334 39.1667 41.415 35.5764 45.3525 35.6536C47.2832 30.9436 49.3291 26.1564 48.5957 19.9021C47.5146 19.7477 46.627 19.4774 45.7388 19.13ZM16.5137 46.7336C17.2085 46.9268 18.8687 47.5059 18.7144 48.5095C18.6372 49.0499 17.981 49.2816 17.5176 49.2816C16.8999 49.2816 16.3979 48.9342 15.9731 48.5095C15.4326 47.9304 15.0078 47.2356 15.0469 46.5021C15.5483 46.5021 16.0503 46.6178 16.5137 46.7336ZM26.2812 37.1979L25.8179 37.1979C25.4316 37.1979 25.123 36.6959 25.123 36.3099C25.123 35.808 25.4702 35.422 25.9336 35.422C26.5898 35.422 26.9375 35.7694 26.9375 36.4257C26.9761 36.6959 26.5898 37.1979 26.2812 37.1979ZM44.6191 34.7656C42.5347 34.92 40.9902 36.5801 40.1406 38.3947L40.1797 31.5227L34.3501 31.5227L34.3501 35.3833L37.0908 35.3833L37.0908 38.4719L40.0635 38.4719C39.5229 39.7073 39.2915 41.0199 39.3301 42.1394C36.9365 44.7261 34.8901 46.0001 32.3037 47.7374C30.2578 46.3862 28.5977 45.228 26.8989 43.6837C26.9375 43.6451 26.9761 43.6066 27.0146 43.5679L32.6514 35.422L33.4619 35.422L33.4619 34.0321C33.5391 33.8777 33.6548 33.7233 33.7319 33.5688C33.6548 33.4144 33.5776 33.26 33.4619 33.0669L33.4619 31.5227L32.7671 31.5227C32.6899 31.2524 32.6128 30.9822 32.6128 30.7119L32.6128 29.824C32.6128 28.5114 33.0757 27.3146 33.3076 26.1178C33.3848 25.7703 33.6548 24.8823 33.8096 24.4576C33.8481 24.3032 34.1953 23.5697 34.3501 23.1837L34.3501 26.1949L38.2104 26.1949L38.2104 22.3344L35.0835 22.3344C35.0835 22.1412 34.8901 21.9868 34.6973 21.9868C34.5044 21.9868 34.3501 22.1412 34.311 22.3344L34.311 22.8362L34.2725 22.7976L26.9761 34.5341L26.7832 34.4182L34.1567 22.6432L34.1182 22.5273L33.4233 23.2223L30.2578 26.1564C29.5625 26.6196 29.1382 26.9672 28.7134 27.1987L28.7134 26.8899L24.8525 26.8899L24.8525 27.8551L24.7368 27.8551C23.4243 29.6696 21.4941 32.0245 19.9497 34.4568C18.2124 30.7119 16.7837 27.1987 17.0542 20.597C23.4243 19.0914 28.1343 15.7325 32.3423 10.4435C36.5503 16.2345 42.3799 19.1686 47.5918 20.7129C47.9009 26.6583 46.4336 30.5189 44.6191 34.7656ZM52.9971 14.8447L53.769 16.3503L55.1201 16.4662L53.6143 14.806L52.9971 14.8447ZM50.6035 15.5396L51.2593 15.8098L51.2983 14.613L50.8345 14.42L50.6035 15.5396ZM51.5684 14.6516L51.5684 15.9257L52.3403 16.1187L51.9932 14.7675L51.5684 14.6516ZM53.8848 14.7289L55.7378 16.3889L56.7026 16.2345L54.5796 14.613L53.8848 14.7289ZM24.814 26.1949L28.6748 26.1949L28.6748 22.3344L24.814 22.3344L24.814 26.1949ZM44.6577 44.8033L43.8086 43.7224L44.5034 43.066L43.2681 41.5217L42.4961 42.2552L43.0747 43.066L42.187 43.761L41.5308 43.066L40.7974 43.6837L44.1943 47.6989L44.8896 47.1198L44.272 46.3862L45.1597 45.614L45.8931 46.3475L46.5884 45.7299L45.3911 44.3401L44.6577 44.8033ZM34.3501 21.6008L38.2104 21.6008L38.2104 17.7401L34.3501 17.7401L34.3501 21.6008ZM55.6221 14.0339L54.811 14.4972L57.2822 16.2345L57.9385 15.9642L55.6221 14.0339ZM34.3501 30.7892L38.2104 30.7892L38.2104 26.9285L34.3501 26.9285L34.3501 30.7892ZM24.814 21.6008L28.6748 21.6008L28.6748 17.7401L24.814 17.7401L24.814 21.6008Z" fill="#FBFBFB" fill-opacity="1.000000" fill-rule="evenodd"/>
</svg>
